<svg width="229" height="24" viewBox="0 0 229 24" fill="none" xmlns="http://www.w3.org/2000/svg">
<path d="M6.59072 6.85052L16.2736 2.69923L12.2643 1.05216C12.0949 0.982613 11.9051 0.982613 11.7357 1.05216L2.106 5.00816L6.59072 6.85052Z" fill="url(#paint0_linear_68_2090)"/>
<path d="M18.0757 3.43955L8.38988 7.58962L12 9.07274L21.8941 5.00816L18.0757 3.43955Z" fill="url(#paint1_linear_68_2090)"/>
<path d="M11.3046 10.2908L7.3862 8.68106V11.7288C7.3862 12.1129 7.0748 12.4243 6.69074 12.4243C6.30667 12.4243 5.99528 12.1129 5.99528 11.7288V8.10966L1.48169 6.25543V18.4985C1.48169 18.7805 1.65199 19.0346 1.91288 19.1418L11.3046 23V10.2908Z" fill="url(#paint2_linear_68_2090)"/>
<path d="M12.6955 10.2908V23L22.0872 19.1418C22.348 19.0347 22.5183 18.7805 22.5183 18.4985C22.5183 18.0305 22.5183 6.76768 22.5183 6.25543L12.6955 10.2908Z" fill="url(#paint3_linear_68_2090)"/>
<path d="M34.3355 19C34.1888 19 34.0688 18.9533 33.9755 18.86C33.8821 18.7667 33.8355 18.6467 33.8355 18.5V5.5C33.8355 5.35333 33.8821 5.23333 33.9755 5.14C34.0688 5.04667 34.1888 5 34.3355 5H36.5155C36.6621 5 36.7821 5.04667 36.8755 5.14C36.9688 5.23333 37.0155 5.35333 37.0155 5.5V10.5H38.4955L41.5955 5.38C41.6621 5.27333 41.7555 5.18667 41.8755 5.12C41.9955 5.04 42.1488 5 42.3355 5H44.7555C44.8888 5 44.9888 5.04667 45.0555 5.14C45.1355 5.22 45.1755 5.31333 45.1755 5.42C45.1755 5.5 45.1488 5.58 45.0955 5.66L41.3555 11.74L45.4755 18.32C45.5021 18.3733 45.5155 18.4467 45.5155 18.54C45.5155 18.6733 45.4688 18.7867 45.3755 18.88C45.2955 18.96 45.1955 19 45.0755 19H42.5755C42.3755 19 42.2288 18.96 42.1355 18.88C42.0421 18.7867 41.9688 18.7067 41.9155 18.64L38.6155 13.34H37.0155V18.5C37.0155 18.6467 36.9688 18.7667 36.8755 18.86C36.7821 18.9533 36.6621 19 36.5155 19H34.3355ZM47.1708 22.82C47.0241 22.82 46.9041 22.7667 46.8108 22.66C46.7174 22.5667 46.6708 22.4533 46.6708 22.32V20.94C46.6708 20.8067 46.7174 20.6933 46.8108 20.6C46.9041 20.5067 47.0241 20.46 47.1708 20.46H47.8308C48.0841 20.46 48.2908 20.4067 48.4508 20.3C48.6241 20.2067 48.7774 20.0467 48.9108 19.82C49.0441 19.5933 49.1974 19.28 49.3708 18.88L53.4508 9C53.4908 8.89333 53.5508 8.8 53.6308 8.72C53.7241 8.64 53.8508 8.6 54.0108 8.6H55.8508C55.9574 8.6 56.0508 8.64667 56.1308 8.74C56.2241 8.82 56.2708 8.91333 56.2708 9.02C56.2708 9.04667 56.2641 9.08667 56.2508 9.14C56.2508 9.18 56.2374 9.23333 56.2108 9.3L52.4108 18.42C52.1574 19.0333 51.8908 19.6067 51.6108 20.14C51.3441 20.6733 51.0508 21.14 50.7308 21.54C50.4108 21.94 50.0308 22.2533 49.5908 22.48C49.1641 22.7067 48.6708 22.82 48.1108 22.82H47.1708ZM49.6308 18.76L45.5708 9.3C45.5174 9.19333 45.4908 9.10667 45.4908 9.04C45.5041 8.92 45.5508 8.82 45.6308 8.74C45.7241 8.64667 45.8308 8.6 45.9508 8.6H47.8708C48.0308 8.6 48.1508 8.64667 48.2308 8.74C48.3108 8.82 48.3708 8.90667 48.4108 9L51.4108 16.48L49.6308 18.76ZM58.4319 22.8C58.2852 22.8 58.1652 22.7533 58.0719 22.66C57.9785 22.5667 57.9319 22.4467 57.9319 22.3V9.1C57.9319 8.95333 57.9785 8.83333 58.0719 8.74C58.1652 8.64667 58.2852 8.6 58.4319 8.6H60.3319C60.4785 8.6 60.5985 8.64667 60.6919 8.74C60.7852 8.83333 60.8319 8.95333 60.8319 9.1V9.86C61.1519 9.43333 61.5652 9.08667 62.0719 8.82C62.5785 8.54 63.2119 8.4 63.9719 8.4C64.6652 8.4 65.2652 8.51333 65.7719 8.74C66.2919 8.95333 66.7252 9.26667 67.0719 9.68C67.4319 10.08 67.7052 10.5667 67.8919 11.14C68.0919 11.7133 68.2052 12.36 68.2319 13.08C68.2452 13.3333 68.2519 13.5733 68.2519 13.8C68.2519 14.0267 68.2452 14.2733 68.2319 14.54C68.2185 15.22 68.1119 15.8467 67.9119 16.42C67.7252 16.9933 67.4519 17.4867 67.0919 17.9C66.7319 18.3133 66.2919 18.6333 65.7719 18.86C65.2652 19.0867 64.6652 19.2 63.9719 19.2C63.2919 19.2 62.6985 19.08 62.1919 18.84C61.6985 18.5867 61.2919 18.2467 60.9719 17.82V22.3C60.9719 22.4467 60.9252 22.5667 60.8319 22.66C60.7385 22.7533 60.6252 22.8 60.4919 22.8H58.4319ZM63.0719 16.8C63.5785 16.8 63.9785 16.6933 64.2719 16.48C64.5652 16.2533 64.7719 15.96 64.8919 15.6C65.0252 15.24 65.1052 14.8467 65.1319 14.42C65.1585 14.0067 65.1585 13.5933 65.1319 13.18C65.1052 12.7533 65.0252 12.36 64.8919 12C64.7719 11.64 64.5652 11.3533 64.2719 11.14C63.9785 10.9133 63.5785 10.8 63.0719 10.8C62.5785 10.8 62.1785 10.9133 61.8719 11.14C61.5652 11.3667 61.3452 11.6533 61.2119 12C61.0785 12.3467 60.9985 12.72 60.9719 13.12C60.9585 13.36 60.9519 13.6067 60.9519 13.86C60.9519 14.1133 60.9585 14.3667 60.9719 14.62C60.9852 14.9933 61.0652 15.3467 61.2119 15.68C61.3719 16 61.5985 16.2667 61.8919 16.48C62.1985 16.6933 62.5919 16.8 63.0719 16.8ZM70.8533 19C70.7199 19 70.6066 18.9533 70.5133 18.86C70.4199 18.7667 70.3733 18.6467 70.3733 18.5V9.1C70.3733 8.95333 70.4199 8.83333 70.5133 8.74C70.6066 8.64667 70.7199 8.6 70.8533 8.6H72.8733C73.0066 8.6 73.1199 8.64667 73.2133 8.74C73.3066 8.83333 73.3533 8.95333 73.3533 9.1V11.84H75.3533C76.6999 11.84 77.7266 12.1667 78.4333 12.82C79.1399 13.46 79.4933 14.34 79.4933 15.46C79.4933 16.6333 79.1199 17.52 78.3733 18.12C77.6266 18.7067 76.5666 19 75.1933 19H70.8533ZM73.3133 16.9H75.0933C75.6799 16.9 76.1066 16.7933 76.3733 16.58C76.6533 16.3533 76.7933 15.98 76.7933 15.46C76.7933 14.9533 76.6599 14.5733 76.3933 14.32C76.1266 14.0667 75.6933 13.94 75.0933 13.94H73.3133V16.9ZM85.8922 19.2C84.3589 19.2 83.1389 18.7733 82.2322 17.92C81.3389 17.0667 80.8655 15.8267 80.8122 14.2C80.8122 14.0933 80.8122 13.9533 80.8122 13.78C80.8122 13.5933 80.8122 13.4467 80.8122 13.34C80.8655 12.3133 81.0989 11.4333 81.5122 10.7C81.9255 9.95333 82.5055 9.38667 83.2522 9C83.9989 8.6 84.8722 8.4 85.8722 8.4C86.9922 8.4 87.9255 8.63333 88.6722 9.1C89.4322 9.55333 89.9989 10.18 90.3722 10.98C90.7589 11.7667 90.9522 12.6733 90.9522 13.7V14.16C90.9522 14.2933 90.8989 14.4067 90.7922 14.5C90.6989 14.5933 90.5855 14.64 90.4522 14.64H83.9122C83.9122 14.6533 83.9122 14.68 83.9122 14.72C83.9122 14.7467 83.9122 14.7733 83.9122 14.8C83.9255 15.2267 84.0055 15.62 84.1522 15.98C84.3122 16.3267 84.5322 16.6067 84.8122 16.82C85.1055 17.0333 85.4522 17.14 85.8522 17.14C86.1855 17.14 86.4589 17.0933 86.6722 17C86.8855 16.9067 87.0589 16.7933 87.1922 16.66C87.3389 16.5267 87.4455 16.4133 87.5122 16.32C87.6322 16.1867 87.7255 16.1067 87.7922 16.08C87.8722 16.04 87.9922 16.02 88.1522 16.02H90.2322C90.3655 16.02 90.4722 16.06 90.5522 16.14C90.6455 16.2067 90.6855 16.3067 90.6722 16.44C90.6589 16.6533 90.5455 16.92 90.3322 17.24C90.1322 17.5467 89.8322 17.8533 89.4322 18.16C89.0322 18.4533 88.5322 18.7 87.9322 18.9C87.3455 19.1 86.6655 19.2 85.8922 19.2ZM83.9122 12.82H87.8322V12.78C87.8322 12.3 87.7522 11.8867 87.5922 11.54C87.4455 11.18 87.2255 10.9 86.9322 10.7C86.6389 10.5 86.2855 10.4 85.8722 10.4C85.4589 10.4 85.1055 10.5 84.8122 10.7C84.5189 10.9 84.2922 11.18 84.1322 11.54C83.9855 11.8867 83.9122 12.3 83.9122 12.78V12.82ZM93.4514 22.8C93.3047 22.8 93.1847 22.7533 93.0914 22.66C92.9981 22.5667 92.9514 22.4467 92.9514 22.3V9.1C92.9514 8.95333 92.9981 8.83333 93.0914 8.74C93.1847 8.64667 93.3047 8.6 93.4514 8.6H95.3514C95.4981 8.6 95.6181 8.64667 95.7114 8.74C95.8047 8.83333 95.8514 8.95333 95.8514 9.1V9.86C96.1714 9.43333 96.5847 9.08667 97.0914 8.82C97.5981 8.54 98.2314 8.4 98.9914 8.4C99.6847 8.4 100.285 8.51333 100.791 8.74C101.311 8.95333 101.745 9.26667 102.091 9.68C102.451 10.08 102.725 10.5667 102.911 11.14C103.111 11.7133 103.225 12.36 103.251 13.08C103.265 13.3333 103.271 13.5733 103.271 13.8C103.271 14.0267 103.265 14.2733 103.251 14.54C103.238 15.22 103.131 15.8467 102.931 16.42C102.745 16.9933 102.471 17.4867 102.111 17.9C101.751 18.3133 101.311 18.6333 100.791 18.86C100.285 19.0867 99.6847 19.2 98.9914 19.2C98.3114 19.2 97.7181 19.08 97.2114 18.84C96.7181 18.5867 96.3114 18.2467 95.9914 17.82V22.3C95.9914 22.4467 95.9447 22.5667 95.8514 22.66C95.7581 22.7533 95.6447 22.8 95.5114 22.8H93.4514ZM98.0914 16.8C98.5981 16.8 98.9981 16.6933 99.2914 16.48C99.5847 16.2533 99.7914 15.96 99.9114 15.6C100.045 15.24 100.125 14.8467 100.151 14.42C100.178 14.0067 100.178 13.5933 100.151 13.18C100.125 12.7533 100.045 12.36 99.9114 12C99.7914 11.64 99.5847 11.3533 99.2914 11.14C98.9981 10.9133 98.5981 10.8 98.0914 10.8C97.5981 10.8 97.1981 10.9133 96.8914 11.14C96.5847 11.3667 96.3647 11.6533 96.2314 12C96.0981 12.3467 96.0181 12.72 95.9914 13.12C95.9781 13.36 95.9714 13.6067 95.9714 13.86C95.9714 14.1133 95.9781 14.3667 95.9914 14.62C96.0047 14.9933 96.0847 15.3467 96.2314 15.68C96.3914 16 96.6181 16.2667 96.9114 16.48C97.2181 16.6933 97.6114 16.8 98.0914 16.8ZM110.013 19.2C109.039 19.2 108.179 19.02 107.433 18.66C106.699 18.3 106.119 17.78 105.693 17.1C105.266 16.4067 105.033 15.58 104.993 14.62C104.979 14.4067 104.973 14.14 104.973 13.82C104.973 13.4867 104.979 13.2133 104.993 13C105.033 12.0267 105.259 11.2 105.673 10.52C106.099 9.82667 106.686 9.3 107.433 8.94C108.179 8.58 109.039 8.4 110.013 8.4C110.906 8.4 111.666 8.52667 112.293 8.78C112.919 9.02 113.433 9.32667 113.833 9.7C114.233 10.0733 114.526 10.4667 114.713 10.88C114.913 11.28 115.019 11.6333 115.033 11.94C115.046 12.0733 114.999 12.1933 114.893 12.3C114.799 12.3933 114.686 12.44 114.553 12.44H112.413C112.279 12.44 112.173 12.4067 112.093 12.34C112.026 12.26 111.959 12.1533 111.893 12.02C111.706 11.5533 111.466 11.22 111.173 11.02C110.879 10.82 110.513 10.72 110.073 10.72C109.473 10.72 108.999 10.9133 108.653 11.3C108.306 11.6867 108.119 12.2867 108.093 13.1C108.079 13.62 108.079 14.0933 108.093 14.52C108.133 15.3467 108.319 15.9467 108.653 16.32C108.999 16.6933 109.473 16.88 110.073 16.88C110.539 16.88 110.913 16.78 111.193 16.58C111.473 16.38 111.706 16.0467 111.893 15.58C111.946 15.4467 112.013 15.3467 112.093 15.28C112.173 15.2 112.279 15.16 112.413 15.16H114.553C114.686 15.16 114.799 15.2133 114.893 15.32C114.999 15.4133 115.046 15.5267 115.033 15.66C115.019 15.8867 114.953 16.1533 114.833 16.46C114.726 16.7667 114.546 17.08 114.293 17.4C114.053 17.72 113.739 18.02 113.353 18.3C112.966 18.5667 112.493 18.7867 111.933 18.96C111.386 19.12 110.746 19.2 110.013 19.2ZM117.474 19C117.341 19 117.228 18.9533 117.134 18.86C117.041 18.7667 116.994 18.6467 116.994 18.5V9.1C116.994 8.95333 117.041 8.83333 117.134 8.74C117.228 8.64667 117.341 8.6 117.474 8.6H119.434C119.581 8.6 119.701 8.64667 119.794 8.74C119.888 8.83333 119.934 8.95333 119.934 9.1V12.54H121.194L123.514 8.92C123.554 8.84 123.614 8.76667 123.694 8.7C123.788 8.63333 123.908 8.6 124.054 8.6H126.234C126.354 8.6 126.454 8.64 126.534 8.72C126.628 8.78667 126.674 8.87333 126.674 8.98C126.674 9.02 126.661 9.06667 126.634 9.12C126.621 9.17333 126.601 9.22 126.574 9.26L123.754 13.62L127.014 18.36C127.068 18.44 127.094 18.5267 127.094 18.62C127.094 18.7267 127.054 18.82 126.974 18.9C126.894 18.9667 126.794 19 126.674 19H124.254C124.121 19 124.008 18.9733 123.914 18.92C123.834 18.8533 123.761 18.7733 123.694 18.68L121.174 14.92H119.934V18.5C119.934 18.6467 119.888 18.7667 119.794 18.86C119.701 18.9533 119.581 19 119.434 19H117.474ZM129.212 19C129.092 19 128.986 18.9533 128.892 18.86C128.799 18.7667 128.752 18.6533 128.752 18.52V9.1C128.752 8.95333 128.799 8.83333 128.892 8.74C128.986 8.64667 129.099 8.6 129.232 8.6H131.232C131.379 8.6 131.499 8.64667 131.592 8.74C131.686 8.83333 131.732 8.95333 131.732 9.1V16.7L130.932 16.24L136.152 8.92C136.219 8.82667 136.292 8.75333 136.372 8.7C136.466 8.63333 136.579 8.6 136.712 8.6H138.512C138.646 8.6 138.759 8.64667 138.852 8.74C138.946 8.83333 138.992 8.94 138.992 9.06V18.5C138.992 18.6467 138.946 18.7667 138.852 18.86C138.759 18.9533 138.639 19 138.492 19H136.492C136.359 19 136.246 18.9533 136.152 18.86C136.059 18.7667 136.012 18.6467 136.012 18.5V11.2L136.832 11.34L131.572 18.68C131.519 18.7733 131.446 18.8533 131.352 18.92C131.259 18.9733 131.152 19 131.032 19H129.212ZM141.81 19C141.69 19 141.583 18.9533 141.49 18.86C141.397 18.7667 141.35 18.6533 141.35 18.52V9.1C141.35 8.95333 141.397 8.83333 141.49 8.74C141.583 8.64667 141.697 8.6 141.83 8.6H143.83C143.977 8.6 144.097 8.64667 144.19 8.74C144.283 8.83333 144.33 8.95333 144.33 9.1V16.7L143.53 16.24L148.75 8.92C148.817 8.82667 148.89 8.75333 148.97 8.7C149.063 8.63333 149.177 8.6 149.31 8.6H151.11C151.243 8.6 151.357 8.64667 151.45 8.74C151.543 8.83333 151.59 8.94 151.59 9.06V18.5C151.59 18.6467 151.543 18.7667 151.45 18.86C151.357 18.9533 151.237 19 151.09 19H149.09C148.957 19 148.843 18.9533 148.75 18.86C148.657 18.7667 148.61 18.6467 148.61 18.5V11.2L149.43 11.34L144.17 18.68C144.117 18.7733 144.043 18.8533 143.95 18.92C143.857 18.9733 143.75 19 143.63 19H141.81ZM146.61 7.24C145.797 7.24 145.137 7.11333 144.63 6.86C144.137 6.60667 143.777 6.27333 143.55 5.86C143.337 5.43333 143.23 4.96667 143.23 4.46C143.23 4.35333 143.257 4.26667 143.31 4.2C143.377 4.12 143.477 4.08 143.61 4.08H144.97C145.09 4.08 145.183 4.12 145.25 4.2C145.317 4.26667 145.35 4.35333 145.35 4.46C145.35 4.75333 145.437 5.01333 145.61 5.24C145.783 5.46667 146.117 5.58 146.61 5.58C147.117 5.58 147.45 5.46667 147.61 5.24C147.783 5.01333 147.87 4.75333 147.87 4.46C147.87 4.35333 147.903 4.26667 147.97 4.2C148.037 4.12 148.13 4.08 148.25 4.08H149.61C149.73 4.08 149.823 4.12 149.89 4.2C149.957 4.26667 149.99 4.35333 149.99 4.46C149.99 4.96667 149.877 5.43333 149.65 5.86C149.437 6.27333 149.083 6.60667 148.59 6.86C148.097 7.11333 147.437 7.24 146.61 7.24ZM158.842 19C158.708 19 158.595 18.9533 158.502 18.86C158.408 18.7667 158.362 18.6467 158.362 18.5V9.1C158.362 8.95333 158.408 8.83333 158.502 8.74C158.595 8.64667 158.708 8.6 158.842 8.6H167.702C167.835 8.6 167.948 8.64667 168.042 8.74C168.135 8.83333 168.182 8.95333 168.182 9.1V18.5C168.182 18.6467 168.135 18.7667 168.042 18.86C167.948 18.9533 167.835 19 167.702 19H165.702C165.555 19 165.435 18.9533 165.342 18.86C165.248 18.7667 165.202 18.6467 165.202 18.5V10.96H161.342V18.5C161.342 18.6467 161.295 18.7667 161.202 18.86C161.108 18.9533 160.988 19 160.842 19H158.842ZM175.543 19.2C174.437 19.2 173.51 19.02 172.763 18.66C172.017 18.2867 171.443 17.76 171.043 17.08C170.657 16.4 170.443 15.6067 170.403 14.7C170.39 14.4333 170.383 14.1333 170.383 13.8C170.383 13.4533 170.39 13.1533 170.403 12.9C170.443 11.98 170.67 11.1867 171.083 10.52C171.497 9.84 172.077 9.32 172.823 8.96C173.57 8.58667 174.477 8.4 175.543 8.4C176.597 8.4 177.497 8.58667 178.243 8.96C178.99 9.32 179.57 9.84 179.983 10.52C180.397 11.1867 180.623 11.98 180.663 12.9C180.69 13.1533 180.703 13.4533 180.703 13.8C180.703 14.1333 180.69 14.4333 180.663 14.7C180.623 15.6067 180.403 16.4 180.003 17.08C179.617 17.76 179.05 18.2867 178.303 18.66C177.557 19.02 176.637 19.2 175.543 19.2ZM175.543 17C176.197 17 176.69 16.8 177.023 16.4C177.357 15.9867 177.537 15.3867 177.563 14.6C177.577 14.4 177.583 14.1333 177.583 13.8C177.583 13.4667 177.577 13.2 177.563 13C177.537 12.2267 177.357 11.6333 177.023 11.22C176.69 10.8067 176.197 10.6 175.543 10.6C174.89 10.6 174.39 10.8067 174.043 11.22C173.71 11.6333 173.53 12.2267 173.503 13C173.49 13.2 173.483 13.4667 173.483 13.8C173.483 14.1333 173.49 14.4 173.503 14.6C173.53 15.3867 173.71 15.9867 174.043 16.4C174.39 16.8 174.89 17 175.543 17ZM183.295 22.8C183.148 22.8 183.028 22.7533 182.935 22.66C182.842 22.5667 182.795 22.4467 182.795 22.3V9.1C182.795 8.95333 182.842 8.83333 182.935 8.74C183.028 8.64667 183.148 8.6 183.295 8.6H185.195C185.342 8.6 185.462 8.64667 185.555 8.74C185.648 8.83333 185.695 8.95333 185.695 9.1V9.86C186.015 9.43333 186.428 9.08667 186.935 8.82C187.442 8.54 188.075 8.4 188.835 8.4C189.528 8.4 190.128 8.51333 190.635 8.74C191.155 8.95333 191.588 9.26667 191.935 9.68C192.295 10.08 192.568 10.5667 192.755 11.14C192.955 11.7133 193.068 12.36 193.095 13.08C193.108 13.3333 193.115 13.5733 193.115 13.8C193.115 14.0267 193.108 14.2733 193.095 14.54C193.082 15.22 192.975 15.8467 192.775 16.42C192.588 16.9933 192.315 17.4867 191.955 17.9C191.595 18.3133 191.155 18.6333 190.635 18.86C190.128 19.0867 189.528 19.2 188.835 19.2C188.155 19.2 187.562 19.08 187.055 18.84C186.562 18.5867 186.155 18.2467 185.835 17.82V22.3C185.835 22.4467 185.788 22.5667 185.695 22.66C185.602 22.7533 185.488 22.8 185.355 22.8H183.295ZM187.935 16.8C188.442 16.8 188.842 16.6933 189.135 16.48C189.428 16.2533 189.635 15.96 189.755 15.6C189.888 15.24 189.968 14.8467 189.995 14.42C190.022 14.0067 190.022 13.5933 189.995 13.18C189.968 12.7533 189.888 12.36 189.755 12C189.635 11.64 189.428 11.3533 189.135 11.14C188.842 10.9133 188.442 10.8 187.935 10.8C187.442 10.8 187.042 10.9133 186.735 11.14C186.428 11.3667 186.208 11.6533 186.075 12C185.942 12.3467 185.862 12.72 185.835 13.12C185.822 13.36 185.815 13.6067 185.815 13.86C185.815 14.1133 185.822 14.3667 185.835 14.62C185.848 14.9933 185.928 15.3467 186.075 15.68C186.235 16 186.462 16.2667 186.755 16.48C187.062 16.6933 187.455 16.8 187.935 16.8ZM198.397 19C198.25 19 198.13 18.9533 198.037 18.86C197.943 18.7667 197.897 18.6467 197.897 18.5V10.96H194.757C194.61 10.96 194.49 10.9133 194.397 10.82C194.303 10.7267 194.257 10.6067 194.257 10.46V9.1C194.257 8.95333 194.303 8.83333 194.397 8.74C194.49 8.64667 194.61 8.6 194.757 8.6H203.977C204.123 8.6 204.243 8.64667 204.337 8.74C204.43 8.83333 204.477 8.95333 204.477 9.1V10.46C204.477 10.6067 204.43 10.7267 204.337 10.82C204.243 10.9133 204.123 10.96 203.977 10.96H200.837V18.5C200.837 18.6467 200.79 18.7667 200.697 18.86C200.603 18.9533 200.49 19 200.357 19H198.397ZM209.078 19.2C208.371 19.2 207.738 19.0667 207.178 18.8C206.618 18.52 206.171 18.1467 205.838 17.68C205.504 17.2133 205.338 16.6933 205.338 16.12C205.338 15.1733 205.718 14.4267 206.478 13.88C207.251 13.3333 208.264 12.96 209.518 12.76L212.138 12.38V12.02C212.138 11.5 212.018 11.1 211.778 10.82C211.538 10.54 211.118 10.4 210.518 10.4C210.078 10.4 209.724 10.4867 209.458 10.66C209.191 10.8333 208.984 11.06 208.838 11.34C208.731 11.5133 208.578 11.6 208.378 11.6H206.478C206.331 11.6 206.218 11.56 206.138 11.48C206.058 11.3867 206.024 11.28 206.038 11.16C206.038 10.9333 206.124 10.6667 206.298 10.36C206.471 10.0533 206.738 9.75333 207.098 9.46C207.458 9.15333 207.918 8.9 208.478 8.7C209.038 8.5 209.724 8.4 210.538 8.4C211.378 8.4 212.098 8.5 212.698 8.7C213.298 8.9 213.778 9.18 214.138 9.54C214.498 9.9 214.764 10.32 214.938 10.8C215.111 11.2667 215.198 11.7733 215.198 12.32V18.5C215.198 18.6467 215.151 18.7667 215.058 18.86C214.964 18.9533 214.844 19 214.698 19H212.738C212.604 19 212.491 18.9533 212.398 18.86C212.304 18.7667 212.258 18.6467 212.258 18.5V17.76C212.084 18.0133 211.851 18.2533 211.558 18.48C211.264 18.6933 210.911 18.8667 210.498 19C210.098 19.1333 209.624 19.2 209.078 19.2ZM209.878 17.12C210.318 17.12 210.711 17.0267 211.058 16.84C211.404 16.6533 211.678 16.3667 211.878 15.98C212.078 15.5933 212.178 15.1067 212.178 14.52V14.18L210.318 14.48C209.598 14.6 209.071 14.78 208.738 15.02C208.404 15.26 208.238 15.5533 208.238 15.9C208.238 16.1533 208.311 16.3733 208.458 16.56C208.618 16.7467 208.824 16.8867 209.078 16.98C209.331 17.0733 209.598 17.12 209.878 17.12ZM217.359 19C217.226 19 217.106 18.9533 216.999 18.86C216.906 18.7533 216.859 18.6333 216.859 18.5V17C216.859 16.7067 217.019 16.5467 217.339 16.52C217.726 16.48 218.026 16.3 218.239 15.98C218.466 15.6467 218.626 15.14 218.719 14.46C218.813 13.78 218.859 12.9067 218.859 11.84V9.1C218.859 8.95333 218.906 8.83333 218.999 8.74C219.093 8.64667 219.213 8.6 219.359 8.6H226.819C226.966 8.6 227.086 8.64667 227.179 8.74C227.273 8.83333 227.319 8.95333 227.319 9.1V18.5C227.319 18.6467 227.273 18.7667 227.179 18.86C227.086 18.9533 226.966 19 226.819 19H224.819C224.686 19 224.566 18.9533 224.459 18.86C224.366 18.7667 224.319 18.6467 224.319 18.5V10.96H221.719V12.18C221.719 13.4467 221.646 14.52 221.499 15.4C221.366 16.28 221.133 16.9867 220.799 17.52C220.466 18.04 220.019 18.42 219.459 18.66C218.899 18.8867 218.199 19 217.359 19Z" fill="#555555"/>
<defs>
<linearGradient id="paint0_linear_68_2090" x1="3.26878" y1="13.4773" x2="21.7494" y2="8.91225" gradientUnits="userSpaceOnUse">
<stop offset="0.36" stop-color="#79E2FA"/>
<stop offset="1" stop-color="#007AFF"/>
</linearGradient>
<linearGradient id="paint1_linear_68_2090" x1="3.26878" y1="13.4773" x2="21.7494" y2="8.91225" gradientUnits="userSpaceOnUse">
<stop offset="0.36" stop-color="#79E2FA"/>
<stop offset="1" stop-color="#007AFF"/>
</linearGradient>
<linearGradient id="paint2_linear_68_2090" x1="3.26878" y1="13.4773" x2="21.7494" y2="8.91225" gradientUnits="userSpaceOnUse">
<stop offset="0.36" stop-color="#79E2FA"/>
<stop offset="1" stop-color="#007AFF"/>
</linearGradient>
<linearGradient id="paint3_linear_68_2090" x1="3.26878" y1="13.4773" x2="21.7494" y2="8.91225" gradientUnits="userSpaceOnUse">
<stop offset="0.36" stop-color="#79E2FA"/>
<stop offset="1" stop-color="#007AFF"/>
</linearGradient>
</defs>
</svg>
