<svg width="81" height="80" viewBox="0 0 81 80" fill="none" xmlns="http://www.w3.org/2000/svg">
<path d="M33.1709 29.3057C33.1759 29.3094 33.1809 29.3137 33.1853 29.3169V29.3057H33.1709Z" fill="#FFDC00"/>
<path d="M36.8891 39.5251C36.8891 39.5251 36.7579 32.8476 36.2479 31.55C35.7379 30.2532 33.711 27.1182 31.7285 26.2444V47.6451H36.5685C36.5685 47.6451 38.2304 51.6113 40.3879 53.1269C40.3879 53.1269 43.5222 51.0564 44.2079 47.602H49.1785V26.2595C49.2079 26.2595 43.726 28.3882 43.8572 39.162C43.8572 39.162 45.286 39.4382 45.6066 40.3138C45.9279 41.1882 45.3297 42.4857 43.7122 42.5732C43.7122 42.5732 42.0066 39.7451 41.7722 38.1557C41.5379 36.5664 41.5828 36.4795 41.5828 34.54V26.2444C41.5828 26.2444 40.9848 24.5388 40.4597 24.1307C40.4597 24.1307 39.556 25.3257 39.381 25.9669C39.1916 26.6082 39.2785 38.1544 39.2785 38.1544C39.2785 38.1544 38.6372 40.0351 38.3604 40.6332C38.0835 41.2307 37.5291 42.3388 36.9316 42.4264C36.5235 42.4844 35.0948 42.1926 35.3135 40.6769C35.3148 40.6769 35.781 39.292 36.8891 39.5251ZM45.2572 38.1544C45.2572 38.1544 45.811 30.4569 47.706 29.3488V40.1807H47.6922H47.0066C47.0066 40.1813 45.621 38.1988 45.2572 38.1544ZM44.1928 43.9132C44.1928 43.9132 46.8172 42.6744 46.9185 41.42H47.706V46.0857H47.6922H44.1928V43.9132ZM41.146 50.6051V47.4707H43.0404C42.9835 48.622 41.146 50.6051 41.146 50.6051ZM43.0266 46.0857H41.1316V45.1376C41.1316 45.1376 41.8179 44.6564 41.9191 44.19H43.0266V46.0857ZM40.4754 38.3295C40.4754 38.3295 41.5104 42.4264 42.2548 42.8482C42.2548 42.8482 40.4754 43.272 40.4754 44.1457C40.4754 44.1457 39.7172 42.95 38.4197 42.8482C38.4197 42.8488 40.3297 40.6332 40.4754 38.3295ZM37.8222 44.1464H38.9304C39.0179 44.6132 39.7172 45.0944 39.7172 45.0944V46.042H37.8222V44.1464ZM39.7172 47.412V50.5464C39.7172 50.5464 37.881 48.5632 37.8222 47.412H39.7172ZM36.6854 43.8695V46.042H36.671H33.1722V41.3769H33.9597C34.046 42.6164 36.6854 43.8695 36.6854 43.8695ZM33.8716 40.1376H33.1866V29.3164C33.1816 29.3132 33.1766 29.3088 33.1722 29.3051H33.1866V29.3164C35.0697 30.4551 35.6216 38.1113 35.6216 38.1113C35.2566 38.1544 33.8716 40.1376 33.8716 40.1376Z" fill="#FFDC00"/>
<path d="M66.1191 22.6287L66.0604 22.3812C66.4241 20.5443 65.0835 20.4131 64.836 20.1063C64.631 19.8587 58.756 11.5631 58.756 11.5631C59.2085 9.71186 57.9541 9.78434 57.9541 9.78434C55.0679 9.6669 50.461 15.0038 48.7997 18.1381C47.1379 21.2725 51.0153 20.1056 51.0153 20.1056C51.1179 20.12 51.2348 20.1343 51.3366 20.1638C53.8735 20.7756 58.2617 25.515 58.2617 25.515C58.3791 27.0456 59.5585 27.3512 59.5585 27.3512C64.9097 34.7287 61.031 44.6275 60.9148 44.3787C60.7979 44.1312 59.5004 43.6363 59.5004 43.6363C60.4773 38.7807 60.3597 32.6294 56.8604 27.7163C53.3617 22.8031 43.3466 15.0619 30.7941 21.5638C18.2566 28.0812 21.0266 43.7519 21.0266 43.7519L20.1085 44.3643C15.9979 34.525 21.4504 27.25 22.0185 26.915C23.2429 26.1712 22.631 25.5594 22.6891 25.2531C22.7473 24.9469 25.4591 22.425 26.6253 21.6225C27.7917 20.8212 29.7017 19.8438 30.3135 19.9607C30.926 20.0781 33.5648 21.0687 32.2235 18.1819C30.8679 15.2956 25.5904 10.805 23.7391 9.88746C21.9022 8.96938 22.3248 11.7975 22.3248 11.7975L15.9391 20.3987C15.9391 20.3987 15.9535 20.4425 15.4435 20.6463C14.321 21.0694 14.831 22.6725 14.831 22.6725C7.6435 34.7143 16.3617 47.8056 16.3617 47.8056C15.7497 49.2775 17.1053 49.4087 17.1053 49.4087C17.1053 50.7643 18.0822 50.4594 18.0822 50.4594C18.3885 51.3775 19.2485 51.3775 19.2485 51.3775C22.6891 55.3725 32.6466 57.9531 33.1417 58.1419C33.6373 58.3312 36.7135 59.9781 36.7135 59.9781C34.4979 61.1444 28.9722 61.2756 28.9722 61.2756C27.7479 60.2988 26.0273 61.0281 26.0273 61.0281C26.0273 61.0281 24.7297 60.1681 23.4473 60.1681C22.1497 60.1681 21.6685 64.5269 22.5873 64.7744C23.5053 65.0219 25.9697 64.3375 25.9697 64.3375C26.2173 64.7744 27.0191 65.0075 27.5729 64.9494C28.1273 64.8907 28.9873 64.2063 28.9873 64.2063L29.6579 64.1481C31.3204 64.0894 39.1197 62.4563 39.1197 62.4563L39.251 62.8938L39.8048 62.8644C39.8048 62.8644 39.7904 63.3307 39.4985 63.4181C38.6966 63.6663 39.1341 64.8325 39.1341 64.8325C38.711 65.3863 37.8366 68.9432 37.8366 68.9432C38.2591 69.4975 40.6648 69.92 41.2185 69.745C41.7735 69.5556 42.9979 69.1332 42.9979 69.1332C43.246 67.0481 41.8322 64.8325 41.8322 64.8325C41.8322 64.8325 42.0797 64.0894 42.0797 63.7825C42.0797 63.4769 41.2785 63.1125 41.2785 63.1125V62.865H41.7741C42.386 63.1125 42.3129 62.5006 42.3129 62.5006C44.5879 63.6088 51.8617 64.4106 51.8617 64.4106C54.4429 65.7081 55.0541 64.2212 55.0541 64.2212L57.0804 64.9644H57.881C59.4117 64.1044 58.4935 60.2263 57.7641 60.0512C57.0217 59.8619 54.8191 60.97 54.8191 60.97C53.1579 60.3581 51.8017 61.4656 51.8017 61.4656C49.5273 61.6556 44.3085 60.11 44.3085 60.11C45.1685 60.0519 48.361 57.72 48.361 57.72C55.3735 57.0494 61.7004 51.5088 61.7004 51.5088C62.561 51.815 62.4435 50.8381 62.9979 50.8381C63.5522 50.8381 63.9166 49.7887 64.106 49.7887C64.2953 49.7887 64.9654 49.0456 64.9066 48.6812C64.8485 48.3169 64.411 47.8212 64.411 47.8212C73.6273 34.3063 66.1191 22.6287 66.1191 22.6287ZM55.8122 41.8431C55.8122 41.8431 54.981 41.6094 54.8935 41.7994C54.8053 41.99 54.5722 42.6307 54.7029 42.9075C54.7029 42.9075 54.1935 43.6506 54.4273 44.205C54.4273 44.205 53.786 45.1663 54.0622 45.8231C54.0622 45.8231 50.8835 53.0106 42.1666 54.205C42.1666 54.205 41.7591 53.5644 41.2048 53.6512C40.6504 53.7394 40.7379 53.4175 40.2717 53.6081C39.8048 53.7975 39.5135 53.7681 39.1929 54.1756C39.1929 54.1756 32.5448 53.1843 28.886 49.4963C27.9091 48.505 27.1366 47.3231 26.7722 45.91C26.7722 45.91 27.4429 45.0794 26.7722 44.6712C26.7722 44.6712 27.0053 43.6075 26.1453 43.3743C26.1453 43.36 26.291 42.0769 25.2997 41.8438C25.2997 41.8438 21.7573 24.9319 40.3297 23.1243C40.3297 23.1243 52.9548 22.4394 55.8122 35.8075C55.8122 35.8075 56.0453 39.2625 55.8122 41.8431Z" fill="#FFDC00"/>
<path d="M22.6891 25.1943C22.6454 25.1806 17.0616 23.693 15.9972 20.3981L15.8223 20.4568C16.9154 23.8393 22.4116 25.3118 22.6454 25.3693L22.6891 25.1943Z" fill="#604343"/>
<path d="M14.8754 22.6432L14.7148 22.745C17.2954 26.9875 21.9454 27.0313 21.9898 27.0313V26.8419C21.946 26.8419 17.398 26.7981 14.8754 22.6432Z" fill="#604343"/>
<path d="M30.6347 20.1651L30.7221 20.0044C23.899 15.85 22.3541 11.155 22.339 11.1113L22.1641 11.1694C22.1797 11.2138 23.7397 15.9663 30.6347 20.1651Z" fill="#604343"/>
<path d="M16.333 47.8349L17.0761 49.4236C20.7792 44.5686 25.8236 43.9567 26.1443 43.3586C26.4648 42.7611 25.2986 41.843 25.2986 41.843C20.2543 43.1254 16.333 47.8349 16.333 47.8349Z" fill="#FFDC00"/>
<path d="M24.9343 43.8405C23.1118 44.5262 19.7149 45.8087 17.0037 49.3662L17.1493 49.4831C19.8318 45.9693 23.1849 44.7018 24.9925 44.0018C25.7068 43.7393 26.1149 43.578 26.2168 43.3893C26.5668 42.7331 25.4 41.8005 25.3568 41.7562L25.3274 41.7267L25.2837 41.7411C20.2687 43.0243 16.3181 47.718 16.2743 47.7618L16.4199 47.8793C16.4487 47.8355 20.3562 43.2136 25.2837 41.9305C25.6043 42.1931 26.29 42.878 26.0712 43.3011C25.9987 43.4467 25.5318 43.6218 24.9343 43.8405Z" fill="#604343"/>
<path d="M17.9806 50.43L18.1406 50.5181C18.17 50.4744 20.5168 45.9694 26.7863 44.7306L26.7568 44.5557C20.4006 45.7937 18.0094 50.3863 17.9806 50.43Z" fill="#604343"/>
<path d="M64.749 48.7249V48.7239L64.748 48.7249H64.749Z" fill="#604343"/>
<path d="M19.1465 51.3482L19.3065 51.4356C19.3358 51.3918 21.9309 46.7118 26.7852 45.9687L26.7558 45.7938C21.8146 46.5375 19.1752 51.3044 19.1465 51.3482Z" fill="#604343"/>
<path d="M54.9227 41.7119L54.8789 41.8869C54.967 41.9006 63.1732 43.6657 64.7489 48.7238L64.9232 48.68C63.3201 43.5194 55.0102 41.7263 54.9227 41.7119Z" fill="#604343"/>
<path d="M54.6895 42.9949C54.7613 43.0087 61.9932 44.9925 63.9475 49.8325L64.1213 49.7731C62.1388 44.8456 54.8069 42.8337 54.7332 42.8193L54.6895 42.9949Z" fill="#604343"/>
<path d="M54.4121 44.2776C54.4847 44.2919 62.2552 46.96 62.8383 50.8531L63.0278 50.8238C62.4159 46.8287 54.7909 44.22 54.4709 44.1031L54.4121 44.2776Z" fill="#604343"/>
<path d="M61.5553 51.5669L61.729 51.4644C58.639 46.0413 54.119 45.7062 54.0759 45.7062L54.0615 45.8956C54.1059 45.8962 58.5234 46.2313 61.5553 51.5669Z" fill="#604343"/>
<path d="M58.8293 11.6218L58.6686 11.5344C56.8605 14.7706 50.9999 19.99 50.9424 20.0482L51.0593 20.1794C51.1174 20.1356 57.0068 14.8725 58.8293 11.6218Z" fill="#604343"/>
<path d="M64.909 20.1794L64.7483 20.077C64.7346 20.1207 62.0514 24.3632 58.2314 25.4419L58.2739 25.617C62.1677 24.5094 64.879 20.2082 64.909 20.1794Z" fill="#604343"/>
<path d="M51.2775 20.1062L51.3799 20.2518C55.7387 17.0874 58.9606 11.9125 59.0043 11.8831L58.8431 11.7818C58.8156 11.8256 55.6075 16.9718 51.2775 20.1062Z" fill="#604343"/>
<path d="M41.1312 62.9381L42.1224 63.0112L42.1368 62.9381C42.5149 61.5387 42.2817 54.4968 42.268 54.1912H42.078C42.078 54.2637 42.3255 61.2763 41.9755 62.8069L41.3199 62.7631C41.3492 61.83 41.5392 54.4687 41.3336 53.6663L41.1599 53.7094C41.363 54.5263 41.1299 62.7625 41.1299 62.85L41.1312 62.9381Z" fill="#604343"/>
<path d="M66.134 22.4538L65.9891 22.3369C65.9747 22.3657 63.5691 25.5588 59.5166 27.2788L59.5891 27.4532C63.6853 25.7044 66.1047 22.4682 66.134 22.4538Z" fill="#604343"/>
<path d="M40.3731 53.5932C40.3588 53.5638 40.3294 53.5207 40.2562 53.5207C40.0812 53.5207 39.4837 53.8269 39.2937 53.9288L39.25 53.9582V54.0163C39.2356 54.3082 38.8562 61.1894 39.1044 62.9532L39.1188 63.0256H40.11L40.0956 62.9381C40.0668 59.57 40.0812 54.1038 40.3 53.7825C40.3437 53.7388 40.4025 53.6663 40.3731 53.5932ZM39.9212 62.8363H39.2794C39.075 61.0432 39.4106 54.7156 39.44 54.0738C39.6875 53.9425 39.9794 53.7976 40.14 53.7388C39.8625 54.6432 39.9068 61.2325 39.9212 62.8363Z" fill="#604343"/>
<path d="M57.6341 60.008C57.621 60.0224 56.0885 62.1511 57.7516 65.023L57.9116 64.9349C56.3091 62.1649 57.7666 60.1386 57.781 60.1242L57.6341 60.008Z" fill="#604343"/>
<path d="M41.0732 65.8394H41.2633V69.7757H41.0732V65.8394Z" fill="#604343"/>
<path d="M51.6421 61.4514C51.6277 61.5233 51.1321 63.2589 51.7139 64.4689L51.8752 64.3958C51.3208 63.2438 51.8165 61.5238 51.8165 61.5089L51.6421 61.4514Z" fill="#604343"/>
<path d="M41.7584 64.7606C40.4315 65.2999 39.134 64.7606 39.119 64.7606L39.0459 64.935C39.0896 64.9493 39.6728 65.1981 40.4746 65.1981C40.8828 65.1981 41.349 65.1386 41.8309 64.935L41.7584 64.7606Z" fill="#604343"/>
<path d="M29.0164 64.2945C29.8477 62.7926 29.0602 61.3057 29.0164 61.2614L28.8564 61.3494C28.8708 61.3632 29.6289 62.7925 28.8564 64.2063L29.0164 64.2945Z" fill="#604343"/>
<path d="M54.6601 60.9557C54.6014 61.2763 54.0914 64.0026 54.9651 64.3232L55.0239 64.1338C54.412 63.9144 54.6745 61.7869 54.8345 60.985L54.6601 60.9557Z" fill="#604343"/>
<path d="M39.8248 69.7019L39.6387 69.6672L40.3615 65.7979L40.5476 65.8327L39.8248 69.7019Z" fill="#604343"/>
<path d="M41.1903 62.9963L41.2196 62.8069C40.4765 62.7188 39.7616 62.8069 39.7328 62.8069L39.6596 62.8207L39.6016 63.1713L39.6453 63.2007C39.6596 63.2007 39.9659 63.4632 40.4472 63.4632C40.6803 63.4632 40.9572 63.4045 41.2478 63.2445L41.1609 63.0844C40.4603 63.5069 39.9496 63.215 39.8053 63.1132L39.8196 62.9957C40.009 62.9676 40.5916 62.9238 41.1903 62.9963Z" fill="#604343"/>
<path d="M42.0039 69.484L41.6377 65.8724L41.8261 65.8533L42.1923 69.4649L42.0039 69.484Z" fill="#604343"/>
<path d="M38.7466 69.5078L38.5645 69.4559L39.5946 65.8386L39.7768 65.8904L38.7466 69.5078Z" fill="#604343"/>
<path d="M38.6965 54.1619V53.9726H38.5214C27.2377 53.9726 22.3834 47.9219 22.339 47.8645L22.1934 47.9819C22.237 48.0401 27.1352 54.1632 38.5214 54.1632L38.6965 54.1619Z" fill="#604343"/>
<path d="M22.6022 64.8625C24.6141 63.0987 23.506 60.1825 23.4916 60.1537L23.3166 60.2268C23.331 60.2562 24.3954 63.0406 22.4854 64.7318L22.6022 64.8625Z" fill="#604343"/>
<path d="M26.0132 64.4105C27.0481 62.4711 26.0713 61.0136 26.0713 60.9992L25.9257 61.1017C25.9257 61.1161 26.8294 62.4867 25.8525 64.3236L26.0132 64.4105Z" fill="#604343"/>
<path d="M42.2383 58.2155L42.2677 58.3899C42.3989 58.3761 55.0096 55.8092 58.3483 47.6312L58.1727 47.5586C54.8783 55.6486 42.3696 58.1855 42.2383 58.2155Z" fill="#604343"/>
<path d="M28.8125 49.5262C28.9 49.6862 31.0719 53.4187 32.9963 53.6955L33.025 53.5206C31.1882 53.2581 29.0013 49.4824 28.9725 49.4387L28.8125 49.5262Z" fill="#604343"/>
<path d="M31.189 57.4713L31.1309 57.6464C33.1134 58.3457 35.344 58.492 36.9477 58.492C38.2015 58.492 39.0759 58.4044 39.0909 58.39L39.0765 58.2007C39.0321 58.2157 34.7021 58.6957 31.189 57.4713Z" fill="#604343"/>
<path d="M48.3619 57.8062C48.3914 57.7768 51.015 55.5755 52.6045 54.1324L52.487 54.0012C50.8976 55.4293 48.2745 57.6312 48.2451 57.6599L48.3619 57.8062Z" fill="#604343"/>
<path d="M44.8483 60.3869L44.8914 60.2118C44.2652 60.0512 42.2814 59.5412 42.2814 59.5412L42.2383 59.7162C42.2383 59.7162 44.2214 60.2269 44.8483 60.3869Z" fill="#604343"/>
<path d="M39.0323 61.3781L39.1199 61.2031C39.0761 61.1893 34.9067 59.0162 33.4049 58.1855L33.3174 58.3462C34.8192 59.1918 38.9887 61.3637 39.0323 61.3781Z" fill="#604343"/>
</svg>
