<svg width="81" height="80" viewBox="0 0 81 80" fill="none" xmlns="http://www.w3.org/2000/svg">
<path d="M38.1822 13.9756C33.7909 14.8043 29.9147 17.8462 27.9991 21.8799C25.6835 26.5743 26.2409 32.5256 29.386 36.7112C32.4528 40.893 37.8847 43.2294 43.0278 42.423C47.6797 41.8137 51.8778 38.7299 53.9178 34.5212C56.1466 30.1056 55.8491 24.5394 53.1697 20.383C50.1041 15.4106 43.8884 12.8256 38.1822 13.9756ZM54.5766 23.9381C53.0872 24.8418 51.3604 25.1887 49.746 25.7912C44.7584 27.5568 39.9204 30.1237 36.3097 34.0625C34.7753 35.6274 33.6384 37.5125 32.2228 39.175C32.5622 37.1043 33.234 35.0894 33.3597 32.9874C32.2253 34.1568 31.3572 35.5374 30.3647 36.8168C31.2772 33.1399 31.8472 29.375 33.1166 25.7981C32.2428 23.6112 30.5797 21.7806 29.6372 19.5937C37.1335 22.1594 45.1578 20.463 52.844 21.393C50.8484 22.4062 48.5491 22.6687 46.6297 23.8456C49.2797 24.0256 51.936 23.5887 54.5766 23.9381Z" fill="#57A52C"/>
<path d="M34.5796 64.0969C37.2864 63.1601 39.2577 60.7645 40.2039 58.1269C40.852 56.3381 41.5083 54.4107 41.1208 52.4888C40.9151 51.3819 39.9989 50.565 38.9777 50.1876C36.652 49.3045 34.1215 49.51 31.6846 49.4769C30.2083 52.9219 28.744 56.3738 27.304 59.8344C28.3327 59.875 29.374 60.0825 30.3964 59.8901C31.2452 59.7169 31.822 58.9844 32.1652 58.2338C33.0202 56.3807 33.822 54.505 34.6058 52.6201C35.3484 52.8213 36.3051 52.8682 36.7627 53.5863C37.1689 54.625 36.8146 55.7744 36.4558 56.7763C35.854 58.2407 35.0602 59.7232 33.762 60.6825C31.9158 61.6988 29.7496 61.2825 27.7446 61.3082C26.0984 61.4988 25.8408 63.4763 25.2471 64.705C28.3589 64.8625 31.5933 65.2213 34.5796 64.0969Z" fill="#1F1A17"/>
<path d="M22.1306 54.2395C23.0368 53.1726 24.5418 53.1695 25.8112 52.9326C26.7274 52.7564 27.8937 53.0169 28.5543 52.1957C29.0862 51.3945 29.2968 50.4295 29.645 49.5389C26.5437 49.3507 23.2718 49.552 20.4694 51.0151C17.3718 52.7851 16.0168 56.3807 15.3906 59.7133C15.1356 61.2501 15.2206 63.2364 16.7099 64.1364C18.2194 64.9451 20.0294 64.9145 21.6937 64.8138C23.1831 64.6582 24.1131 63.2945 24.4762 61.9564C23.1056 61.7938 21.6794 61.8251 20.3612 61.3757C19.5018 61.0438 19.5056 59.9726 19.665 59.2151C20.0618 57.3938 20.8981 55.6445 22.1306 54.2395Z" fill="#1F1A17"/>
<path d="M68.2146 49.4888C66.4465 49.6169 64.4896 49.08 62.8871 50.0488C60.9021 51.5132 60.1352 54.2888 57.9015 55.435C58.589 53.4144 59.4971 51.4769 60.2639 49.485C58.8671 49.4781 57.4728 49.485 56.0752 49.48C53.9615 54.5632 51.7802 59.6194 49.6621 64.7012C51.1027 64.7012 52.5421 64.7012 53.9803 64.6832C54.8477 62.5744 55.7221 60.4688 56.6046 58.3676C57.1003 58.4544 57.6959 58.5056 57.9771 58.99C58.9308 60.5656 58.559 62.5594 59.3621 64.1788C60.3215 65.3194 62.0259 64.7663 63.3171 64.7619C62.9396 62.5881 62.7627 60.35 61.9927 58.2712C61.8039 57.6125 61.1815 57.2788 60.7659 56.79C63.9503 55.1725 65.9559 52.1288 68.2146 49.4888Z" fill="#1F1A17"/>
<path d="M50.3822 53.1498C51.2059 53.1379 52.2135 53.0942 52.7235 52.3323C53.2897 51.4673 53.5259 50.4416 53.8991 49.4867C51.5159 49.4747 49.1322 49.4867 46.7491 49.4779C45.9854 49.4729 45.0866 49.606 44.6435 50.3091C44.1004 51.1804 43.8504 52.1935 43.4785 53.1404C45.776 53.1567 48.0797 53.1467 50.3822 53.1498Z" fill="#1F1A17"/>
<path d="M50.3577 58.2768C50.8802 57.4418 51.1259 56.4724 51.4733 55.5587C49.2102 55.5162 46.9446 55.4774 44.6815 55.4412C43.839 55.4568 42.8077 55.4687 42.2677 56.2274C41.6802 57.1087 41.4321 58.16 41.0459 59.1331C43.4133 59.1343 45.7821 59.1418 48.1471 59.1331C48.9446 59.1256 49.8877 59.008 50.3577 58.2768Z" fill="#1F1A17"/>
<path d="M45.7158 64.7361C46.5363 64.733 47.5176 64.6212 47.9976 63.8617C48.512 63.0236 48.7483 62.0536 49.1214 61.1499C46.7751 61.1374 44.4301 61.0586 42.0839 61.048C41.2732 61.0574 40.297 61.1612 39.8283 61.923C39.297 62.7874 39.0389 63.7843 38.6895 64.7299C41.032 64.7468 43.3745 64.738 45.7158 64.7361Z" fill="#1F1A17"/>
</svg>
