<svg width="81" height="80" viewBox="0 0 81 80" fill="none" xmlns="http://www.w3.org/2000/svg">
<path d="M26.1524 10.625H26.6194C30.0041 13.499 33.4395 16.3116 36.8766 19.1243C39.371 21.3423 42.1505 23.2472 44.5013 25.619C38.3897 26.7263 32.0524 29.0702 28.066 34.0694C26.0737 36.3661 24.9961 39.3153 24.5553 42.2924C24.6305 42.2802 24.781 42.2574 24.8545 42.2451C25.5437 40.0639 26.8521 38.1346 28.2409 36.3434C33.2576 30.3996 42.3918 28.3408 49.4044 31.7885C53.9068 33.8018 57.5538 37.7427 59.0074 42.476C60.8266 47.8758 59.9415 54.1134 56.5796 58.7313C55.642 60.3335 54.1639 61.46 52.859 62.7299C57.2408 62.7911 61.626 62.7159 66.0094 62.7614C66.0374 64.0401 66.0182 65.3187 66.0199 66.5991H39.8677C38.4824 66.1986 37.0305 66.0551 35.6417 65.6581C33.0145 64.8325 30.4693 63.6727 28.2321 62.0582C22.1694 57.9651 18.0606 51.1223 17.228 43.8614C16.7102 39.8225 17.298 35.6647 18.6605 31.841C20.5847 26.2925 23.6177 21.1866 25.283 15.542C25.5733 13.9047 26.2189 12.3112 26.1524 10.625ZM39.8415 33.8035C33.0792 34.6414 27.3803 40.8388 27.3541 47.7079C27.0637 52.5409 29.5021 57.4019 33.4902 60.1236C37.5396 63.1778 43.2542 63.5888 47.8441 61.5562C50.0463 60.5959 51.9022 58.9902 53.431 57.157C56.7282 52.8994 57.4209 46.7686 55.007 41.932C52.4042 36.3451 45.9637 32.8118 39.8415 33.8035Z" fill="#109ED8"/>
<path d="M32.8451 39.9117C38.6507 39.735 44.4685 39.8872 50.2793 39.8347C52.2034 39.5864 53.8477 41.4982 53.7689 43.3331C53.748 47.1044 53.8494 50.8809 53.7164 54.6486C53.2162 55.9815 51.9883 57.2707 50.4542 57.1465C44.5629 57.1605 38.6734 57.1517 32.7839 57.1517C31.2971 56.8753 30.1933 55.5547 30.0936 54.0557C29.847 50.5503 30.0569 47.0204 29.9817 43.5063C29.9887 41.8603 31.1886 40.1916 32.8451 39.9117ZM32.8276 40.7461C32.7769 40.7863 32.672 40.8702 32.6195 40.9122C33.9366 42.7506 35.5494 44.3949 37.288 45.831C38.5702 47.1482 40.078 48.2711 41.717 49.1054C42.4919 49.3242 43.0114 48.6944 43.6359 48.418C46.6655 46.6916 49.7353 44.617 51.3218 41.4003C51.5248 40.8318 50.881 40.7006 50.456 40.7076C44.5804 40.7391 38.7032 40.6622 32.8276 40.7461ZM31.584 41.5997C31.2691 41.9548 31.0469 42.3816 30.872 42.8206C30.8545 46.6024 30.851 50.3859 30.8738 54.1694C31.1396 54.4685 31.1239 55.3798 31.6889 55.2119C31.967 54.0365 33.0725 53.2493 34.0206 52.6161C35.5441 51.2867 37.2321 50.1113 39.0845 49.2891C39.1684 49.3381 39.3346 49.4326 39.4186 49.4798C39.0023 50.601 37.6152 50.8039 36.7773 51.5298C35.0648 52.7718 33.8316 54.5559 32.1175 55.7856C32.1822 56.2526 33.174 56.3279 33.4836 56.2737C39.3119 56.2771 45.1384 56.2911 50.9668 56.2666C51.1452 56.1845 51.5003 56.0166 51.6787 55.9343C52.499 55.8626 51.6752 55.044 51.502 54.8813C49.7843 53.1024 47.673 51.766 45.5425 50.5241C45.1664 50.2354 44.4755 50.0255 44.5 49.4483C47.5418 50.4261 50.2268 52.3765 52.4133 54.6749C52.4833 54.6802 52.625 54.6906 52.6967 54.6959C52.9521 53.9718 53.1165 53.2038 53.0763 52.4324C53.0133 49.1054 53.2845 45.7348 52.7527 42.4446C52.597 42.1507 52.4903 41.5525 52.0757 41.6137C50.4648 45.3167 46.9121 47.6519 43.4592 49.4641C42.6773 49.8034 41.9392 50.4191 41.0173 50.1602C39.5288 49.0267 38.0804 47.8426 36.6199 46.6741C34.785 45.1383 33.3472 43.1879 31.584 41.5997Z" fill="#109ED8"/>
</svg>
