<svg width="81" height="80" viewBox="0 0 81 80" fill="none" xmlns="http://www.w3.org/2000/svg">
<path d="M18.8959 14C16.6522 14 14.8334 15.8188 14.8334 18.0625V61.9375C14.8334 64.1812 16.6522 66 18.8959 66H62.7709C65.0138 66 66.8334 64.1812 66.8334 61.9375V18.0625C66.8334 15.8188 65.0138 14 62.7709 14H18.8959Z" fill="#E62E04"/>
<path d="M29.1246 31.4292C29.3233 32.2503 29.2112 33.118 29.407 33.9456C30.0895 33.4459 30.5368 32.6208 30.4511 31.7624C30.4369 30.2255 28.7079 29.0206 27.2608 29.5377C26.3512 29.7977 25.678 30.6139 25.5257 31.5369C25.3437 32.6025 25.9783 33.6738 26.9211 34.1564C26.8281 33.2472 26.6091 32.2962 26.8538 31.3972C27.2279 30.4266 28.7798 30.4453 29.1246 31.4292Z" fill="#B32100"/>
<path d="M56.0504 32.5316C56.3822 31.3388 55.6607 29.9567 54.4777 29.5737C53.3484 29.1272 51.9318 29.6959 51.4305 30.8042C50.8715 31.8304 51.2099 33.29 52.232 33.8909C52.4335 33.0674 52.2844 32.1932 52.5249 31.3843C52.9068 30.4284 54.4387 30.4552 54.7869 31.4237C55.0091 32.2894 54.8084 33.1998 54.7244 34.0741C55.4182 33.8596 55.8513 33.1966 56.0504 32.5316Z" fill="#B32100"/>
<path d="M52.5236 31.3838C52.2831 32.1927 52.4318 33.0669 52.2299 33.8904C51.6351 37.4577 49.2411 40.6601 46.0004 42.2616C42.7964 43.9065 38.8017 43.9052 35.602 42.2482C32.3915 40.6508 30.0161 37.4829 29.4063 33.946C29.2105 33.1189 29.3222 32.2508 29.124 31.4297C28.7791 30.4458 27.2272 30.4267 26.8535 31.3976C26.6089 32.2967 26.8279 33.2477 26.9209 34.1569C27.6034 38.5773 30.5605 42.546 34.5677 44.5162C38.2325 46.3578 42.7098 46.4577 46.4587 44.7978C50.7917 42.9266 54.0316 38.7479 54.7243 34.074C54.8084 33.1998 55.009 32.289 54.786 31.4236C54.4374 30.4547 52.9059 30.4279 52.5236 31.3838Z" fill="white"/>
<path d="M28.8763 51.3035C29.4678 51.4177 29.942 51.8589 30.0115 52.4728C30.0931 51.8638 30.555 51.4161 31.153 51.3117C30.5233 51.2447 30.0635 50.736 30.0135 50.1124C29.9566 50.7299 29.5052 51.2414 28.8763 51.3035Z" fill="white"/>
<path d="M24.1562 50.9505C23.3993 52.9867 22.5966 55.0065 21.8373 57.0415C22.0953 57.0273 22.3541 57.0208 22.612 57.0228C22.7753 56.5296 22.9723 56.0494 23.1661 55.5688C24.1033 55.5716 25.041 55.5668 25.9778 55.5716C26.1634 56.0563 26.3588 56.5369 26.5287 57.0268C26.7866 57.0248 27.0446 57.0268 27.3013 57.0366C26.5596 55.0919 25.8088 53.1508 25.0727 51.2045C24.9796 50.7848 24.4617 50.9908 24.1562 50.9505ZM25.6666 54.766C24.9349 54.7738 24.2049 54.7754 23.4737 54.764C23.8332 53.8163 24.1676 52.8575 24.5778 51.93C24.9528 52.8709 25.3091 53.8187 25.6666 54.766Z" fill="white"/>
<path d="M27.7506 57.0373C28.0118 57.0291 28.2714 57.0275 28.5322 57.0299C28.5236 55.0028 28.5261 52.9772 28.5306 50.952C28.2714 50.9533 28.0126 50.952 27.7534 50.9459C27.7473 52.9764 27.7526 55.0076 27.7506 57.0373Z" fill="white"/>
<path d="M31.4963 50.9191C31.4983 52.9553 31.5004 54.9918 31.4955 57.0279C32.7788 57.0405 34.0634 57.0311 35.3464 57.0332C35.3322 56.765 35.3309 56.4969 35.3394 56.2288C34.325 56.232 33.311 56.2341 32.2983 56.2288C32.2942 55.5955 32.2942 54.9641 32.2983 54.3324C33.1339 54.3259 33.9688 54.3312 34.8044 54.3292C34.8015 54.0785 34.8036 53.8279 34.8097 53.5768C33.9748 53.5666 33.14 53.5666 32.306 53.5776C32.2905 52.956 32.2925 52.3357 32.297 51.7141C33.235 51.7048 34.1739 51.706 35.1124 51.7141C35.1038 51.4469 35.1123 51.1787 35.133 50.9126C33.9208 50.911 32.7082 50.8996 31.4963 50.9191Z" fill="white"/>
<path d="M40.3754 54.445C40.273 56.0648 40.3514 57.6942 40.3352 59.3184C40.5899 59.3155 40.8458 59.3155 41.1018 59.3184C41.1079 58.3751 41.1005 57.4314 41.1046 56.4877C41.9854 57.3424 43.4986 57.3765 44.3221 56.4267C45.2829 55.4615 45.0911 53.6849 43.9427 52.9484C42.6565 51.9819 40.5814 52.8489 40.3754 54.445ZM44.0905 55.3656C43.824 56.3796 42.4233 56.7822 41.6555 56.0684C40.724 55.3164 41.0668 53.5805 42.2673 53.3246C43.4268 52.9773 44.5102 54.2626 44.0905 55.3656Z" fill="white"/>
<path d="M47.821 53.2768C47.8202 53.025 47.821 52.7739 47.8251 52.5224C47.2661 52.5419 46.7432 52.7512 46.2984 53.0847C46.2919 52.9408 46.2862 52.7978 46.281 52.6557C46.027 52.6589 45.7747 52.6577 45.5205 52.6524C45.5119 54.1141 45.5115 55.5754 45.5217 57.0359C45.7776 57.0326 46.0335 57.0318 46.2899 57.0347C46.3159 56.2136 46.2476 55.3877 46.3256 54.5691C46.4247 53.8322 47.1158 53.3443 47.821 53.2768Z" fill="white"/>
<path d="M52.0664 53.6247C51.6544 52.8216 50.677 52.3849 49.8012 52.5953C48.7559 52.7895 47.9474 53.799 47.984 54.8617C47.9808 55.9452 48.8323 56.9454 49.9011 57.1177C50.6969 57.2814 51.5228 56.9446 52.0428 56.3369C51.8511 56.1979 51.6638 56.0529 51.4826 55.9005C50.666 56.8317 49.0423 56.4246 48.7482 55.2286C49.9368 55.2164 51.1247 55.2359 52.3122 55.2185C52.315 54.681 52.3406 54.1094 52.0664 53.6247ZM48.7364 54.4824C48.9338 53.8364 49.5099 53.29 50.2135 53.3046C50.8956 53.2685 51.4587 53.836 51.5541 54.4864C50.614 54.499 49.6752 54.5051 48.7364 54.4824Z" fill="white"/>
<path d="M54.9138 56.3406C54.313 56.6567 53.5964 56.3959 53.1629 55.9225C52.9772 56.0818 52.7846 56.2322 52.5892 56.3804C53.297 57.1478 54.512 57.4087 55.4338 56.8777C56.1512 56.4954 56.2804 55.3368 55.6162 54.8444C55.041 54.4174 54.2443 54.5202 53.6581 54.1184C53.329 53.8625 53.5988 53.3912 53.9315 53.2982C54.4491 53.0674 55.0036 53.3258 55.379 53.6947C55.5232 53.5456 55.8819 53.4843 55.8575 53.2482C55.2457 52.3955 53.8844 52.3127 53.1243 53.0098C52.6575 53.4416 52.6502 54.3085 53.1795 54.694C53.7373 55.1024 54.497 55.0203 55.0686 55.3953C55.3993 55.6362 55.2786 56.1964 54.9138 56.3406Z" fill="white"/>
<path d="M58.7169 56.3264C58.1148 56.6661 57.3888 56.3959 56.9371 55.9344C56.7522 56.0766 56.5674 56.2163 56.3793 56.3528C57.0561 57.1816 58.3321 57.4001 59.2486 56.8562C59.9271 56.4645 60.0428 55.3677 59.429 54.8692C58.8448 54.4024 57.999 54.5328 57.4039 54.0904C57.1114 53.8109 57.4144 53.3689 57.7406 53.2848C58.2513 53.0752 58.7839 53.3315 59.154 53.6878C59.3335 53.5542 59.5208 53.4294 59.7126 53.3124C59.113 52.4878 57.8702 52.2883 57.0464 52.8903C56.467 53.2706 56.3663 54.2346 56.933 54.6709C57.4766 55.0975 58.2326 55.0215 58.8135 55.3701C59.1641 55.5874 59.0845 56.1684 58.7169 56.3264Z" fill="white"/>
<path d="M30.4032 57.0324C30.3992 55.5849 30.3984 54.1374 30.4045 52.6904C30.1432 52.6957 29.8832 52.6945 29.6224 52.6876C29.6265 54.1362 29.6245 55.5866 29.6245 57.0352C29.8832 57.0291 30.1436 57.0283 30.4032 57.0324Z" fill="white"/>
<path d="M36.6139 57.026C37.0136 56.4906 37.4125 55.9539 37.8452 55.4449C38.2515 55.9698 38.6573 56.4975 39.0567 57.0276C39.3625 57.0288 39.668 57.0297 39.9744 57.0329C39.434 56.2948 38.8613 55.581 38.3071 54.8542C38.8478 54.1168 39.43 53.4088 39.9687 52.6706C39.668 52.6706 39.3573 52.6251 39.0632 52.7047C38.6078 53.1841 38.2645 53.759 37.8245 54.2538C37.4682 53.8 37.1274 53.3352 36.7711 52.8802C36.5391 52.5211 36.0544 52.6998 35.7002 52.671C36.2364 53.4112 36.8178 54.1168 37.3602 54.853C36.804 55.579 36.2292 56.2915 35.6937 57.0333C36.0008 57.0313 36.3075 57.0285 36.6139 57.026Z" fill="white"/>
<path d="M18.8959 14C16.6522 14 14.8334 15.8188 14.8334 18.0625V25.7812C14.8334 23.5375 16.6522 21.7188 18.8959 21.7188H62.7709C65.0138 21.7188 66.8334 23.5375 66.8334 25.7812V18.0625C66.8334 15.8188 65.0138 14 62.7709 14H18.8959Z" fill="#FF9900"/>
</svg>
