<svg width="81" height="80" viewBox="0 0 81 80" fill="none" xmlns="http://www.w3.org/2000/svg">
<path d="M38.8196 39.6031C39.7146 38.4069 39.9233 36.8262 38.5464 35.8906C37.5527 37.0744 37.534 38.6344 38.8196 39.6031Z" fill="#2051A8"/>
<path d="M39.5225 36.5494C39.7337 35.4744 39.9081 34.3906 39.93 33.2938C38.8674 34.095 38.2112 35.6113 39.5225 36.5494Z" fill="#2051A8"/>
<path d="M41.839 37.6616C41.2652 37.3229 40.5752 37.4072 39.9377 37.3604C39.9159 38.3272 40.3315 39.1841 40.9684 39.8892C41.3203 39.1898 42.0108 38.5098 41.839 37.6616Z" fill="#2051A8"/>
<path d="M36.4867 40.3486C36.9149 41.0824 37.3848 41.7873 37.9161 42.4517C38.7985 41.2655 38.8354 39.8049 37.6829 38.7861C37.2823 39.3049 36.8849 39.8299 36.4867 40.3486Z" fill="#2051A8"/>
<path d="M37.0088 44.9717C37.7138 43.828 37.6888 42.4085 36.692 41.4367C36.0457 42.5885 35.9869 44.0149 37.0088 44.9717Z" fill="#2051A8"/>
<path d="M31.8425 51.757C31.8213 51.8933 31.7837 52.1639 31.765 52.3008C32.7256 52.4901 33.6481 52.8414 34.6137 53.0058C33.9644 52.1264 32.8219 52.0057 31.8425 51.757Z" fill="#2051A8"/>
<path d="M40.0752 42.6386C40.8364 41.328 40.867 39.703 39.5258 38.7617C38.867 40.0723 38.9383 41.6261 40.0752 42.6386Z" fill="#2051A8"/>
<path d="M36.7203 36.1676C35.6921 36.9845 35.9221 38.3988 36.419 39.445C37.649 39.4076 37.8696 36.6707 36.7203 36.1676Z" fill="#2051A8"/>
<path d="M37.6274 47.1557C38.4136 46.3145 38.2305 45.1276 37.9474 44.1207C37.0093 44.7076 36.4661 46.7801 37.6274 47.1557Z" fill="#2051A8"/>
<path d="M38.2176 49.4454C38.8482 48.6223 38.6089 47.6249 38.2889 46.7336C37.3751 47.4698 36.7138 48.9549 38.2176 49.4454Z" fill="#2051A8"/>
<path d="M41.0473 34.2382C41.6722 33.5176 41.7497 32.1907 40.7485 31.7625C40.1866 32.5107 40.0097 33.8 41.0473 34.2382Z" fill="#2051A8"/>
<path d="M40.7589 37.2704C41.5977 36.6022 41.8771 35.5985 41.8808 34.561C39.7895 33.6666 39.5939 36.1085 40.7589 37.2704Z" fill="#2051A8"/>
<path d="M37.764 36.7426C38.3452 35.5801 38.8571 34.3194 38.6146 32.9926C38.1277 34.1419 36.664 35.5557 37.764 36.7426Z" fill="#2051A8"/>
<path d="M47.9226 45.9442C47.5957 46.9755 47.835 48.0511 48.1438 49.0542C49.0963 47.8211 49.5419 46.2893 49.4482 44.7393C49.1319 45.4199 48.8738 46.1249 48.647 46.8393C48.4438 46.4973 48.4757 45.8386 47.9226 45.9442Z" fill="#2051A8"/>
<path d="M37.646 32.5289C38.7609 31.7714 38.8235 30.4289 38.4966 29.2358C37.4316 30.0033 37.5372 31.367 37.646 32.5289Z" fill="#2051A8"/>
<path d="M46.3258 39.4574C44.8445 41.1568 46.4495 43.1049 47.187 44.748C48.3983 42.9643 48.3052 40.638 46.3258 39.4574Z" fill="#2051A8"/>
<path d="M40.8242 41.9305C39.9854 43.0142 39.9698 44.3074 40.8366 45.3754C41.8848 44.3661 41.8986 42.9342 40.8242 41.9305Z" fill="#2051A8"/>
<path d="M44.2264 47.4424C45.0715 46.4011 44.9883 44.9067 43.8502 44.1236C43.4546 45.2462 43.6077 46.4293 44.2264 47.4424Z" fill="#2051A8"/>
<path d="M44.7849 44.8198C46.0243 44.0711 45.6349 42.4986 45.1049 41.4336C44.248 42.3561 43.9492 43.7754 44.7849 44.8198Z" fill="#2051A8"/>
<path d="M47.0483 49.9761C46.4363 49.1993 45.732 48.3886 44.6926 48.2393C44.4701 49.613 46.127 49.6905 47.0483 49.9761Z" fill="#2051A8"/>
<path d="M45.3169 40.346C44.9131 39.824 44.5131 39.2991 44.1075 38.7803C42.9894 39.8147 43.0075 41.2597 43.8819 42.446C44.4175 41.7878 44.8913 41.0828 45.3169 40.346Z" fill="#2051A8"/>
<path d="M46.0032 37.1682C46.0532 37.6501 46.1045 38.1369 46.1582 38.622C45.9432 39.0444 45.7382 39.47 45.5482 39.9051C46.6176 39.3113 47.202 38.2332 47.612 37.1276C47.0751 37.1369 46.5382 37.1526 46.0032 37.1682Z" fill="#2051A8"/>
<path d="M46.6895 33.9181C45.907 33.3156 45.0957 32.7562 44.2914 32.1875C44.3682 33.4649 45.3257 34.8844 46.6895 33.9181Z" fill="#2051A8"/>
<path d="M45.3842 39.4794C45.8742 38.3826 46.1829 36.6988 44.8061 36.1176C44.2161 37.0932 44.0573 39.1876 45.3842 39.4794Z" fill="#2051A8"/>
<path d="M43.7406 33.0355C44.2124 34.5086 44.8624 36.543 46.6506 36.7386C47.9931 36.6799 47.9437 35.1018 47.9931 34.1262C46.5656 36.0306 44.8124 34.3686 43.7406 33.0355Z" fill="#2051A8"/>
<path d="M38.8882 41.707C37.5245 42.4464 37.8813 44.1457 38.6869 45.1682C39.7182 44.3101 39.9388 42.6389 38.8882 41.707Z" fill="#2051A8"/>
<path d="M42.2757 38.7582C40.9301 39.7057 40.9677 41.3307 41.7289 42.6419C42.8595 41.6201 42.937 40.0726 42.2757 38.7582Z" fill="#2051A8"/>
<path d="M44.1613 32.5392C44.26 31.3773 44.3687 30.0105 43.3094 29.2336C42.9738 30.4298 43.0238 31.7905 44.1613 32.5392Z" fill="#2051A8"/>
<path d="M39.8266 44.2855C38.5815 45.3106 38.4478 46.9355 39.2897 48.2618C40.4391 47.2368 40.6778 45.5837 39.8266 44.2855Z" fill="#2051A8"/>
<path d="M22.8021 39.455C24.604 39.7406 26.5178 39.0943 27.3347 37.3643C25.5672 37.0812 23.3216 37.445 22.8021 39.455Z" fill="#2051A8"/>
<path d="M43.244 35.8977C41.8853 36.8389 42.0578 38.4046 42.9722 39.5946C44.304 38.6526 44.2596 37.0658 43.244 35.8977Z" fill="#2051A8"/>
<path d="M44.0364 36.7394C45.1426 35.5526 43.6602 34.1388 43.1658 32.9926C42.9608 34.3194 43.4539 35.5776 44.0364 36.7394Z" fill="#2051A8"/>
<path d="M41.8685 33.2972C41.9135 34.391 42.0791 35.4779 42.2748 36.556C43.5891 35.6179 42.9329 34.0922 41.8685 33.2972Z" fill="#2051A8"/>
<path d="M58.3252 55.6745C58.9571 53.8883 57.949 52.1176 57.4903 50.4214C56.739 51.1452 55.9459 51.8283 55.0965 52.4345C55.819 53.152 56.4003 53.9901 56.8796 54.8889C55.204 53.3452 52.0927 53.5564 51.6752 56.1533C51.0296 54.892 50.6171 53.2052 49.1571 52.6583C49.0046 52.8196 48.7003 53.1396 48.5471 53.3014C48.3047 53.1427 48.069 52.9845 47.8321 52.8289C48.6527 52.6145 49.469 52.4008 50.2803 52.1458C49.239 51.4964 48.1315 52.3601 47.1265 52.6676C46.5796 52.0283 45.9621 51.4564 45.2852 50.962C44.3246 50.0614 43.2283 49.3252 42.1215 48.6201C42.4478 49.5801 42.6827 50.947 43.8771 51.1708C44.9027 51.3789 45.9521 51.7333 46.4127 52.7652C46.0115 52.9983 45.6109 53.2401 45.2203 53.4852C45.9709 53.6376 46.729 53.5196 47.4471 53.2589C49.9378 54.4983 51.2365 56.9339 52.2652 59.3876C52.0821 60.4445 52.6465 61.0964 53.7121 61.2308C53.4827 60.8045 53.2527 60.3858 53.0196 59.9689C53.1234 59.8639 53.2203 59.7545 53.3027 59.6396C53.5303 60.5396 54.0865 61.3001 55.1134 61.1896C55.4503 60.0839 54.0071 59.972 53.3059 59.6327C53.5152 59.3408 53.6234 59.0145 53.4483 58.6358C54.2946 58.422 55.1283 58.1727 55.9615 57.9027C55.0821 56.707 53.7183 57.3958 52.6778 57.9245C50.9815 56.4583 53.4478 53.6745 55.2496 54.672C56.4271 55.1845 56.9365 56.8439 56.1221 57.8752C55.5071 58.4127 54.6478 58.5401 53.9178 58.8633C56.2446 59.9127 57.594 57.4676 58.3252 55.6745Z" fill="#2051A8"/>
<path d="M57.4906 30.5102C61.9237 28.4259 66.4881 23.8059 64.9587 18.4752C62.0593 20.9515 59.6087 24.1883 58.4406 27.839C60.1768 26.4759 61.0193 24.2571 62.9362 23.0859C62.0175 26.1983 58.4481 27.4127 57.4906 30.5102Z" fill="#2051A8"/>
<path d="M54.3907 42.3782C55.2757 43.7763 56.6732 44.8851 57.0126 46.5851C55.7257 45.7494 55.2595 44.0407 53.7914 43.4687C54.7201 45.6594 55.9876 47.9925 58.4301 48.7287C58.2876 46.1556 56.8639 43.3787 54.3907 42.3782Z" fill="#2051A8"/>
<path d="M59.5392 30.0283C57.7474 30.5596 55.9905 31.3952 54.7455 32.8308C56.9599 33.9333 59.0705 32.187 59.5392 30.0283Z" fill="#2051A8"/>
<path d="M54.4143 49.3983C54.9574 47.317 54.4037 45.0614 52.9018 43.5146C53.0937 44.6858 53.3843 45.8446 53.4293 47.0414C52.543 45.8014 52.643 44.1958 51.9655 42.8658C51.6574 45.239 51.9837 48.2402 54.4143 49.3983Z" fill="#2051A8"/>
<path d="M57.2799 49.9241C57.523 49.2409 56.6155 48.8616 56.1118 49.1791C55.103 49.6885 53.6786 50.7665 54.1805 52.0372C55.553 52.3065 56.6868 51.0147 57.2799 49.9241Z" fill="#2051A8"/>
<path d="M59.057 33.4182C57.4477 33.3032 55.1164 32.9645 54.8002 35.1082C56.4046 35.3507 58.4239 35.2045 59.057 33.4182Z" fill="#2051A8"/>
<path d="M59.021 39.4581C58.4922 37.4481 56.2342 37.0718 54.4691 37.3706C55.2991 39.0981 57.2085 39.7406 59.021 39.4581Z" fill="#2051A8"/>
<path d="M55.4047 36.6146C56.7665 37.6489 58.724 37.4658 59.969 36.3383C58.6659 35.2258 56.3553 34.8558 55.4047 36.6146Z" fill="#2051A8"/>
<path d="M57.2961 40.3674C56.288 39.2086 54.7711 38.6868 53.2923 39.2024C53.5036 39.5005 53.7267 39.8049 53.9442 40.1068C53.6086 40.473 53.2767 40.8461 52.9554 41.2249C53.7854 41.893 54.7623 42.378 55.8611 42.3218C55.5436 41.7749 55.2211 41.2405 54.8692 40.7186C55.6874 40.6686 56.498 40.5536 57.2961 40.3674Z" fill="#2051A8"/>
<path d="M56.3424 59.5428C55.565 59.2416 54.7262 59.1734 53.9037 59.1359C54.3106 60.0084 56.2768 61.1235 56.3424 59.5428Z" fill="#2051A8"/>
<path d="M23.4048 27.9658C22.2554 24.2658 19.783 20.9727 16.8404 18.484C16.5204 20.4571 16.3254 22.6502 17.4804 24.4052C19.1554 26.9746 21.4323 29.2858 24.2904 30.5002C23.3586 27.3878 19.7554 26.1883 18.8566 23.0565C20.783 24.294 21.6998 26.4996 23.4048 27.9658Z" fill="#2051A8"/>
<path d="M52.0032 60.1571C51.9745 60.024 51.922 59.7628 51.8969 59.629C50.2963 59.3684 48.6813 59.1853 47.1276 58.7034C47.5132 58.0915 47.9076 57.4822 48.2994 56.8734C48.5701 56.9109 48.8389 56.9478 49.1132 56.9884C49.1001 56.3771 49.0888 55.7646 49.0794 55.1553C48.6476 55.3015 48.2176 55.4509 47.7925 55.6028C46.5525 58.679 44.182 61.1359 42.3213 63.8478C41.3457 62.2353 40.512 60.5422 39.5182 58.9422C38.5988 60.2159 37.7513 61.539 36.9094 62.8659C36.6945 62.9066 36.2657 62.984 36.0513 63.0246C36.0482 63.6122 36.0482 64.199 36.0482 64.789C36.5982 64.5966 37.1451 64.4066 37.6988 64.2171C37.3007 62.7071 38.7982 61.654 39.4657 60.4734C40.432 62.074 41.2838 63.739 42.2651 65.329C43.7851 63.3315 45.2169 61.269 46.6669 59.2184C48.3988 59.7346 50.182 60.1853 52.0032 60.1571Z" fill="#2051A8"/>
<path d="M44.6365 28.4006C44.8453 28.4256 45.2578 28.4782 45.4615 28.5031C45.1709 28.8325 44.8815 29.165 44.5922 29.4975C44.7078 30.0069 44.8209 30.5131 44.9434 31.0256C45.3822 30.05 45.8165 29.0682 46.2953 28.1113C46.1571 28.1331 45.8822 28.1762 45.7446 28.195C46.084 27.7444 46.4222 27.2913 46.7458 26.825C45.8922 27.1238 45.1865 27.6894 44.6365 28.4006Z" fill="#2051A8"/>
<path d="M26.0175 42.0302C24.7562 42.8715 23.6938 43.9996 22.3087 44.6459C23.2213 42.9708 25.1544 42.3246 26.2694 40.8339C25.4487 40.9771 24.6538 41.2259 23.8869 41.5396C24.1013 41.2039 24.3156 40.8715 24.5262 40.5359C23.1782 41.3777 21.9131 42.4059 20.3669 42.869C21.1462 41.5827 22.6 41.0671 23.7931 40.2721C20.9131 40.9371 17.6418 42.3783 16.9769 45.5939C19.8475 45.6065 21.6125 43.2046 23.7244 41.689C22.1806 43.4196 20.2575 45.0939 20.1144 47.5952C23.0456 47.1283 24.5206 44.2577 26.0175 42.0302Z" fill="#2051A8"/>
<path d="M39.5311 65.3487C40.1361 64.5094 40.6523 63.5682 40.5898 62.4969C40.208 62.8756 39.8411 63.2738 39.4774 63.6713C39.0736 63.2956 38.6761 62.9162 38.2417 62.5838C37.6798 63.6213 39.0654 64.5069 39.5311 65.3487Z" fill="#2051A8"/>
<path d="M45.729 64.8449C45.7359 64.2361 45.7397 63.6299 45.7422 63.0212C45.2828 62.9061 44.8253 62.7912 44.3697 62.6761C43.8415 63.9074 44.5709 64.5686 45.729 64.8449Z" fill="#2051A8"/>
<path d="M40.9323 54.5869C39.9016 55.9313 38.7204 57.1526 37.5804 58.402C39.6985 57.3544 42.138 57.3488 44.2536 58.4113C43.1111 57.1682 41.9016 55.9751 40.9323 54.5869Z" fill="#2051A8"/>
<path d="M27.7729 52.1852C27.8036 50.4396 26.1792 48.7341 24.3773 49.1934C24.6967 50.8303 26.0923 52.1072 27.7729 52.1852Z" fill="#2051A8"/>
<path d="M29.8424 42.7883C29.1492 44.1427 29.1987 45.7577 28.3474 47.0446C28.3818 45.8515 28.6649 44.6927 28.873 43.5246C27.3355 45.0533 26.8787 47.3333 27.4005 49.3995C29.7799 48.1751 30.1249 45.1708 29.8424 42.7883Z" fill="#2051A8"/>
<path d="M23.3676 48.7245C25.8156 48.0007 27.0919 45.6676 27.9907 43.4619C26.5456 44.0739 26.0638 45.7514 24.7813 46.5932C25.12 44.9714 26.415 43.8719 27.2569 42.5239C24.8276 43.4588 23.535 46.2488 23.3676 48.7245Z" fill="#2051A8"/>
<path d="M31.1191 41.1236C29.5903 41.9218 30.3765 44.1555 31.3928 45.1311C31.3116 45.8767 31.1847 46.6162 30.9703 47.3374C30.8028 46.2811 30.7284 45.203 30.3653 44.1899C30.0234 45.948 29.8891 47.9274 30.9797 49.468C31.5853 47.9086 31.9522 46.2186 31.6596 44.5474C31.7591 43.4193 32.4884 41.7293 31.1191 41.1236Z" fill="#2051A8"/>
<path d="M68.309 22.8863C65.9765 24.0294 64.1271 25.8814 62.2809 27.6645C61.319 28.6438 59.8309 29.3857 59.7409 30.9232C59.5015 31.265 59.2565 31.6038 59.0209 31.9482C62.074 31.3145 64.9415 29.7707 67.1102 27.5276C68.2871 26.2914 68.3646 24.4957 68.309 22.8863Z" fill="#2051A8"/>
<path d="M28.6149 41.4337C28.4224 40.9549 28.1993 40.4924 27.9474 40.0449C28.0874 39.7093 28.2274 39.3705 28.3699 39.0349C27.0124 38.8549 25.5086 39.0937 24.6761 40.2993C25.3661 40.6874 26.1586 40.7118 26.9286 40.7093C26.5899 41.2343 26.2668 41.7687 25.9593 42.3156C26.6268 42.2099 27.2924 42.0918 27.9537 41.9549C27.7949 42.4705 27.6399 42.983 27.4999 43.5056C29.0343 43.3005 30.4199 42.3468 30.5505 40.6968C29.8955 40.9112 29.2486 41.1599 28.6149 41.4337Z" fill="#2051A8"/>
<path d="M26.4024 36.6153C25.4455 34.8658 23.1312 35.2171 21.8324 36.3453C23.0849 37.4665 25.0355 37.6465 26.4024 36.6153Z" fill="#2051A8"/>
<path d="M27.0055 35.0983C26.6761 33.0665 24.4611 33.2033 22.8861 33.4396C23.1967 35.3065 25.5461 35.2914 27.0055 35.0983Z" fill="#2051A8"/>
<path d="M22.265 30.0317C22.7213 32.1754 24.9425 34.0735 27.0925 32.6817C25.6938 31.4604 24.0538 30.5317 22.265 30.0317Z" fill="#2051A8"/>
<path d="M50.8335 32.6817C49.3385 34.1942 51.9891 36.0461 51.1973 37.6805C49.8485 38.9105 47.3973 37.2329 46.6947 39.3954C47.016 39.5754 47.3341 39.7592 47.6579 39.9423C47.7516 40.3961 47.8448 40.8498 47.941 41.3061C48.4135 41.008 48.8822 40.7061 49.3516 40.3985C51.0235 41.2811 49.1291 43.4554 50.3804 44.7942C51.751 44.4892 51.391 42.6523 51.4816 41.5761C51.9966 42.7285 53.1448 43.4292 54.4685 43.5073C53.9973 42.038 52.801 40.8854 51.231 40.7054C51.2741 41.0042 51.3553 41.2817 51.4666 41.5385C51.2704 41.4336 50.8941 41.2405 50.7035 41.1405C50.8029 40.7673 50.9022 40.398 51.0035 40.0311C51.6153 40.3573 52.2279 40.7023 52.8897 40.9385C53.141 40.2517 53.0885 39.5185 53.0516 38.8042C53.6704 38.8073 54.2879 38.8042 54.9129 38.7949C54.656 38.2511 54.3953 37.7136 54.1266 37.1761C54.7235 36.7567 55.3116 36.3249 55.8916 35.8836C55.391 35.5885 54.8916 35.3023 54.3879 35.023C54.7622 34.3861 55.1216 33.7398 55.4666 33.0873C54.7273 33.0811 53.9941 33.0905 53.2616 33.1154C54.4853 31.8792 55.0847 30.1923 55.0285 28.4617C53.8991 30.1249 52.3829 31.4298 50.8335 32.6817Z" fill="#2051A8"/>
<path d="M40.0042 57.9706C40.5167 59.1231 41.2098 58.9806 41.8311 57.9862C41.2192 57.9706 40.6129 57.9637 40.0042 57.9706Z" fill="#2051A8"/>
<path d="M50.8719 47.3017C50.6082 46.4161 50.3714 45.5212 50.0582 44.6549C49.9214 46.2924 50.2419 47.9237 50.8063 49.4581C51.9351 47.9355 51.7588 45.9474 51.4245 44.1949C51.0707 45.1955 50.9839 46.2549 50.8719 47.3017Z" fill="#2051A8"/>
<path d="M54.6517 32.1624C56.8573 31.1562 58.6942 28.9318 58.2529 26.375C55.6673 27.0962 55.1867 29.9293 54.6517 32.1624Z" fill="#2051A8"/>
<path d="M42.566 51.126C41.6098 53.2353 43.3778 55.6866 45.5641 55.9385C44.8022 54.5865 43.236 53.8629 42.7554 52.3378C43.7466 53.1641 44.6229 54.1834 45.881 54.6178C45.0235 53.2385 43.6441 52.3153 42.566 51.126Z" fill="#2051A8"/>
<path d="M42.3538 60.5921C42.7844 61.0583 43.2294 61.5152 43.6932 61.9533C43.7488 60.7477 42.985 59.8133 42.2575 58.9527C41.6426 59.8196 41.1363 60.7946 41.2419 61.8977C41.6201 61.4715 41.9901 61.0371 42.3538 60.5921Z" fill="#2051A8"/>
<path d="M40.9448 51.9091C40.5348 51.0885 40.0742 50.2872 39.4967 49.576C39.388 50.8716 39.898 52.0772 40.1392 53.3229C39.2973 55.4447 37.4273 56.8766 35.7592 58.3278C35.8498 58.4029 36.0329 58.5547 36.126 58.6291C37.8316 57.8278 39.0248 56.296 39.9967 54.7298C40.2736 54.1647 41.0911 53.7447 41.5285 54.391C42.7773 55.9816 43.9048 58.396 46.198 58.4985C44.5085 56.9572 42.5192 55.5254 41.6554 53.3198C41.8923 52.0703 42.4173 50.8716 42.3011 49.5729C41.6836 50.2447 41.2742 51.0641 40.9448 51.9091Z" fill="#2051A8"/>
<path d="M49.4974 40.6566C48.0836 42.0204 47.798 44.0491 47.4086 45.8791C49.628 45.1985 49.9455 42.6048 49.4974 40.6566Z" fill="#2051A8"/>
<path d="M29.1927 20.9635C29.3703 22.4054 29.6652 23.831 29.9978 25.2441C30.6403 23.9585 30.7371 21.361 29.1927 20.9635Z" fill="#2051A8"/>
<path d="M34.8436 21.4449C35.6324 21.0198 35.3124 20.2211 34.8374 19.6805C34.3399 20.2111 34.0699 21.0192 34.8436 21.4449Z" fill="#2051A8"/>
<path d="M33.1547 21.7313C33.4434 22.4544 33.5771 23.5887 34.5647 23.6544C34.5834 22.7125 34.0803 21.9706 33.1547 21.7313Z" fill="#2051A8"/>
<path d="M35.1394 23.5792C36.0687 23.7005 36.2299 22.3892 36.5343 21.7617C35.6487 21.9792 35.0799 22.653 35.1394 23.5792Z" fill="#2051A8"/>
<path d="M31.8417 23.7561C32.3111 22.6192 32.7586 21.4443 32.7586 20.1961C31.8549 21.0723 30.5343 22.6505 31.8417 23.7561Z" fill="#2051A8"/>
<path d="M30.7427 25.1173C30.6896 25.6886 30.8421 26.2479 30.9577 26.8042C31.8996 26.711 32.8464 26.6735 33.7908 26.621C33.3095 27.2642 32.9795 28.0004 32.827 28.7898C33.8683 28.1498 35.0733 26.851 36.2258 28.0254C36.0395 28.0504 35.6695 28.0998 35.4833 28.1279C35.9958 29.091 36.4401 30.0879 36.9558 31.051C37.2233 30.113 37.1145 29.1654 36.4245 28.441C36.6045 28.4317 36.9652 28.4104 37.1483 28.4004C36.347 27.0923 34.7152 26.9342 33.6096 26.0023C32.7714 25.4617 31.7839 24.303 30.7427 25.1173Z" fill="#2051A8"/>
<path d="M29.9818 21.1506C30.87 20.9794 31.6875 20.5506 32.2187 19.7994C31.2706 19.855 30.4013 20.2594 29.9818 21.1506Z" fill="#2051A8"/>
<path d="M34.5827 21.7866C33.9427 23.4673 36.3415 21.6873 34.5827 21.7866V21.7866Z" fill="#2051A8"/>
<path d="M32.9959 24.5394C32.5084 25.4557 34.0334 24.5982 32.9959 24.5394V24.5394Z" fill="#2051A8"/>
<path d="M41.6446 17.4128C41.3158 17.0896 40.982 16.7696 40.647 16.4528C39.7739 17.3752 40.7614 18.4128 41.6446 17.4128Z" fill="#2051A8"/>
<path d="M42.1348 20.162C42.0392 19.6833 41.9392 19.2051 41.8423 18.7295C41.5748 19.5933 41.3917 20.4789 41.2611 21.3733C41.4223 21.2089 41.5905 21.0469 41.758 20.8889C42.7836 22.9489 43.3836 19.9538 43.5817 18.9313C43.168 18.8907 42.7592 18.8538 42.3511 18.8164C42.2748 19.2638 42.2023 19.7113 42.1348 20.162Z" fill="#2051A8"/>
<path d="M41.557 22.5817C42.0414 23.7004 43.1657 24.1629 44.3182 24.256C43.7895 23.1779 42.682 22.7185 41.557 22.5817Z" fill="#2051A8"/>
<path d="M35.5117 23.8966C35.2474 23.6046 34.6911 23.614 34.4393 23.909C34.3924 24.4271 35.5455 24.3966 35.5117 23.8966Z" fill="#2051A8"/>
<path d="M40.7313 18.0281C39.9676 18.7925 40.5488 19.7925 40.8157 20.6313C41.3001 19.8262 42.0581 18.4531 40.7313 18.0281Z" fill="#2051A8"/>
<path d="M33.3802 24.3742C33.6571 26.1266 35.5083 27.1517 37.1358 26.431C38.6671 25.6666 39.2202 27.8666 40.2827 28.5466C39.9534 29.4973 40.2865 30.4166 40.8234 31.2154C41.2121 30.6592 41.6396 30.1066 41.824 29.4417C41.1002 28.4535 40.2015 27.6054 39.3258 26.7542C39.5121 26.6079 39.6983 26.4623 39.8878 26.3192C39.4809 26.1079 39.0771 25.8998 38.6734 25.6948C38.789 25.2386 38.9002 24.7786 39.0146 24.3217C37.1427 24.5266 35.2571 24.5448 33.3802 24.3742Z" fill="#2051A8"/>
<path d="M37.5033 24.2598C38.6433 24.1572 39.7489 23.691 40.2433 22.5885C39.1183 22.7223 38.0002 23.1629 37.5033 24.2598Z" fill="#2051A8"/>
<path d="M39.7713 20.1031C39.535 19.3512 39.1219 18.6524 38.2181 18.7487C38.4356 19.895 38.535 21.3306 39.7525 21.8831C39.7931 21.3893 39.8306 20.895 39.8675 20.4043C40.0725 20.7737 40.2806 21.1437 40.5013 21.5099C40.4613 20.5468 40.2713 19.5993 39.8956 18.7106C39.8456 19.1743 39.8056 19.6368 39.7713 20.1031Z" fill="#2051A8"/>
<path d="M61.6921 47.6091C61.2233 44.5022 58.6621 41.3615 55.5189 40.8334C56.6508 42.3128 58.5733 42.9709 59.492 44.6428C58.1089 43.9934 57.0408 42.8815 55.792 42.0303C57.2802 44.2666 58.7727 47.1215 61.6921 47.6091Z" fill="#2051A8"/>
<path d="M58.0162 40.2687C59.2093 41.07 60.6568 41.6013 61.4518 42.8782C60.1993 42.4619 59.1068 41.7163 57.9418 41.1169C59.7212 43.2075 61.8899 45.4725 64.8224 45.6C64.1681 42.3782 60.8893 40.9456 58.0162 40.2687Z" fill="#2051A8"/>
<path d="M26.7018 60.4463C26.7112 60.6113 26.7293 60.9344 26.7362 61.0987C27.8824 61.2531 29.4968 61.09 29.5324 59.9156C31.4206 60.415 33.3224 59.7069 35.1337 59.2069C35.8237 60.1607 36.345 61.3351 37.4355 61.9063C37.2274 59.7069 35.0062 58.4269 34.3255 56.3825C34.1643 55.5869 33.3837 55.3444 32.735 55.0625C32.713 55.6987 32.7006 56.3394 32.6924 56.9794C32.9593 56.9419 33.2293 56.9075 33.503 56.8738C33.8943 57.4825 34.2855 58.0887 34.6774 58.7007C32.9918 59.2238 31.2106 59.3213 29.5343 59.8731C29.5337 59.6638 29.4906 59.4269 29.3799 59.1513C28.8518 59.1113 28.3268 59.0769 27.7993 59.0487C28.153 59.335 28.5137 59.6144 28.8774 59.8907C28.6068 60.195 28.3362 60.5 28.0699 60.8044C28.153 60.4938 28.2374 60.1863 28.3274 59.8787C27.445 59.2851 26.4137 59.13 25.3793 59.3194C25.5337 60.0082 25.993 60.4244 26.7018 60.4463Z" fill="#2051A8"/>
<path d="M67.505 42.7383C65.9768 39.737 62.3793 38.8732 59.285 38.7739C60.5875 39.4039 61.9843 39.8419 63.2119 40.6257C61.5031 40.5945 59.9687 39.7214 58.2719 39.6195C61.1519 41.0888 64.1575 42.8719 67.505 42.7383Z" fill="#2051A8"/>
<path d="M58.1469 33.1824C60.4487 33.3655 62.4431 31.818 64.7487 31.9148C62.8849 33.3655 59.9424 32.7192 58.5231 34.7324C62.6956 33.5955 67.9444 33.5704 70.6725 29.6904C66.3049 29.7061 61.9213 31.0361 58.1469 33.1824Z" fill="#2051A8"/>
<path d="M28.705 24.1291C29.2425 24.3123 29.7206 23.3772 29.0562 23.2467C28.535 23.0879 28.0594 23.9891 28.705 24.1291Z" fill="#2051A8"/>
<path d="M59.8129 36.9475C61.1573 37.2238 62.5311 37.3419 63.8586 37.7119C61.8892 38.2026 59.9498 37.2269 57.9711 37.5007C58.6448 38.0444 59.4436 38.4263 60.3136 38.5163C63.3211 38.9451 66.4211 39.4294 69.4217 38.6994C66.6355 36.8013 63.0611 36.6588 59.8129 36.9475Z" fill="#2051A8"/>
<path d="M58.8773 35.3593C60.7754 35.288 62.6548 34.723 64.5604 35.058C63.0148 35.7042 61.278 35.5117 59.7292 36.1205C63.388 36.8224 67.4648 36.3411 70.4942 34.0268C66.626 33.3711 62.4711 33.7599 58.8773 35.3593Z" fill="#2051A8"/>
<path d="M28.1019 58.7404C28.6613 58.886 29.2232 59.0417 29.7857 59.2005C30.4851 56.718 31.9851 54.4685 34.3595 53.3192C33.9551 53.2698 33.5513 53.2229 33.1501 53.1767C33.017 53.0273 32.7463 52.7323 32.6101 52.5861C31.2651 53.3005 30.7463 54.8323 30.1251 56.1217C29.6126 53.5867 26.6019 53.338 24.9151 54.8917C25.4063 54.0249 25.9557 53.1923 26.5832 52.4185C25.797 51.7849 25.0457 51.1105 24.3157 50.4149C23.8595 52.0554 22.9232 53.7361 23.4088 55.4754C24.0913 57.4229 25.6732 60.0767 28.1019 58.7404Z" fill="#2051A8"/>
<path d="M14.8331 27.6863C17.0263 29.8238 19.8444 31.4394 22.9044 31.8832C20.8975 30.0532 17.9738 29.3545 16.4551 26.9532C18.6419 27.795 20.18 29.6619 22.2331 30.7338C21.5344 29.075 19.91 28.1645 18.7231 26.9063C17.1756 25.325 15.4763 23.8619 13.4569 22.9176C13.4482 24.5826 13.5469 26.4563 14.8331 27.6863Z" fill="#2051A8"/>
<path d="M23.6037 26.2852C23.0599 28.8671 24.9174 31.1571 27.1574 32.1664C26.6574 29.8827 26.0731 27.1984 23.6037 26.2852Z" fill="#2051A8"/>
<path d="M43.4867 29.1401C44.2205 28.4595 44.8536 27.6708 45.3192 26.782C44.0792 26.9189 43.6854 28.0964 43.4867 29.1401Z" fill="#2051A8"/>
<path d="M23.2746 34.7261C21.8552 32.713 18.9096 33.3592 17.0427 31.9179C19.3502 31.8061 21.349 33.3748 23.654 33.173C19.8734 31.0542 15.4958 29.6998 11.1302 29.6904C13.8609 33.561 19.1021 33.5923 23.2746 34.7261Z" fill="#2051A8"/>
<path d="M19.3017 38.811C20.858 38.5904 22.5948 38.6123 23.8336 37.4966C21.8523 37.2292 19.9104 38.2048 17.9398 37.711C19.2636 37.3442 20.6367 37.2204 21.9823 36.9466C18.7417 36.6548 15.1848 36.8098 12.3948 38.6798C14.6573 39.271 17.0085 39.0998 19.3017 38.811Z" fill="#2051A8"/>
<path d="M22.1871 35.9965C20.4447 35.6233 18.6552 35.5271 16.9096 35.1702C16.9184 35.0959 16.9371 34.9402 16.9471 34.8627C18.9603 34.8033 20.9327 35.2327 22.9334 35.3721C19.3334 33.7471 15.164 33.3684 11.2865 34.0333C14.3552 36.289 18.5334 36.9721 22.1871 35.9965Z" fill="#2051A8"/>
<path d="M23.529 39.6226C21.8302 39.725 20.289 40.5982 18.5771 40.6257C19.8165 39.8463 21.224 39.417 22.5315 38.7738C19.4221 38.8482 15.8834 39.7714 14.2709 42.6945C17.6334 42.9245 20.6371 41.0701 23.529 39.6226Z" fill="#2051A8"/>
<path d="M26.7603 28.69C26.7784 30.3113 27.3971 31.8306 28.3627 33.1138C27.6827 33.0919 27.0015 33.0763 26.3215 33.0732C26.6696 33.735 27.039 34.3875 27.4209 35.0338C26.9271 35.3006 26.439 35.5713 25.9515 35.8506C27.194 36.5375 27.9896 37.5038 26.9484 38.805C27.564 38.805 28.1821 38.805 28.8003 38.805C28.6947 39.4944 28.5953 40.1813 28.5052 40.8738C29.2784 40.7619 30.0115 40.4763 30.7015 40.1094C30.8634 40.3706 31.0315 40.6344 31.2015 40.8988C31.6678 40.8026 32.1271 40.6719 32.5871 40.5413C33.0184 40.7957 33.4509 41.0475 33.8852 41.3026C33.9659 40.8457 34.0503 40.395 34.134 39.9413C34.4571 39.7582 34.7803 39.575 35.1065 39.3913C34.389 37.2475 31.9496 38.9006 30.5952 37.6794C30.0584 36.4519 31.229 35.2563 31.4034 34.035C31.6921 33.0938 30.7327 32.4906 30.1265 31.9719C28.854 31.0419 27.8134 29.8519 26.7603 28.69Z" fill="#2051A8"/>
<path d="M36.2726 39.9015C36.0558 39.5197 35.8314 39.1434 35.6014 38.774C35.6695 38.2366 35.7382 37.7022 35.8095 37.1646C35.2689 37.149 34.7282 37.1366 34.1908 37.1302C34.6108 38.2302 35.142 39.3671 36.2726 39.9015Z" fill="#2051A8"/>
<path d="M32.3459 44.7318C32.2684 46.2818 32.7122 47.8137 33.6478 49.0562C34.0328 47.95 34.2841 46.6981 33.551 45.6756C33.4735 45.9862 33.3153 46.6105 33.2347 46.9212C32.961 46.1831 32.6784 45.4462 32.3459 44.7318Z" fill="#2051A8"/>
<path d="M35.4383 51.2353C35.0495 51.3009 34.6676 51.3691 34.2826 51.4403C34.6514 51.0334 35.0089 50.6172 35.3632 50.1978C34.1826 50.2941 33.0083 50.6172 32.1351 51.4591C32.617 51.5584 33.1014 51.6578 33.5863 51.7603C34.357 52.5397 34.9689 52.0209 35.4383 51.2353Z" fill="#2051A8"/>
<path d="M33.6361 41.7657C33.8599 42.7914 34.1855 43.7914 34.6049 44.7545C35.2105 43.437 36.1587 42.1419 36.1549 40.6476C36.0461 39.8988 35.3099 39.8707 34.713 39.8707C34.393 40.5232 34.0455 41.1663 33.6361 41.7657Z" fill="#2051A8"/>
<path d="M42.1907 44.3229C40.9207 45.4291 41.5107 47.1378 42.3776 48.2841C43.3744 47.0541 43.21 45.4847 42.1907 44.3229Z" fill="#2051A8"/>
<path d="M40.7911 46.4189C39.8273 47.7827 39.8499 49.777 40.9955 51.0296C41.7417 49.6501 42.2199 47.5252 40.7911 46.4189Z" fill="#2051A8"/>
<path d="M36.5935 53.4413C36.1959 53.2082 35.7979 52.9782 35.4003 52.7519C35.8253 51.7482 36.8479 51.4219 37.8328 51.2319C39.0947 51.0207 39.371 49.5825 39.691 48.5663C38.8179 49.1538 37.9635 49.7625 37.0841 50.3376C37.1341 50.16 37.2335 49.8088 37.2828 49.6319C37.1679 49.1282 37.0528 48.625 36.9403 48.125C36.1203 48.6032 35.3716 49.1938 34.7347 49.8956C35.291 49.8088 35.8466 49.7094 36.4066 49.6107C36.0397 50.0544 35.6766 50.4994 35.3191 50.9532C35.8628 50.8563 36.4066 50.7576 36.9535 50.6638C36.1272 51.3188 34.8872 51.8538 34.7759 53.0307C34.9653 53.9413 35.9785 53.6213 36.5935 53.4413Z" fill="#2051A8"/>
<path d="M36.2362 55.926C38.4262 55.6991 40.2062 53.2229 39.2275 51.126C38.1555 52.316 36.7855 53.2447 35.9281 54.6178C37.1924 54.186 38.0655 53.1447 39.0593 52.316C38.5624 53.8385 37.0187 54.5872 36.2362 55.926Z" fill="#2051A8"/>
<path d="M34.4746 45.8599C33.9677 44.0579 33.7134 42.0355 32.309 40.6655C31.849 42.6261 32.1846 45.2792 34.4746 45.8599Z" fill="#2051A8"/>
<path d="M42.9701 33.4487C43.2132 32.0693 42.9319 30.6649 42.0994 29.5344C41.1932 30.9262 41.4319 32.6475 42.9701 33.4487Z" fill="#2051A8"/>
<path d="M38.8295 33.4525C40.3857 32.6412 40.6657 30.8362 39.5657 29.5131C38.9351 30.7281 38.5807 32.0825 38.8295 33.4525Z" fill="#2051A8"/>
<path d="M37.4994 32.1939C36.6763 32.7839 35.8594 33.3777 35.0238 33.9489C36.4532 34.757 37.4219 33.5833 37.4994 32.1939Z" fill="#2051A8"/>
<path d="M42.5705 29.5661C43.2199 28.6466 43.7037 27.6154 43.9743 26.5186C42.9118 27.1773 42.4037 28.333 42.5705 29.5661Z" fill="#2051A8"/>
<path d="M33.8217 34.1167C33.831 35.1016 33.831 36.6516 35.1517 36.7385C36.9379 36.5335 37.5866 34.5172 38.0591 33.0479C36.981 34.3623 35.2291 36.0429 33.8217 34.1167Z" fill="#2051A8"/>
<path d="M37.8265 26.5209C38.1121 27.6146 38.5997 28.6453 39.2403 29.5778C39.3985 28.3415 38.8921 27.1797 37.8265 26.5209Z" fill="#2051A8"/>
<path d="M36.4496 26.8039C36.8909 27.6557 37.5402 28.3795 38.3202 28.9382C38.1333 27.9039 37.6089 26.9251 36.4496 26.8039Z" fill="#2051A8"/>
<path d="M51.7867 25.4957C52.0604 23.9833 52.3485 22.4733 52.6104 20.9601C50.9541 21.3708 51.2754 24.1164 51.7867 25.4957Z" fill="#2051A8"/>
<path d="M47.2801 23.6067C48.1525 23.4111 48.4388 22.5136 48.6863 21.7705C47.755 21.9105 47.2488 22.7031 47.2801 23.6067Z" fill="#2051A8"/>
<path d="M48.9618 28.808C48.855 28.0037 48.5225 27.2737 48.0106 26.6518C49.0482 26.6768 50.0918 26.6893 51.1331 26.6987C51.0487 25.9655 51.155 24.7349 50.0987 24.7506C48.8125 25.3468 47.7562 26.3193 46.7094 27.2512C47.4575 27.7706 48.2 28.3018 48.9618 28.808Z" fill="#2051A8"/>
<path d="M46.7021 21.7898C46.0614 23.4698 48.4596 21.6873 46.7021 21.7898V21.7898Z" fill="#2051A8"/>
<path d="M48.5156 24.5085C48.2625 25.7666 49.7369 24.1854 48.5156 24.5085V24.5085Z" fill="#2051A8"/>
<path d="M47.6481 23.921C47.2755 23.6572 46.6481 23.6478 46.2699 23.8928C46.3505 24.3928 47.5674 24.4303 47.6481 23.921Z" fill="#2051A8"/>
<path d="M43.1003 25.6921C42.7152 25.9096 42.3309 26.127 41.9503 26.3477C42.1152 26.4721 42.2865 26.6021 42.4577 26.7296C41.834 27.2045 41.364 27.8358 41.1683 28.6027C42.6965 28.0808 43.3683 25.0545 45.194 26.7358C46.7221 26.6921 48.124 26.0183 48.4152 24.387C46.5534 24.5421 44.684 24.5052 42.8271 24.3345C42.9146 24.7845 43.0046 25.2414 43.1003 25.6921Z" fill="#2051A8"/>
<path d="M46.7525 20.1218C46.1206 20.5723 46.4512 21.063 46.9563 21.4392C47.8988 21.1905 47.465 19.5561 46.7525 20.1218Z" fill="#2051A8"/>
<path d="M45.2737 21.7336C45.495 22.4855 45.7581 23.3899 46.6381 23.6005C46.675 22.703 46.1587 21.948 45.2737 21.7336Z" fill="#2051A8"/>
<path d="M49.9639 23.8807C51.2152 22.6256 49.9077 21.0907 49.0802 20.0187C48.979 21.3731 49.5152 22.6351 49.9639 23.8807Z" fill="#2051A8"/>
<path d="M46.5405 51.0641C45.9874 50.1192 45.0805 49.4892 44.0443 49.181C44.6518 50.0635 45.4505 50.8435 46.5405 51.0641Z" fill="#2051A8"/>
<path d="M42.7384 41.8931C42.0577 42.735 41.9021 44.2913 42.9489 44.9094C44.4384 44.6182 43.8527 41.4369 42.7384 41.8931Z" fill="#2051A8"/>
<path d="M48.2154 51.776C48.7029 51.6579 49.1879 51.546 49.6791 51.4316C48.7685 50.6729 47.6348 50.3167 46.476 50.1823C46.8079 50.6079 47.1523 51.0272 47.5048 51.4372C47.1235 51.3623 46.7404 51.2916 46.3617 51.226C46.8167 52.0123 47.4354 52.5185 48.2154 51.776Z" fill="#2051A8"/>
<path d="M43.525 46.743C43.1612 47.6155 43.0393 48.6036 43.5899 49.433C44.9993 48.8305 44.4462 47.5317 43.525 46.743Z" fill="#2051A8"/>
<path d="M52.5581 23.3745C52.3006 24.6138 53.8006 23.1194 52.5581 23.3745V23.3745Z" fill="#2051A8"/>
<path d="M49.6029 19.7979C50.1273 20.5472 50.9291 20.9847 51.8142 21.1585C51.4085 20.2672 50.5385 19.8698 49.6029 19.7979Z" fill="#2051A8"/>
<path d="M40.5076 22.5759C40.5701 22.7222 40.697 23.011 40.7588 23.1572C41.3157 22.7347 41.8807 22.3247 42.4388 21.9022C41.3951 21.7316 40.337 21.7441 39.3051 21.971C39.6988 22.1747 40.1039 22.3766 40.5076 22.5759Z" fill="#2051A8"/>
</svg>
