<svg width="81" height="80" viewBox="0 0 81 80" fill="none" xmlns="http://www.w3.org/2000/svg">
<path d="M16.8932 25.091L21.2569 14.5455L23.8024 13.091L27.0751 12.3637L31.4388 13.091L42.7115 16.7273L53.6205 21.8183L66.7115 32.7273L71.0751 39.2728L68.5296 45.4546L61.2569 52.3637L42.7115 63.2728L28.166 66.9091L22.3478 65.8183L18.7115 59.2728L15.8024 44.7273L16.8932 25.091Z" fill="url(#paint0_linear_2_775)"/>
<path d="M52.1351 19.9756C44.8482 15.9591 33.9019 11.6363 27.0885 11.6363C25.301 11.6363 23.8612 11.9308 22.81 12.509C20.2651 13.9125 18.1371 17.6975 16.6524 23.459C15.4206 28.2481 14.7125 34.1402 14.7125 39.6225C14.7125 50.5331 17.2467 63.671 22.81 66.7389C23.9481 67.3661 25.4708 67.6849 27.3366 67.6849C34.376 67.6849 45.0941 63.1521 52.1351 59.2708C59.8903 54.9963 71.4279 46.2378 71.4398 39.6225C71.4291 33.4061 60.1463 24.3917 52.1351 19.9756ZM51.2196 57.8997C40.0429 64.06 28.1732 67.6012 23.8144 65.2021C19.0082 62.5509 16.6013 49.8827 16.6 39.7917C16.6013 29.7789 19.1563 16.9517 23.8144 14.3829C27.9031 12.1283 40.314 15.6723 51.2196 21.683C60.6708 26.8938 69.5433 35.0686 69.5513 39.7917C69.5424 44.7429 60.8201 52.6081 51.2196 57.8997Z" fill="#A3B7AD"/>
<path d="M56.7037 36.5715C56.243 36.5715 55.6797 36.6868 55.1523 36.887C54.9097 36.9788 54.5525 37.1812 54.3181 37.3619L54.2542 37.4112C54.2493 37.4124 54.2329 37.4213 54.2185 37.4213C54.2098 37.4213 54.2013 37.4198 54.1933 37.4166C54.1853 37.4134 54.178 37.4086 54.1718 37.4026C54.1657 37.3966 54.1607 37.3894 54.1573 37.3815C54.154 37.3736 54.1521 37.365 54.1521 37.3565V36.7638C54.1518 36.7509 54.1465 36.7385 54.1373 36.7294C54.128 36.7203 54.1155 36.7152 54.1025 36.7152H52.1865C52.1569 36.7149 52.1276 36.7203 52.1001 36.7313C52.0727 36.7423 52.0477 36.7586 52.0265 36.7793C52.0054 36.8 51.9885 36.8246 51.9769 36.8518C51.9653 36.879 51.9593 36.9082 51.9589 36.9378V44.4872C51.9589 44.5123 51.9816 44.534 52.0085 44.534H54.1013C54.1276 44.534 54.1509 44.5123 54.1509 44.4872V39.1572C54.1509 39.1181 54.1821 39.07 54.2077 39.0541C54.305 38.9948 54.5846 38.8236 54.9379 38.619C55.2927 38.4162 55.6524 38.3065 55.9482 38.3065C56.7786 38.3065 57.1334 38.7511 57.1334 39.7947V44.4875C57.1334 44.5126 57.1542 44.5343 57.1805 44.5343H59.2691C59.2972 44.5343 59.3168 44.515 59.3168 44.4875V39.4119C59.3168 37.553 58.4136 36.5715 56.7037 36.5715ZM62.7353 34.0216C62.3584 33.6061 61.1933 32.8731 61.0612 32.8731C61.0055 32.8731 60.9948 32.8859 60.9948 32.9272L60.9973 44.4872C60.9973 44.5123 61.0174 44.534 61.0432 44.534H63.1283C63.1408 44.5337 63.1527 44.5288 63.1616 44.5201C63.1705 44.5114 63.1757 44.4997 63.1763 44.4872L63.1757 35.1722C63.1761 34.7475 63.0192 34.3376 62.7353 34.0216ZM33.7942 36.5388C31.5301 36.5388 29.7081 37.7946 29.7081 40.6228C29.7081 43.3861 31.5301 44.7061 33.7942 44.7061C36.0501 44.7061 37.8758 43.3861 37.8758 40.6228C37.8756 37.7968 36.0501 36.5388 33.7942 36.5388ZM33.7942 42.7635C32.7833 42.7635 32.0248 41.9951 32.0248 40.6237C32.0248 39.1315 32.7833 38.4786 33.7942 38.4786C34.8015 38.4786 35.5592 39.1312 35.5592 40.6237C35.5589 41.9951 34.8015 42.7635 33.7942 42.7635ZM50.5504 42.6935C50.4745 42.6935 49.9589 42.8953 49.6297 42.8953C48.9296 42.8953 48.5109 42.5651 48.5109 41.4569V38.571C48.5109 38.5297 48.5436 38.4952 48.5867 38.4952H50.4782C50.4883 38.4953 50.4982 38.4935 50.5076 38.4897C50.5169 38.486 50.5253 38.4804 50.5325 38.4733C50.5395 38.4661 50.5451 38.4577 50.5488 38.4484C50.5525 38.439 50.5543 38.429 50.5541 38.419H50.5553L50.5541 36.9335C50.5537 36.8681 50.5276 36.8053 50.4813 36.7591C50.4349 36.7128 50.3721 36.6867 50.3066 36.6865H48.5867C48.5767 36.6867 48.5668 36.6849 48.5576 36.6812C48.5483 36.6775 48.5399 36.672 48.5328 36.6649C48.5257 36.6579 48.5201 36.6495 48.5164 36.6403C48.5126 36.6311 48.5107 36.6212 48.5109 36.6113V34.568C48.5109 34.5057 48.4833 34.4873 48.4176 34.4873C48.2658 34.4873 47.0882 35.2432 46.7227 35.6447C46.435 35.9661 46.2756 36.3821 46.2745 36.8133V41.8333C46.2745 44.0114 47.5326 44.6924 48.8865 44.6924C49.6606 44.6924 50.1864 44.5786 50.4984 44.4105C50.5376 44.389 50.5702 44.3573 50.5929 44.3189C50.6157 44.2804 50.6276 44.2365 50.6275 44.1918V42.7697C50.6273 42.7493 50.619 42.73 50.6046 42.7157C50.5901 42.7015 50.5707 42.6935 50.5504 42.6935ZM24.417 36.6865H21.4397C21.4065 36.6861 21.3735 36.6924 21.3427 36.7048C21.312 36.7173 21.2839 36.7357 21.2603 36.7589C21.2366 36.7822 21.2178 36.81 21.2049 36.8406C21.1921 36.8712 21.1853 36.904 21.1852 36.9372V46.0764C21.1865 46.5078 21.3459 46.9237 21.6333 47.2457C22.0013 47.6487 23.1782 48.403 23.3312 48.403C23.3969 48.403 23.4233 48.3853 23.4233 48.322V44.6395C23.4233 44.5957 23.456 44.5621 23.4997 44.5621H24.3702C27.162 44.5621 28.8581 42.9873 28.8581 40.7136C28.8577 38.4429 27.3427 36.6865 24.417 36.6865ZM24.417 42.5165H23.4982C23.4882 42.5165 23.4784 42.5144 23.4693 42.5105C23.4601 42.5067 23.4517 42.5011 23.4448 42.494C23.4377 42.4869 23.4322 42.4785 23.4285 42.4693C23.4248 42.4601 23.4229 42.4503 23.4229 42.4403V38.8058C23.4229 38.7645 23.4557 38.7297 23.4982 38.7297H24.3721C26.0226 38.7297 26.6487 39.6354 26.6487 40.602C26.649 41.1499 26.3838 42.5165 24.417 42.5165ZM44.1729 40.2791C43.7105 39.9757 43.1467 39.8522 42.601 39.7341C42.5037 39.7116 42.141 39.6305 42.0593 39.6116C41.3931 39.4641 40.8673 39.347 40.8673 38.9153C40.8673 38.5425 41.2277 38.2994 41.7819 38.2994C42.4845 38.2994 43.4587 38.4404 44.5241 38.8392C44.5773 38.8587 44.6507 38.8275 44.6544 38.756V37.2127C44.6537 37.1576 44.6355 37.1041 44.6025 37.0599C44.5696 37.0157 44.5235 36.983 44.4709 36.9665C44.0986 36.8485 42.991 36.5393 42.0538 36.5393C41.0126 36.5393 40.1445 36.7717 39.5459 37.2152C38.9397 37.6573 38.6194 38.2967 38.6194 39.0651C38.6194 40.7995 40.0412 41.1285 41.3849 41.4462C41.5917 41.4945 41.5592 41.4872 41.6381 41.5037C42.2517 41.6377 42.8873 41.7786 42.8873 42.2837C42.8873 42.4357 42.831 42.5589 42.7163 42.6749C42.5445 42.8452 42.2808 42.921 41.7749 42.921C40.9175 42.921 39.3092 42.5208 38.8115 42.3626C38.8009 42.3591 38.7899 42.3571 38.7788 42.3565C38.7665 42.3561 38.7542 42.3583 38.7428 42.3627C38.7313 42.3672 38.7208 42.3738 38.7119 42.3824C38.703 42.3909 38.696 42.4012 38.6911 42.4125C38.6863 42.4238 38.6837 42.436 38.6837 42.4483V43.9946C38.6836 44.0477 38.7001 44.0993 38.7309 44.1425C38.7617 44.1857 38.8053 44.2181 38.8556 44.2353C38.8663 44.2411 40.2751 44.7071 41.6041 44.7071C43.9301 44.7071 45.1217 43.7971 45.1217 42.1382C45.1217 41.3041 44.8097 40.6983 44.1729 40.2791ZM33.6621 26.5092C33.7093 26.5437 33.7505 26.5609 33.7918 26.5609H33.7942C33.8418 26.5585 33.8873 26.5404 33.9233 26.5092C34.2417 26.2573 34.5287 25.9682 34.7782 25.6481C34.8189 25.593 34.8535 25.5255 34.7795 25.4457C34.52 25.1075 34.2159 24.8059 33.8757 24.5491C33.8374 24.5259 33.8153 24.5207 33.7921 24.5207C33.7713 24.5207 33.7509 24.5259 33.712 24.5491C33.3713 24.8066 33.0661 25.1081 32.8045 25.4457C32.7225 25.5374 32.783 25.6105 32.8081 25.6481C33.057 25.9685 33.3438 26.2576 33.6621 26.5092ZM30.0788 33.514V34.3607C30.0788 34.5802 30.1589 34.6729 30.344 34.6729H37.2469C37.4345 34.6729 37.5146 34.5802 37.5146 34.3607V33.514C37.5132 33.4207 37.4753 33.3317 37.4092 33.2658C37.343 33.2001 37.2537 33.1627 37.1604 33.1617H30.4317C30.3386 33.163 30.2497 33.2005 30.1838 33.2663C30.1179 33.3321 30.0802 33.4209 30.0788 33.514ZM33.3193 32.3001H34.2669C34.4329 32.3001 34.4442 32.1113 34.4442 32.1089C34.4442 32.0722 34.4944 28.1347 34.5027 27.5996C34.5027 27.5598 34.4895 27.4705 34.4357 27.4149C34.4038 27.3851 34.3615 27.3691 34.3179 27.3702C34.1424 27.3607 33.9667 27.3562 33.7909 27.3568C33.5489 27.3568 33.344 27.365 33.2675 27.3702C33.246 27.3695 33.2245 27.3731 33.2043 27.3809C33.1842 27.3887 33.1658 27.4005 33.1504 27.4155C33.0941 27.4705 33.0828 27.5598 33.0828 27.5996C33.0905 28.1347 33.1391 32.0722 33.1406 32.1089C33.1412 32.1163 33.1532 32.3001 33.3193 32.3001ZM37.9157 28.0968C37.6642 28.005 37.4173 27.9213 37.183 27.8516C36.8833 27.7583 36.597 27.6922 36.3468 27.6329L36.3407 27.632C36.2927 27.6204 36.2435 27.6141 36.1941 27.613C35.9433 27.613 35.8262 27.7892 35.7791 27.8956C35.5059 28.4998 35.3096 29.049 35.119 29.7345C35.1034 29.7914 35.1065 29.8324 35.1303 29.8609C35.1505 29.8884 35.1888 29.9037 35.2444 29.9037H35.9853C36.0837 29.9037 36.14 29.8685 36.1608 29.7988C36.2825 29.386 36.3688 29.1444 36.5257 28.7955C36.5444 28.7603 36.5866 28.7237 36.6597 28.7237C36.6836 28.7237 36.7068 28.7267 36.7356 28.7353L37.1142 28.8597C37.2565 28.9123 37.3078 29.1025 37.2595 29.2373C37.2519 29.2585 36.4979 31.3671 36.2731 32.0613C36.248 32.1441 36.2517 32.2071 36.2795 32.2459C36.3052 32.2805 36.3541 32.2994 36.4254 32.2994H37.3412C37.4577 32.2994 37.5253 32.2588 37.5574 32.1719C37.5901 32.0817 37.6382 31.9493 37.6941 31.7933C37.96 31.0537 38.4038 29.8168 38.4941 29.4801C38.6427 28.9269 38.6733 28.3802 37.9157 28.0968ZM30.0249 32.1722C30.0568 32.2588 30.1265 32.3001 30.2443 32.3001H31.1601C31.2295 32.3001 31.279 32.2811 31.3041 32.2462C31.3329 32.2074 31.3347 32.1444 31.3084 32.0615C31.0857 31.3674 30.3324 29.2588 30.3232 29.2377C30.2755 29.1025 30.3275 28.9129 30.4691 28.8597L30.8496 28.7356C30.8733 28.7281 30.8981 28.7243 30.923 28.7239C30.9982 28.7239 31.0408 28.7606 31.0573 28.7958C31.2127 29.1429 31.3035 29.3865 31.4228 29.7993C31.4442 29.8688 31.4999 29.904 31.5972 29.904H32.3392C32.3955 29.904 32.4343 29.8889 32.4545 29.8614C32.4772 29.833 32.479 29.7914 32.4628 29.7349C32.2722 29.0499 32.0756 28.5001 31.8057 27.8962C31.7581 27.7892 31.6415 27.6133 31.3889 27.6133C31.3429 27.6133 31.2937 27.6204 31.2441 27.6323L31.2384 27.6333C30.9839 27.6929 30.6988 27.7589 30.4009 27.8518C30.166 27.9219 29.9194 28.0053 29.6689 28.0974C28.9097 28.3805 28.9406 28.9273 29.0884 29.4805C29.1773 29.8177 29.6218 31.054 29.8877 31.794C29.9464 31.9496 29.9922 32.082 30.0249 32.1722Z" fill="#010F58"/>
<path fill-rule="evenodd" clip-rule="evenodd" d="M56.9566 36.7782C56.496 36.7782 55.9325 36.8934 55.4052 37.0937C55.1626 37.1854 54.8054 37.3878 54.5711 37.5686L54.5072 37.6178C54.5058 37.6182 54.5037 37.619 54.501 37.6201C54.4936 37.6231 54.4819 37.6279 54.4713 37.6279C54.4628 37.628 54.4542 37.6265 54.4461 37.6233C54.4381 37.6201 54.4309 37.6153 54.4247 37.6093C54.4185 37.6033 54.4136 37.5961 54.4102 37.5882C54.4069 37.5802 54.4051 37.5717 54.405 37.5631V36.9705C54.4048 36.9575 54.3994 36.9451 54.3901 36.9361C54.3809 36.927 54.3685 36.9218 54.3554 36.9218H52.4394C52.4098 36.9215 52.3805 36.927 52.353 36.938C52.3256 36.949 52.3005 36.9653 52.2794 36.9859C52.2583 37.0066 52.2414 37.0313 52.2298 37.0585C52.2182 37.0857 52.2121 37.1149 52.2119 37.1445V44.6938C52.2119 44.719 52.2344 44.7406 52.2614 44.7406H54.3542C54.3805 44.7406 54.4037 44.719 54.4037 44.6938V39.3638C54.4037 39.3247 54.4349 39.2766 54.4606 39.2608L54.478 39.2502L54.4783 39.25C54.5888 39.1826 54.8568 39.019 55.1908 38.8257C55.5456 38.6229 55.9053 38.5131 56.2011 38.5131C57.0315 38.5131 57.3864 38.9578 57.3864 40.0014V44.6942C57.3864 44.7193 57.4072 44.741 57.4334 44.741H59.522C59.5501 44.741 59.5697 44.7217 59.5697 44.6942V39.6186C59.5697 37.7597 58.6665 36.7782 56.9566 36.7782ZM62.9881 34.2282C62.6113 33.8127 61.4462 33.0798 61.3141 33.0798C61.2585 33.0798 61.2477 33.0926 61.2477 33.1338L61.2501 44.6938C61.2501 44.719 61.2704 44.7406 61.2961 44.7406H63.3812C63.3937 44.7405 63.4056 44.7354 63.4145 44.7268C63.4234 44.7181 63.4287 44.7063 63.4293 44.6938L63.4286 35.3789C63.4289 34.9542 63.2721 34.5442 62.9881 34.2282ZM33.915 26.7158C33.9621 26.7504 34.0034 26.7675 34.0447 26.7675H34.0472C34.0948 26.7652 34.1402 26.747 34.1762 26.7158C34.4945 26.4639 34.7816 26.1749 35.0312 25.8547C35.0718 25.7997 35.1064 25.7322 35.0324 25.6523C34.7728 25.3142 34.4688 25.0126 34.1285 24.7558C34.0903 24.7326 34.0683 24.7274 34.045 24.7274C34.0242 24.7274 34.0037 24.7326 33.9648 24.7558C33.6241 25.0134 33.319 25.3148 33.0573 25.6523C32.9808 25.7379 33.0284 25.8073 33.0556 25.8467L33.061 25.8547C33.31 26.1751 33.5967 26.4642 33.915 26.7158ZM30.3316 33.7206V34.5674C30.3316 34.7869 30.4118 34.8795 30.5968 34.8795H37.4999C37.6874 34.8795 37.7675 34.7869 37.7675 34.5674V33.7206C37.766 33.6274 37.7282 33.5383 37.662 33.4725C37.5959 33.4067 37.5066 33.3694 37.4133 33.3684H30.6847C30.5916 33.3697 30.5026 33.4071 30.4367 33.473C30.3708 33.5387 30.3331 33.6275 30.3316 33.7206ZM33.5721 32.5067H34.5197C34.6858 32.5067 34.6972 32.318 34.6972 32.3156C34.6972 32.2789 34.7473 28.3414 34.7556 27.8062C34.7556 27.7665 34.7424 27.6772 34.6885 27.6215C34.6567 27.5918 34.6144 27.5758 34.5708 27.5769C34.3953 27.5674 34.2196 27.5629 34.0438 27.5634C33.8018 27.5634 33.5969 27.5717 33.5204 27.5769C33.4988 27.5762 33.4773 27.5798 33.4572 27.5876C33.4371 27.5954 33.4188 27.6071 33.4032 27.6222C33.347 27.6772 33.3356 27.7665 33.3356 27.8062C33.3393 28.0627 33.3524 29.1005 33.3652 30.1159V30.1163C33.3792 31.2197 33.3927 32.2965 33.3935 32.3156V32.316C33.3944 32.3282 33.4084 32.5067 33.5721 32.5067ZM38.1685 28.3034C37.9171 28.2117 37.6702 28.1279 37.436 28.0582C37.1572 27.9715 36.8901 27.9083 36.6528 27.8522L36.5996 27.8396L36.5936 27.8386C36.5456 27.827 36.4964 27.8207 36.447 27.8197C36.1962 27.8197 36.0791 27.9958 36.032 28.1022C35.7588 28.7065 35.5624 29.2557 35.3719 29.9412C35.3563 29.9981 35.3593 30.039 35.3832 30.0675C35.4034 30.095 35.4416 30.1103 35.4973 30.1103H36.2381C36.3366 30.1103 36.3929 30.0751 36.4137 30.0054C36.5354 29.5926 36.6217 29.351 36.7786 29.0022C36.7972 28.967 36.8395 28.9303 36.9126 28.9303C36.9364 28.9303 36.9597 28.9334 36.9884 28.9419L37.3671 29.0664C37.5093 29.119 37.5608 29.3091 37.5124 29.444C37.5048 29.4651 36.7508 31.5738 36.526 32.2679C36.5008 32.3507 36.5045 32.4138 36.5324 32.4526C36.558 32.4871 36.607 32.5061 36.6783 32.5061H37.594C37.7106 32.5061 37.7782 32.4654 37.8104 32.3786C37.8431 32.2884 37.8911 32.156 37.9471 32C38.2128 31.2603 38.6567 30.0234 38.7469 29.6868C38.8956 29.1336 38.9261 28.5869 38.1685 28.3034ZM30.2778 32.3789C30.3096 32.4654 30.3794 32.5067 30.4972 32.5067H31.4129C31.4824 32.5067 31.532 32.4878 31.557 32.4529C31.5858 32.4141 31.5876 32.351 31.5613 32.2682C31.3386 31.5741 30.5852 29.4654 30.576 29.4443C30.5284 29.3091 30.5804 29.1196 30.722 29.0664L31.1024 28.9422C31.1263 28.9348 31.151 28.931 31.1759 28.9306C31.2512 28.9306 31.2936 28.9673 31.3102 29.0025C31.4656 29.3495 31.5564 29.5932 31.6757 30.006C31.6971 30.0754 31.7528 30.1106 31.85 30.1106H32.5921C32.6484 30.1106 32.6872 30.0956 32.7074 30.0681C32.73 30.0397 32.7319 29.9981 32.7156 29.9415C32.5251 29.2566 32.3284 28.7068 32.0587 28.1029C32.0109 27.9958 31.8944 27.82 31.6417 27.82C31.5959 27.82 31.5466 27.827 31.4971 27.839L31.4912 27.8399L31.4681 27.8453C31.2196 27.9035 30.9427 27.9684 30.6538 28.0585C30.4188 28.1286 30.1723 28.212 29.9218 28.3041C29.1626 28.5872 29.1935 29.1339 29.3412 29.6871C29.4292 30.0206 29.8648 31.2333 30.1316 31.9758L30.1405 32.0006C30.182 32.1105 30.217 32.2088 30.2456 32.2889C30.2575 32.3222 30.2682 32.3523 30.2778 32.3789Z" fill="white"/>
<defs>
<linearGradient id="paint0_linear_2_775" x1="43.4388" y1="12.3637" x2="43.4388" y2="66.9091" gradientUnits="userSpaceOnUse">
<stop stop-color="#EF9E31"/>
<stop offset="1" stop-color="#E05C2F"/>
</linearGradient>
</defs>
</svg>
