<svg width="81" height="80" viewBox="0 0 81 80" fill="none" xmlns="http://www.w3.org/2000/svg">
<path d="M40.8513 58.8118C41.6457 58.8182 42.4345 58.6644 43.1825 58.405C49.135 56.4156 55.0957 54.4462 61.0476 52.4544C61.9238 52.15 62.5582 51.3706 62.8263 50.4994C63.0376 47.0106 63.1182 43.5162 63.2951 40.0269C63.4413 36.7369 63.5701 33.4469 63.7088 30.1562C63.7113 29.4131 63.7732 28.6706 63.7857 27.9275C63.8163 27.2644 63.905 26.5806 63.7001 25.9362C63.3669 24.9 62.3719 24.1038 61.2788 24.0425C56.3625 23.735 51.4432 23.4306 46.5263 23.12C44.9882 22.9594 43.4401 22.91 41.8963 22.8375H40.7619V22.8382H40.7625V22.8913C40.7619 23.6338 40.7607 24.3769 40.7625 25.1206C42.4069 25.1494 44.0513 25.1718 45.6919 25.3038C50.5088 25.4782 55.3269 25.6656 60.145 25.8387C60.4688 25.8538 60.8101 25.8331 61.1082 25.9818C61.5307 26.1906 61.8032 26.6594 61.7682 27.1313C61.4419 34.4682 61.1201 41.8056 60.7945 49.1425C60.7807 49.8038 60.4345 50.4469 59.8876 50.8175C59.5863 51.0306 59.2238 51.125 58.8801 51.24C53.1825 53.1269 47.4888 55.0169 41.7932 56.9025C41.4601 57.0187 41.1194 57.1369 40.7645 57.1362C40.8101 57.6907 40.6513 58.2818 40.8513 58.8118Z" fill="#FFB94A"/>
<path d="M43.808 28.1185C43.8099 28.116 43.8136 28.1111 43.8149 28.1085C43.8136 28.1116 43.8099 28.1154 43.808 28.1185Z" fill="#FFB94A"/>
<path d="M40.6254 30.39C40.6266 30.3919 40.6304 30.3975 40.6316 30.3995C40.6304 30.3975 40.6266 30.3926 40.6254 30.39Z" fill="#FFB94A"/>
<path d="M26.7338 31.2475C26.7356 31.2437 26.7387 31.2393 26.7413 31.2375C26.7394 31.2393 26.7362 31.2437 26.7338 31.2475Z" fill="#FFB94A"/>
<path d="M49.8529 31.2468C49.8542 31.2444 49.8579 31.2393 49.8591 31.2375C49.8567 31.2393 49.8542 31.2437 49.8529 31.2468Z" fill="#FFB94A"/>
<path d="M41.3685 31.3538C41.3698 31.3513 41.3742 31.3456 41.376 31.3438C41.3736 31.3456 41.3698 31.3513 41.3685 31.3538Z" fill="#FFB94A"/>
<path d="M41.2611 31.5631C41.2611 31.5599 41.2649 31.5543 41.2661 31.5512C41.2637 31.5543 41.2624 31.5599 41.2611 31.5631Z" fill="#FFB94A"/>
<path d="M41.4563 55.9811C47.2719 54.0549 53.0857 52.1224 58.9032 50.2018C59.2019 50.1167 59.4813 49.9449 59.6457 49.6787C59.8632 49.3462 59.8219 48.9331 59.8382 48.5567C60.0569 43.4936 60.2894 38.4324 60.5026 33.3699C53.9232 33.3555 47.3406 33.3618 40.7606 33.3662C40.7688 35.4831 40.7401 37.5987 40.7763 39.7131C41.3094 38.5593 41.8213 37.3962 42.3438 36.2367C42.4426 36.0267 42.5119 35.7918 42.6801 35.6249C42.8619 35.4536 43.127 35.4543 43.3606 35.453C44.1375 35.4649 44.9175 35.4487 45.695 35.4611C46.0419 35.4518 46.377 35.7305 46.3613 36.0905C46.365 40.2099 46.3613 44.3305 46.3626 48.4499C46.387 48.7931 46.0919 49.1093 45.7475 49.1005C45.1094 49.108 44.4726 49.1043 43.8344 49.1031C43.5332 49.1105 43.2301 48.8631 43.2226 48.5518C43.205 45.8499 43.2401 43.1455 43.2063 40.4424C43.1475 40.4705 43.0982 40.5067 43.0563 40.5518C42.225 42.2549 41.507 44.0118 40.6957 45.7236C40.7275 45.8149 40.7626 45.9067 40.7632 46.0062C40.7557 49.3918 40.7613 52.7767 40.7606 56.1618C41.0001 56.1355 41.2319 56.0636 41.4563 55.9811ZM47.7101 36.0911C47.6857 35.7699 47.9406 35.4693 48.2588 35.4349C48.9588 35.408 49.6613 35.4293 50.3632 35.423C50.697 35.4111 51.0338 35.6936 51.0157 36.0411C51.0175 39.3818 51.0157 42.7231 51.0163 46.0655C51.0138 46.4093 51.3519 46.6862 51.6857 46.6636C53.0663 46.6662 54.4457 46.6593 55.825 46.6662C56.1557 46.6611 56.4857 46.9362 56.4732 47.2818C56.477 47.7055 56.4863 48.1299 56.4694 48.5524C56.4563 48.878 56.1338 49.1199 55.8201 49.1036C53.3282 49.1036 50.8357 49.1043 48.3444 49.1031C47.9682 49.118 47.6732 48.7611 47.7075 48.3974C47.7082 44.2967 47.7075 40.1924 47.7101 36.0911Z" fill="#FFB94A"/>
<path d="M18.5989 49.8125C18.6396 50.9625 19.3652 52.0825 20.4758 52.4562C26.3883 54.4319 32.3065 56.3919 38.2208 58.365C39.0614 58.6713 39.9545 58.8319 40.8501 58.8125C40.6508 58.2825 40.8096 57.6913 40.7614 57.1362C40.3439 57.1406 39.9539 56.9787 39.5633 56.8569C33.9527 54.9887 28.337 53.1356 22.7252 51.2713C22.4377 51.1718 22.1408 51.0944 21.8652 50.9606C21.217 50.6456 20.7683 49.965 20.7189 49.2487C20.4014 42.0344 20.0808 34.8218 19.7621 27.6087C19.7545 27.3018 19.7077 26.985 19.7958 26.685C19.9396 26.2225 20.3889 25.875 20.8739 25.8593C25.8083 25.6756 30.7427 25.4956 35.677 25.3056C37.3696 25.1906 39.0658 25.1362 40.7621 25.1193C40.7601 24.3769 40.7608 23.6325 40.7621 22.8906C38.8708 22.92 36.9789 22.9831 35.0958 23.1693C30.1265 23.4818 25.157 23.7862 20.1877 24.1044C18.7608 24.195 17.6001 25.5487 17.6483 26.9606C17.6901 27.2862 17.6933 27.615 17.6821 27.9418C17.6877 28.0369 17.6952 28.1344 17.7008 28.23C17.7427 28.5562 17.7489 28.8869 17.7345 29.2137C17.7433 29.5275 17.7408 29.84 17.7601 30.1537C17.8758 32.0369 17.9065 33.9244 18.0083 35.81C18.0758 36.1544 18.0583 36.5037 18.0508 36.8525C18.0527 36.9106 18.0577 36.97 18.0614 37.0293C18.1314 37.4075 18.1114 37.7931 18.1065 38.175C18.1089 38.2069 18.1133 38.2713 18.1145 38.3044C18.1827 38.6818 18.1677 39.0681 18.1558 39.45C18.1621 39.6413 18.1689 39.8337 18.1708 40.025C18.1665 40.2681 18.1827 40.5106 18.2196 40.7525C18.2896 41.1587 18.2789 41.5731 18.2765 41.985L18.2789 42.0275C18.4033 43.7244 18.4252 45.4269 18.5183 47.125C18.5314 47.9781 18.6252 48.83 18.5914 49.6813C18.5927 49.7175 18.5965 49.7806 18.5989 49.8125Z" fill="#FFC552"/>
<path d="M47.1228 27.7574C47.0384 27.9174 46.9753 28.0918 46.9653 28.2737L46.9853 28.2299C47.0553 28.0799 47.0871 27.9174 47.1228 27.7574Z" fill="#FFC552"/>
<path d="M47.975 28.7275C47.9856 28.7544 48.0075 28.8057 48.0181 28.8326C48.0075 28.8057 47.9838 28.7544 47.975 28.7275Z" fill="#FFC552"/>
<path d="M42.9325 30.8863C42.8482 31.0457 42.7838 31.2201 42.7738 31.4025L42.7944 31.3576C42.865 31.2076 42.8988 31.0457 42.9325 30.8863Z" fill="#FFC552"/>
<path d="M46.1141 30.8849C46.0292 31.0449 45.9654 31.2187 45.9535 31.4018L45.9754 31.3569C46.0473 31.2074 46.0785 31.0449 46.1141 30.8849Z" fill="#FFC552"/>
<path d="M43.7855 31.8568C43.7968 31.8831 43.8187 31.935 43.8287 31.9612C43.8181 31.9343 43.7962 31.8831 43.7855 31.8568Z" fill="#FFC552"/>
<path d="M46.9672 31.8563C46.9772 31.8819 46.9991 31.9344 47.0091 31.96C47.0003 31.9344 46.9778 31.8819 46.9672 31.8563Z" fill="#FFC552"/>
<path d="M33.4405 35.4592C34.2193 35.4505 34.998 35.4643 35.7773 35.4549C36.0217 35.4524 36.3011 35.4655 36.4817 35.6549C36.6405 35.8336 36.7099 36.0692 36.8124 36.2812C37.7173 38.2636 38.5955 40.2592 39.5586 42.2149C40.0024 41.4017 40.3837 40.5536 40.7755 39.7136C40.7399 37.598 40.7686 35.4824 40.7611 33.3655C34.178 33.358 27.5942 33.3574 21.0111 33.3661C21.2093 38.6086 21.4742 43.848 21.6886 49.0892C21.6868 49.5774 22.0342 50.0286 22.5011 50.1649C28.4624 52.1399 34.423 54.1143 40.383 56.0912C40.5068 56.1261 40.6337 56.1424 40.7611 56.1617C40.7617 52.7768 40.7561 49.3917 40.7637 46.0068C40.763 45.9074 40.7273 45.8143 40.6961 45.7243C40.3393 46.0599 39.8217 45.9036 39.3837 45.9386C39.0117 45.9592 38.5155 45.9686 38.3473 45.5549C37.5955 43.8861 36.8668 42.2061 36.0973 40.5443C36.0655 40.4743 35.9886 40.4424 35.9349 40.3949C35.8937 43.1143 35.9361 45.8336 35.9137 48.5517C35.8993 48.8836 35.5673 49.1286 35.248 49.1049C34.6111 49.0999 33.9742 49.113 33.3373 49.0986C33.0011 49.0949 32.723 48.7836 32.7461 48.4492C32.743 44.5068 32.7468 40.5649 32.7442 36.623C32.748 36.3812 32.7224 36.1368 32.778 35.8992C32.8573 35.6168 33.1599 35.4561 33.4405 35.4592ZM31.2311 48.678C31.1461 48.9486 30.8605 49.1274 30.5805 49.1068C29.9086 49.1024 29.2373 49.1099 28.5655 49.1036C28.2468 49.1074 27.9449 48.8292 27.963 48.5024C27.963 44.3486 27.9617 40.1943 27.9637 36.0412C27.953 35.7874 28.1399 35.5661 28.3711 35.4836C29.0837 35.3986 29.8099 35.4712 30.5273 35.4443C30.8761 35.4024 31.2599 35.6674 31.2524 36.038C31.2524 40.0505 31.2511 44.0636 31.2524 48.0774C31.2473 48.2768 31.2717 48.4799 31.2311 48.678Z" fill="#FFC552"/>
<path d="M60.1429 25.8394C55.3247 25.6669 50.5066 25.4788 45.6885 25.305C44.0491 25.1732 42.4035 25.15 40.7604 25.1213C39.0641 25.1363 37.3685 25.1919 35.6754 25.3075C30.741 25.4975 25.8072 25.6769 20.8723 25.86C20.3879 25.8763 19.9391 26.2226 19.7947 26.6857C19.7066 26.985 19.7529 27.3013 19.7603 27.6088C20.0798 34.8219 20.3998 42.0344 20.7172 49.2482C20.7667 49.9657 21.2154 50.6457 21.8635 50.9606C22.1385 51.0944 22.4354 51.1719 22.7235 51.2713C28.3354 53.135 33.951 54.9881 39.561 56.8563C39.9516 56.9781 40.3416 57.1419 40.7591 57.1363C41.1147 57.1369 41.4554 57.0188 41.7878 56.9025C47.4835 55.0182 53.1785 53.1269 58.8747 51.2406C59.2198 51.1257 59.5803 51.0319 59.8822 50.8182C60.4291 50.4463 60.776 49.8044 60.7891 49.1426C61.1147 41.8069 61.436 34.4688 61.7629 27.1313C61.7991 26.66 61.5254 26.1906 61.1029 25.9826C60.8085 25.8338 60.466 25.8544 60.1429 25.8394ZM54.3722 30.3157C54.7341 30.3344 55.1078 30.2657 55.4616 30.3582C55.7785 30.4701 55.7785 30.9163 55.5173 31.09C55.8835 31.2619 55.8447 31.8406 55.4654 31.9682C55.1098 32.0582 54.7347 31.9932 54.3722 32.0094C54.3654 31.4457 54.3654 30.8794 54.3722 30.3157ZM53.0804 30.3375C53.3954 30.2582 53.781 30.3413 53.9572 30.6363C54.1285 30.9432 54.1366 31.3426 53.9772 31.6563C53.7085 32.1563 52.8423 32.1394 52.6173 31.6075C52.4323 31.1606 52.5298 30.46 53.0804 30.3375ZM50.8198 30.3138C50.9641 30.3138 51.1091 30.315 51.2535 30.3163C51.2504 30.5263 51.2516 30.7357 51.2554 30.9457C51.4529 30.9526 51.6523 30.9526 51.8504 30.9469C51.8529 30.7369 51.8535 30.5275 51.851 30.3175C51.996 30.315 52.141 30.3132 52.2866 30.3132C52.2954 30.8794 52.2954 31.4463 52.2866 32.0113C52.141 32.0113 51.996 32.0101 51.851 32.0082C51.8541 31.7806 51.8535 31.5526 51.8498 31.325C51.6522 31.3194 51.4529 31.3194 51.2554 31.3257C51.251 31.5532 51.2504 31.7806 51.2535 32.0082C51.1091 32.0101 50.9641 32.0106 50.8198 32.0113C50.8129 31.4463 50.8129 30.8794 50.8198 30.3138ZM48.9122 30.3132C49.0535 30.3138 49.196 30.315 49.3416 30.3182C49.3429 30.6444 49.3272 30.9706 49.3516 31.2963C49.5972 30.9906 49.7822 30.6444 50.0004 30.3194C50.1447 30.3157 50.2885 30.3132 50.4329 30.3126C50.4422 30.8794 50.4422 31.4457 50.4329 32.0126C50.2891 32.0113 50.146 32.0094 50.0029 32.0069C50.0029 31.6957 50.0154 31.3844 49.9941 31.0738C49.9472 31.1269 49.9029 31.1819 49.8598 31.2369C49.8572 31.2394 49.8535 31.245 49.8523 31.2475C49.6847 31.5019 49.5116 31.7538 49.3441 32.0075C49.1998 32.0106 49.056 32.0119 48.9129 32.0119C48.9041 31.4463 48.9041 30.8794 48.9122 30.3132ZM48.3967 31.1157C48.6516 31.2857 48.6835 31.6963 48.4185 31.8719C48.046 32.105 47.5104 32.0563 47.1935 31.7488C47.2716 31.6582 47.3529 31.5682 47.436 31.4813C47.6435 31.6126 48.006 31.7606 48.1598 31.4813C48.1954 31.2206 47.8522 31.275 47.6898 31.2632C47.6898 31.1619 47.6898 31.06 47.6898 30.9588C47.8416 30.9582 47.996 30.9413 48.1454 30.8975C48.131 30.54 47.6785 30.7175 47.481 30.8169C47.4129 30.7257 47.346 30.6332 47.281 30.5382C47.6041 30.2988 48.0854 30.2138 48.4372 30.4332C48.6854 30.5963 48.616 30.9594 48.3967 31.1157ZM46.9191 27.1913C47.0898 27.1844 47.2616 27.1844 47.4329 27.1932C47.6035 27.7075 47.8341 28.2044 47.9735 28.7282C47.9835 28.755 48.0054 28.8069 48.0166 28.8326L48.0635 28.8682C47.9085 28.8838 47.7498 28.885 47.5935 28.8826C47.5541 28.7794 47.5154 28.6775 47.476 28.5744C47.2698 28.5613 47.0623 28.5613 46.8572 28.5694C46.8267 28.67 46.796 28.7706 46.7685 28.8719C46.6135 28.8819 46.4603 28.8844 46.3054 28.8832C46.5004 28.3144 46.7204 27.7563 46.9191 27.1913ZM45.9135 30.3201C46.0829 30.3126 46.2547 30.3126 46.4266 30.3219C46.5966 30.8363 46.8278 31.3332 46.9666 31.8563C46.9778 31.8832 46.9998 31.9357 47.0091 31.9606L47.0572 31.9963C46.901 32.0132 46.7441 32.0138 46.5878 32.0106C46.5478 31.9082 46.5085 31.8057 46.4703 31.7032C46.2641 31.69 46.0554 31.69 45.8504 31.6982C45.821 31.7988 45.7904 31.9 45.761 32.0006C45.606 32.0106 45.4535 32.0138 45.2998 32.0119C45.4929 31.4444 45.7135 30.885 45.9135 30.3201ZM44.5204 30.69C44.5129 31.1288 44.5191 31.5688 44.5191 32.0088C44.3747 32.01 44.2298 32.0106 44.086 32.0113C44.0785 31.4475 44.0785 30.88 44.086 30.3157C44.5047 30.3138 44.9241 30.3144 45.3435 30.315C45.3435 30.4388 45.3435 30.5626 45.3435 30.685C45.0685 30.6863 44.7954 30.6832 44.5204 30.69ZM44.6698 27.185C44.8129 27.1857 44.9554 27.1869 45.0985 27.1894C45.096 27.4406 45.0898 27.6906 45.106 27.9413C45.3047 27.705 45.4698 27.4419 45.6516 27.1919C45.8247 27.185 46.0022 27.1844 46.1766 27.1888C45.9941 27.475 45.7291 27.7188 45.5935 28.0275C45.7629 28.3257 45.9841 28.5906 46.171 28.8794C45.9867 28.8719 45.7898 28.9188 45.6147 28.8538C45.4329 28.615 45.3098 28.3369 45.1085 28.1113C45.0885 28.3669 45.0954 28.6226 45.0972 28.8794C44.9541 28.8819 44.8116 28.8826 44.6678 28.8838C44.6622 28.3175 44.6622 27.7513 44.6698 27.185ZM42.8666 27.185C43.0098 27.1857 43.1516 27.1869 43.2954 27.1901C43.2966 27.5157 43.2822 27.8426 43.3072 28.1682C43.5522 27.8626 43.7372 27.5157 43.9541 27.1913C44.0985 27.1863 44.2435 27.1844 44.3866 27.1838C44.3966 27.7513 44.3966 28.3169 44.3866 28.8832C44.2435 28.8826 44.0998 28.88 43.9566 28.8775C43.9572 28.5663 43.9698 28.255 43.9478 27.9457C43.9016 27.9982 43.8566 28.0532 43.8135 28.1088C43.8122 28.11 43.8085 28.1163 43.8066 28.1188C43.6404 28.3744 43.4672 28.6257 43.2985 28.8788C43.1547 28.8826 43.0104 28.8838 42.8666 28.8844C42.8585 28.3175 42.8585 27.7513 42.8666 27.185ZM43.2447 30.3226C43.4141 30.8375 43.6472 31.3338 43.7854 31.8575C43.7966 31.8838 43.8185 31.9357 43.8278 31.9619L43.876 31.9969C43.7198 32.0138 43.5629 32.0144 43.4066 32.0113C43.3672 31.9094 43.3285 31.8069 43.2891 31.7044C43.0829 31.6913 42.8754 31.6906 42.6691 31.6988C42.6398 31.7994 42.6091 31.9006 42.5798 32.0013C42.4247 32.0113 42.271 32.0144 42.116 32.0126C42.3116 31.4457 42.5291 30.8857 42.7291 30.3206C42.9022 30.3126 43.0735 30.3126 43.2447 30.3226ZM41.2054 27.1932C41.6729 27.18 42.1429 27.185 42.6116 27.1906C42.6104 27.3113 42.6104 27.4319 42.6116 27.5538C42.4491 27.5557 42.2878 27.5582 42.1291 27.56C42.121 28 42.1272 28.44 42.1272 28.8794C41.9841 28.8826 41.8429 28.8832 41.6998 28.8838C41.6898 28.445 41.6941 28.0044 41.6985 27.565C41.5335 27.5594 41.3691 27.555 41.2041 27.5506C41.2054 27.4306 41.2054 27.3119 41.2054 27.1932ZM41.4554 31.2432C41.436 31.2688 41.3954 31.3188 41.3766 31.3444C41.3754 31.3457 41.371 31.3513 41.3685 31.3538C41.331 31.4188 41.2966 31.4838 41.266 31.5513C41.2635 31.5538 41.261 31.56 41.2598 31.5632C41.1904 31.7106 41.1129 31.855 41.0272 31.9944C40.8635 31.7413 40.7604 31.4557 40.5966 31.2019C40.5729 31.4694 40.5816 31.7369 40.586 32.005C40.446 32.0088 40.3066 32.0094 40.1672 32.0106C40.161 31.4463 40.161 30.8782 40.1672 30.3138C40.3147 30.335 40.521 30.2513 40.626 30.3906C40.6272 30.3926 40.6304 30.3988 40.6316 30.4006C40.7735 30.6544 40.8841 30.925 41.0272 31.1775C41.1847 30.8988 41.3178 30.6075 41.461 30.3219C41.6047 30.3163 41.7503 30.3138 41.8947 30.3132C41.9029 30.8794 41.9029 31.4463 41.8947 32.0138C41.7516 32.0113 41.6072 32.01 41.4647 32.0069C41.4678 31.7526 41.4747 31.4975 41.4554 31.2432ZM39.7729 27.6213C39.9672 27.105 40.7878 27.0138 41.0866 27.4763C40.9916 27.5526 40.8972 27.6288 40.8029 27.7075C40.6578 27.6126 40.456 27.4719 40.2985 27.6244C40.0898 27.8294 40.096 28.235 40.2998 28.4426C40.466 28.5982 40.6729 28.4506 40.8178 28.3438C40.921 28.4206 41.0235 28.5006 41.1247 28.5813C40.8547 28.9238 40.3085 28.995 39.9703 28.7188C39.6691 28.45 39.651 27.9813 39.7729 27.6213ZM39.8154 30.9544C39.8154 31.075 39.8154 31.1963 39.8154 31.3175C39.561 31.3238 39.3067 31.3238 39.0522 31.3188C39.0522 31.1969 39.0522 31.0744 39.0522 30.9519C39.306 30.9488 39.561 30.9482 39.8154 30.9544ZM37.8285 27.185C37.9716 27.185 38.1141 27.1869 38.2566 27.1894C38.2585 27.5157 38.2435 27.8419 38.2678 28.1682C38.5122 27.8626 38.6985 27.5157 38.9154 27.1913C39.0598 27.1863 39.2047 27.1844 39.3491 27.1838C39.3572 27.7513 39.3572 28.3169 39.3491 28.8832C39.2054 28.8826 39.0622 28.88 38.9185 28.8775C38.9185 28.5663 38.9329 28.255 38.9079 27.9457C38.6678 28.2382 38.4791 28.5688 38.2616 28.8775C38.1166 28.8813 37.9729 28.8826 37.8285 28.8832C37.8216 28.3175 37.8216 27.7513 37.8285 27.185ZM38.7929 30.3188C38.7922 30.4394 38.7922 30.5619 38.7929 30.6826C38.6316 30.6844 38.471 30.6875 38.311 30.6888C38.3035 31.1282 38.3085 31.5682 38.3098 32.0088C38.1672 32.01 38.0247 32.0113 37.8822 32.0119C37.8741 31.5738 37.8785 31.1338 37.8822 30.695C37.7172 30.6875 37.5529 30.6832 37.3878 30.6794C37.3885 30.5613 37.3885 30.4419 37.3878 30.3226C37.8554 30.3082 38.3247 30.3132 38.7929 30.3188ZM36.291 27.1869C36.7098 27.185 37.1298 27.185 37.5491 27.1869C37.5491 27.31 37.5491 27.4344 37.5491 27.5569C37.2747 27.5569 37.001 27.555 36.7266 27.5613C36.7191 28 36.7254 28.4406 36.7254 28.88C36.5804 28.8813 36.436 28.8826 36.2916 28.8826C36.2841 28.3182 36.2841 27.7519 36.291 27.1869ZM36.3535 30.9463C36.546 30.95 36.7385 30.9526 36.9316 30.9563C36.931 31.0763 36.931 31.1975 36.9316 31.3182C36.7398 31.3213 36.5466 31.3244 36.3547 31.3269C36.3541 31.4306 36.3541 31.5332 36.3547 31.6369C36.6422 31.6438 36.9298 31.6382 37.2172 31.6444C37.2172 31.7657 37.2172 31.8869 37.2178 32.0088C36.7854 32.0163 36.3522 32.0119 35.9204 32.0113C35.9135 31.4475 35.9135 30.8806 35.9204 30.3169C36.3435 30.3169 36.7678 30.3094 37.1922 30.3226C37.1904 30.4419 37.1904 30.5626 37.1916 30.6819C36.9129 30.6919 36.6329 30.685 36.3535 30.6919C36.3535 30.7744 36.3535 30.8606 36.3535 30.9463ZM34.9985 27.2094C35.3029 27.1344 35.6735 27.2038 35.8566 27.48C36.0454 27.7769 36.0554 28.1738 35.9147 28.4913C35.6722 29.0269 34.7654 29.0257 34.536 28.4782C34.3498 28.0326 34.4479 27.3313 34.9985 27.2094ZM34.1166 30.3138C34.261 30.3138 34.4054 30.3144 34.5504 30.3163C34.5485 30.5263 34.5491 30.7357 34.5522 30.9457C34.751 30.9526 34.9491 30.9526 35.1478 30.9469C35.1504 30.7369 35.151 30.5275 35.1485 30.3175C35.2929 30.315 35.4378 30.3132 35.5841 30.3132C35.5916 30.8794 35.5916 31.4463 35.5841 32.0119C35.4385 32.0113 35.2935 32.0101 35.1478 32.0082C35.151 31.7813 35.1498 31.5526 35.1466 31.325C34.9485 31.32 34.7504 31.3201 34.5516 31.3263C34.5478 31.5538 34.5472 31.7813 34.5498 32.0088C34.4047 32.0106 34.2604 32.0113 34.116 32.0119C34.1098 31.4463 34.1098 30.8794 34.1166 30.3138ZM32.6329 28.5682C32.7329 28.5182 32.8935 28.4894 32.8898 28.3463C32.916 27.9613 32.8872 27.5744 32.9029 27.1875C33.3072 27.185 33.7116 27.18 34.116 27.1919C34.1104 27.7538 34.1104 28.3157 34.116 28.8782C33.9691 28.8806 33.821 28.8806 33.6747 28.8769C33.6804 28.4357 33.6829 27.995 33.6747 27.5538C33.551 27.5563 33.4278 27.5594 33.3047 27.5638C33.2929 27.9157 33.3641 28.2882 33.2347 28.6257C33.1354 28.8632 32.8591 28.8994 32.6329 28.8869C32.6322 28.7813 32.6322 28.675 32.6329 28.5682ZM32.526 30.3157C32.8598 30.3263 33.1998 30.2819 33.5298 30.3426C33.9354 30.4382 34.0241 31.0275 33.7241 31.2832C33.516 31.475 33.2135 31.4201 32.9554 31.4306C32.9522 31.6226 32.9516 31.8144 32.9541 32.0082C32.811 32.0101 32.6685 32.0106 32.526 32.0113C32.5191 31.4463 32.5191 30.88 32.526 30.3157ZM30.9885 30.3157C31.4122 30.3157 31.8366 30.3082 32.2604 30.3213C32.2591 30.4406 32.2591 30.5613 32.2604 30.6806C31.9816 30.69 31.7022 30.6838 31.4229 30.69C31.4229 30.7757 31.4229 30.8606 31.4229 30.9463C31.6154 30.95 31.8078 30.9526 32.001 30.9563C31.9998 31.0763 31.9998 31.1975 32.001 31.3182C31.8078 31.3213 31.6147 31.3244 31.4229 31.3269C31.4229 31.4306 31.4229 31.5332 31.4229 31.6369C31.711 31.6438 31.9985 31.6382 32.286 31.6444C32.286 31.7657 32.286 31.8869 32.2866 32.0088C31.8541 32.0163 31.4222 32.0119 30.9885 32.0113C30.9816 31.4457 30.9816 30.8794 30.9885 30.3157ZM29.3803 30.3213C29.8485 30.3082 30.3178 30.3138 30.786 30.3188C30.786 30.4394 30.786 30.5619 30.786 30.6819C30.6254 30.6844 30.4647 30.6875 30.3041 30.6888C30.2972 31.1282 30.3022 31.5682 30.3029 32.0088C30.1604 32.01 30.0172 32.0113 29.8754 32.0119C29.8667 31.5738 29.8704 31.1344 29.8747 30.695C29.7098 30.6875 29.5454 30.6832 29.3803 30.6794C29.381 30.5594 29.381 30.4406 29.3803 30.3213ZM27.6478 30.3138C27.7916 30.3138 27.9366 30.315 28.0816 30.3163C28.0791 30.5257 28.0804 30.735 28.0835 30.945C28.2816 30.9513 28.4804 30.9526 28.6785 30.9463C28.6816 30.7363 28.6822 30.5269 28.6803 30.3169C28.8241 30.315 28.9698 30.3132 29.1154 30.3132C29.1235 30.8794 29.1235 31.4463 29.1154 32.0106C28.9698 32.0106 28.8247 32.0094 28.6791 32.0075C28.6816 31.7806 28.681 31.5519 28.6778 31.3244C28.4791 31.3194 28.2803 31.32 28.0829 31.3257C28.0798 31.5526 28.0791 31.7806 28.0816 32.0082C27.9366 32.0101 27.7929 32.0106 27.6478 32.0113C27.641 31.4463 27.641 30.8794 27.6478 30.3138ZM25.7922 30.3138C25.9347 30.3138 26.0778 30.315 26.2203 30.3182C26.2229 30.6444 26.2066 30.9713 26.2322 31.2969C26.476 30.9906 26.6622 30.6444 26.8798 30.3201C27.0241 30.3157 27.1685 30.3138 27.3129 30.3126C27.321 30.8794 27.321 31.4463 27.3129 32.0119C27.1691 32.0113 27.026 32.0094 26.8822 32.0069C26.8822 31.6957 26.8947 31.385 26.8735 31.075C26.8267 31.1282 26.7822 31.1819 26.7398 31.2382C26.7378 31.2394 26.7347 31.2444 26.7329 31.2475C26.5666 31.5019 26.3941 31.7538 26.2254 32.0069C26.0803 32.01 25.936 32.0113 25.7922 32.0119C25.7847 31.4463 25.7847 30.8794 25.7922 30.3138ZM59.8379 48.5569C59.8223 48.9338 59.861 49.3463 59.6435 49.6788C59.4785 49.9457 59.1991 50.1175 58.901 50.2019C53.0841 52.1226 47.2704 54.0563 41.4554 55.9813C41.2304 56.0644 40.9991 56.1357 40.7598 56.1632C40.6322 56.1432 40.5054 56.1257 40.3816 56.0919C34.421 54.115 28.461 52.1394 22.4998 50.1657C22.0329 50.0294 21.686 49.5794 21.6872 49.0901C21.4729 43.8488 21.2079 38.6088 21.0098 33.3675C27.5929 33.3588 34.1766 33.3594 40.7598 33.3675C47.3416 33.3632 53.921 33.3557 60.5016 33.3719C60.2878 38.4332 60.0554 43.495 59.8379 48.5569Z" fill="#3B4656"/>
<path d="M35.1535 28.5031C35.696 28.5881 35.7066 27.4743 35.1535 27.5643C34.8029 27.7106 34.8041 28.3538 35.1535 28.5031Z" fill="#3B4656"/>
<path d="M46.9847 28.2292C47.1111 28.2424 47.2373 28.2473 47.3642 28.2486C47.3073 28.033 47.2347 27.8204 47.1547 27.6111C47.1473 27.6492 47.131 27.7204 47.1216 27.7561C47.0867 27.9173 47.0547 28.0798 46.9847 28.2292Z" fill="#3B4656"/>
<path d="M18.1713 40.0273C18.1695 39.8361 18.1619 39.6436 18.1563 39.4524C18.1238 39.0711 18.0951 38.6893 18.1151 38.3067C18.1132 38.2749 18.1095 38.2099 18.107 38.1773C18.0682 37.7967 18.0444 37.4149 18.0619 37.0317C18.0582 36.9724 18.0544 36.9136 18.0513 36.8549C18.017 36.508 17.9944 36.1599 18.0088 35.8117C17.9075 33.9267 17.8757 32.0393 17.7607 30.1555C16.0782 30.1542 14.3957 30.1605 12.7126 30.1524V30.1517H12.7113V30.1836C13.5444 31.843 14.3251 33.5299 15.1438 35.1967C14.3551 36.8136 13.5163 38.4036 12.7382 40.0242C14.5482 40.0355 16.3595 40.0286 18.1713 40.0273Z" fill="#3B4656"/>
<path d="M68.7846 30.1587C67.0927 30.1506 65.4009 30.1562 63.709 30.1562C63.5709 33.4462 63.4415 36.7368 63.2953 40.0268C65.1227 40.0287 66.9496 40.0343 68.7765 40.0225C68.0458 38.4725 67.2927 36.9325 66.5496 35.3881C66.4853 35.2262 66.319 35.0506 66.424 34.8731C67.2127 33.3025 68.0084 31.7356 68.7846 30.1587Z" fill="#3B4656"/>
<path d="M32.9545 31.0589C33.1164 31.042 33.412 31.1182 33.4507 30.8951C33.4726 30.6289 33.1251 30.692 32.9545 30.682C32.9545 30.8077 32.9545 30.9346 32.9545 31.0589Z" fill="#3B4656"/>
<path d="M53.2346 31.6325C53.7777 31.7175 53.7889 30.6037 53.2351 30.6925C52.8851 30.8401 52.8864 31.4819 53.2346 31.6325Z" fill="#3B4656"/>
<path d="M54.806 30.688C54.8047 30.7755 54.8047 30.8611 54.806 30.9487C54.9491 30.9293 55.1967 31.0224 55.2616 30.8431C55.2691 30.6043 54.9554 30.7043 54.806 30.688Z" fill="#3B4656"/>
<path d="M42.7963 31.3575C42.9225 31.3706 43.0481 31.3763 43.1756 31.3782C43.1168 31.1619 43.0456 30.9482 42.9656 30.74C42.9568 30.7769 42.9412 30.8482 42.9325 30.885C42.8987 31.0463 42.865 31.2082 42.7963 31.3575Z" fill="#3B4656"/>
<path d="M45.9769 31.3568C46.1025 31.37 46.2281 31.3768 46.3563 31.3781C46.2988 31.1618 46.2263 30.9481 46.1463 30.7406C46.1388 30.7768 46.1225 30.8487 46.1132 30.8837C46.08 31.0456 46.0476 31.2075 45.9769 31.3568Z" fill="#3B4656"/>
<path d="M54.806 31.2707C54.8047 31.3919 54.8047 31.515 54.806 31.6382C54.9435 31.6357 55.0854 31.6582 55.2185 31.6176C55.3591 31.5732 55.3635 31.3351 55.2185 31.2932C55.086 31.2514 54.9429 31.2732 54.806 31.2707Z" fill="#3B4656"/>
<path d="M55.8243 46.6674C54.445 46.6599 53.0656 46.6674 51.6837 46.6643C51.3506 46.6868 51.0125 46.4099 51.015 46.0662C51.0137 42.723 51.0156 39.3824 51.0137 36.0418C51.0319 35.6937 50.6962 35.4111 50.3619 35.423C49.6606 35.4299 48.9575 35.408 48.2581 35.4349C47.9406 35.4699 47.685 35.7693 47.7081 36.0911C47.7068 40.193 47.7075 44.2962 47.7075 48.3986C47.6712 48.7624 47.9675 49.1193 48.3443 49.1043C50.8362 49.1055 53.3288 49.1049 55.82 49.1049C56.1324 49.1211 56.4556 48.8799 56.4681 48.5537C56.4856 48.1311 56.4768 47.7068 56.4731 47.283C56.485 46.9368 56.1568 46.6618 55.8243 46.6674Z" fill="#3B4656"/>
<path d="M30.5265 35.445C29.809 35.4718 29.0821 35.3994 28.3702 35.4843C28.1396 35.5662 27.9527 35.7874 27.9627 36.0418C27.9609 40.1956 27.9621 44.3494 27.9621 48.5031C27.944 48.83 28.2458 49.1094 28.5646 49.105C29.2358 49.1118 29.9071 49.1043 30.5796 49.1087C30.859 49.13 31.1446 48.95 31.2302 48.6794C31.2709 48.4838 31.2465 48.2781 31.2514 48.0794C31.2502 44.0662 31.2514 40.0518 31.2514 36.0394C31.259 35.6681 30.8752 35.4031 30.5265 35.445Z" fill="#3B4656"/>
<path d="M45.6931 35.4613C44.9175 35.4488 44.1375 35.4657 43.3594 35.4537C43.1263 35.455 42.8606 35.455 42.6787 35.6257C42.5106 35.7932 42.4425 36.0275 42.3431 36.2375C41.8206 37.3963 41.3081 38.56 40.7756 39.7137C40.3843 40.5544 40.0025 41.4025 39.5587 42.215C38.5963 40.2588 37.7175 38.2637 36.8125 36.2806C36.7094 36.0688 36.6406 35.8332 36.4812 35.6544C36.3012 35.4644 36.0219 35.4525 35.7775 35.4537C34.9981 35.4637 34.2187 35.4506 33.4406 35.4588C33.1594 35.4563 32.8575 35.6163 32.7775 35.9C32.7212 36.1369 32.7475 36.3819 32.7425 36.6244C32.7443 40.5663 32.7412 44.5081 32.7443 48.4506C32.7219 48.7837 33 49.0957 33.3363 49.1001C33.9725 49.1137 34.61 49.1001 35.2469 49.1063C35.5675 49.1301 35.8981 48.885 35.9125 48.5532C35.9343 45.835 35.8919 43.1157 35.9337 40.3963C35.9881 40.4444 36.0643 40.4757 36.0963 40.5457C36.865 42.2069 37.5943 43.8875 38.3463 45.5563C38.5137 45.9701 39.01 45.9606 39.3825 45.94C39.8206 45.905 40.3369 46.0613 40.695 45.7257C41.5063 44.0132 42.2243 42.255 43.0556 40.5532C43.0975 40.5088 43.1469 40.4719 43.2043 40.4437C43.2387 43.1463 43.2031 45.8506 43.22 48.5532C43.2312 48.865 43.5325 49.1125 43.8337 49.1037C44.4712 49.1063 45.1081 49.1101 45.7456 49.1025C46.0919 49.1106 46.3856 48.7957 46.3619 48.4519C46.3619 44.3313 46.3643 40.2106 46.3594 36.0919C46.3756 35.7319 46.0412 35.4537 45.6931 35.4613Z" fill="#3B4656"/>
<path d="M17.6474 26.9611C17.6387 27.2899 17.6449 27.6174 17.6812 27.943C17.6924 27.6149 17.6899 27.2867 17.6474 26.9611Z" fill="#B77F2E"/>
<path d="M17.7003 28.2313C17.6909 28.56 17.699 28.8887 17.734 29.2163C17.7484 28.8875 17.7427 28.5582 17.7003 28.2313Z" fill="#B77F2E"/>
<path d="M18.0075 35.8114C17.9937 36.1601 18.0156 36.5076 18.0499 36.8545C18.0575 36.5057 18.075 36.1551 18.0075 35.8114Z" fill="#B77F2E"/>
<path d="M18.0611 37.0313C18.0435 37.4138 18.0666 37.7969 18.1061 38.1769C18.111 37.795 18.131 37.4094 18.0611 37.0313Z" fill="#B77F2E"/>
<path d="M18.1143 38.3062C18.0943 38.6887 18.1237 39.0713 18.1556 39.4518C18.1674 39.07 18.1825 38.685 18.1143 38.3062Z" fill="#B77F2E"/>
<path d="M18.2191 40.7537C18.2266 41.1649 18.2054 41.5793 18.276 41.9868C18.2785 41.5756 18.2885 41.1593 18.2191 40.7537Z" fill="#B77F2E"/>
<path d="M18.5002 48.0287C18.5534 48.5799 18.5177 49.1355 18.5914 49.6837C18.6252 48.8318 18.5314 47.9793 18.519 47.1275C18.4252 45.4287 18.4027 43.7255 18.2796 42.0293C18.307 44.0293 18.4421 46.0281 18.5002 48.0287Z" fill="#B77F2E"/>
<path d="M43.1825 58.4049C42.4357 58.6636 41.6457 58.8174 40.8513 58.8111C39.955 58.8305 39.0625 58.6692 38.2213 58.3636C32.3075 56.3899 26.3894 54.4292 20.4763 52.4555C19.3657 52.0805 18.6401 50.9611 18.5994 49.8117C18.5863 50.3449 18.5832 50.8923 18.7688 51.403C19.0369 52.1736 19.6675 52.8074 20.4357 53.0823C26.4494 55.1636 32.4613 57.2467 38.4737 59.3292C39.9937 59.8323 41.6806 59.808 43.1832 59.2543C49.1181 57.1986 55.0519 55.1443 60.9863 53.0867C62.0613 52.7223 62.8413 51.6367 62.8257 50.4999C62.5575 51.3705 61.9237 52.1511 61.0469 52.4549C55.095 54.4455 49.1357 56.4155 43.1825 58.4049Z" fill="#B77F2E"/>
</svg>
