<svg width="81" height="80" viewBox="0 0 81 80" fill="none" xmlns="http://www.w3.org/2000/svg">
<path d="M10.0996 30.4013C13.6843 30.3995 17.2709 30.3995 20.8574 30.4013C20.8556 31.7609 20.8574 33.1224 20.8556 34.482C18.8811 34.4985 16.9067 34.4509 14.9341 34.5076C14.9194 35.3475 14.925 36.1874 14.9268 37.0291C16.7347 37.0456 18.5426 37.0309 20.3505 37.0346C20.3578 37.816 20.3578 38.5955 20.3505 39.375C21.2398 37.8471 22.8245 36.7968 24.5538 36.4784C26.3799 36.1673 28.3873 36.3411 29.9555 37.4042C31.1321 38.1728 31.9281 39.4117 32.349 40.7346C32.8979 39.0036 34.1514 37.4464 35.8733 36.7839C37.7489 36.0483 40.1552 36.2625 41.533 37.8562C41.5239 35.3731 41.5367 32.89 41.5258 30.4069C42.9476 30.3959 44.3675 30.4013 45.7912 30.4032C45.7875 36.471 45.7912 42.5407 45.7894 48.6085C44.3694 48.6122 42.9512 48.6049 41.533 48.6122C41.5294 48.2151 41.5294 47.8181 41.5349 47.4228C40.8542 48.3341 39.8734 49.0532 38.7279 49.2161C36.1277 49.6186 33.4725 47.8821 32.6034 45.4429L32.6015 45.2599C32.3966 45.2727 32.1934 45.2873 31.9903 45.302L32.2922 45.3715C31.6756 46.5426 30.8869 47.6917 29.6957 48.3432C28.133 49.2435 26.2189 49.4009 24.4769 49.0404C22.6067 48.6287 20.9233 47.3551 20.1218 45.6057C19.4319 44.1693 19.3642 42.5077 19.7009 40.9689C18.1144 40.9615 16.5279 40.9689 14.9414 40.9652C14.903 43.5124 14.9414 46.0613 14.9213 48.6085C13.3146 48.6104 11.7081 48.6104 10.1033 48.6085C10.0959 42.5407 10.1033 36.471 10.0996 30.4013ZM23.8108 40.9835C25.3498 41.0091 26.8886 41.0017 28.4276 40.9889C28.2025 39.9935 27.3589 39.1298 26.3013 39.1225C25.1228 38.9853 24.1182 39.9002 23.8108 40.9835ZM38.2686 39.7501C36.4698 40.3504 36.0178 42.7786 36.759 44.3413C37.2366 45.5033 38.6529 46.1364 39.8294 45.6643C40.8652 45.2781 41.3538 44.1217 41.3903 43.0841C41.4288 42.0796 41.2311 40.967 40.4846 40.2387C39.9137 39.6678 39.0225 39.5379 38.2686 39.7501ZM23.6681 43.6807C23.7706 44.2864 23.9554 44.9067 24.4055 45.3496C25.4065 46.4529 27.4541 46.3853 28.2427 45.0622C29.6518 45.1245 31.0827 44.9341 32.477 45.1739C32.2904 44.6853 32.1825 44.1748 32.0818 43.6661C29.2766 43.6844 26.4714 43.6533 23.6681 43.6807Z" fill="#474747"/>
<path d="M45.7919 30.4031C49.157 30.4068 52.524 30.3995 55.8891 30.4068C55.8818 31.7627 55.8872 33.1187 55.8872 34.4746C53.9403 34.5057 51.9915 34.4197 50.0481 34.5203C50.0573 35.3566 50.0536 36.1928 50.0536 37.0291C53.7884 37.0455 57.5232 37.0419 61.2597 37.0327C62.1417 37.9422 62.967 38.9066 63.8271 39.8379C64.6852 38.9303 65.4245 37.8983 66.3432 37.0529C68.0668 37.0108 69.7961 37.0492 71.5216 37.0383C69.8492 38.9797 68.12 40.8755 66.42 42.7932C68.1328 44.7456 69.8803 46.667 71.6058 48.6085C69.7888 48.6122 67.9717 48.603 66.1564 48.6122C65.2873 47.6954 64.4767 46.7255 63.6203 45.796C62.7511 46.7091 62.0008 47.7411 61.0749 48.592C55.9806 48.6268 50.8844 48.5994 45.79 48.6085C45.7919 42.5407 45.7882 36.471 45.7919 30.4031ZM55.8928 37.1298C55.88 38.407 55.8854 39.6843 55.8891 40.9633C53.9494 40.9633 52.0098 40.9633 50.0683 40.9615C50.0372 42.1472 50.0609 43.3348 50.0518 44.5206C51.9969 44.5389 53.9403 44.5187 55.8854 44.5315C55.8891 45.8692 55.88 47.2068 55.8891 48.5427C57.6 46.6523 59.2816 44.7383 60.9816 42.8371C59.3 40.9231 57.6147 39.009 55.8928 37.1298Z" fill="#FF6600"/>
<path d="M74.866 44.8792C76.147 44.1656 77.997 45.0585 78.0738 46.5663C78.3208 48.0412 76.7526 49.3459 75.3436 48.9177C74.1689 48.6725 73.4406 47.3751 73.7681 46.2351C73.9108 45.6496 74.328 45.1464 74.866 44.8792ZM75.1881 45.1445C74.1597 45.5489 73.8322 46.9634 74.4342 47.8472C74.9173 48.6103 76.0115 48.8353 76.7838 48.3888C77.6602 47.8912 77.9054 46.6395 77.373 45.8069C76.9447 45.0786 75.9475 44.8096 75.1881 45.1445Z" fill="#FF6600"/>
<path d="M75.04 45.4794C75.5616 45.4813 76.1343 45.3586 76.6137 45.6222C76.9559 45.9461 76.8534 46.4639 76.5332 46.7586C76.6943 47.2014 76.7912 47.6643 76.8589 48.1327C76.202 48.2883 76.3576 47.5637 76.202 47.1702C76.1453 46.8354 75.6732 46.969 75.4444 46.8885C75.4389 47.2946 75.4389 47.7027 75.4408 48.1126C75.3401 48.1108 75.1425 48.1071 75.0437 48.1071C75.0382 47.2306 75.0419 46.3542 75.04 45.4794ZM75.4335 45.829C75.4353 46.0723 75.4389 46.3194 75.4444 46.5646C75.728 46.5316 76.0464 46.5865 76.3063 46.4328C76.3337 46.2663 76.363 46.1016 76.3923 45.9351C76.0739 45.8655 75.7555 45.818 75.4335 45.829Z" fill="#FF6600"/>
</svg>
