<svg width="81" height="80" viewBox="0 0 81 80" fill="none" xmlns="http://www.w3.org/2000/svg">
<path d="M15.4386 32.5306L15.9973 33.1775H31.6811L32.2105 31.1344H14.0129L13.6455 32.5306H15.4386Z" fill="#E04C26"/>
<path d="M70.6766 36.5875L71.4259 33.6918L69.1178 31.4718H65.1347L61.4753 33.6324L70.5303 33.6468L70.3535 34.3668L61.2997 34.3812C61.1241 35.1012 60.9178 35.8068 60.7403 36.5418L64.3559 36.5562C64.2678 36.7618 64.2234 36.9975 64.1641 37.2175L60.579 37.2318C60.3872 37.9512 60.1972 38.6724 60.0197 39.4068L69.0735 39.4218C69.0003 39.6568 68.9272 39.8924 68.8684 40.1275L60.2846 40.1437C60.7841 40.6731 61.2978 41.1724 61.7822 41.6875L65.1634 41.7012C65.1334 41.9224 65.0459 42.1281 65.0172 42.3481L68.3241 42.3631C68.2647 42.5981 68.1922 42.8187 68.1328 43.0393H64.8253L64.6041 43.8912L63.2672 43.8768L63.4715 43.0393L59.0915 43.0537L58.5028 45.2881L67.5741 45.3024L67.3978 45.9637H58.3447L58.359 45.9775L60.9303 47.9031H64.9284L68.2797 45.9775L69.8966 39.6424L67.8391 37.7612L64.8559 37.7462C65.0315 37.0268 65.2078 36.2912 65.4141 35.5856L66.7653 35.6C66.6784 35.9381 66.5903 36.2612 66.5015 36.5993L70.6766 36.5875Z" fill="#233F8A"/>
<path d="M40.3823 41.7176V41.7033L41.3974 37.7639L37.5755 37.7495C37.7517 37.0295 37.928 36.2945 38.1486 35.5739H41.9699V35.5595L43.0136 31.5327H34.4736L33.9148 33.7076L41.4999 33.722C41.4399 33.957 41.3961 34.192 41.3217 34.4276H33.7392L33.1655 36.6033L36.8255 36.6176L36.6492 37.2795H32.9892C32.813 37.9989 32.6074 38.7201 32.4305 39.4545L40.0155 39.4689C39.9567 39.7039 39.9123 39.9533 39.8386 40.1745H32.2543L31.6811 42.3651L35.3411 42.3795L35.1648 43.0551H31.5055C31.3143 43.8045 31.123 44.5695 30.9323 45.3045L38.5461 45.3189L38.3548 45.9951L30.7699 46.0101L30.2705 47.9207H38.8105V47.907L39.8248 43.9233L35.9886 43.9089C36.1799 43.1739 36.3561 42.4539 36.5617 41.7189H40.3823V41.7176Z" fill="#233F8A"/>
<path d="M52.2589 45.9799C52.0827 46.6262 51.9346 47.2731 51.7596 47.9055H55.7858L60.0046 31.5605H54.7715L53.5665 33.7211L58.7696 33.7355L58.5933 34.4418L53.1384 34.4562L51.9496 36.603L58.0202 36.6174L57.8446 37.2787H51.554L51.0984 38.1018L50.7177 31.5018H45.3953L44.8358 33.6767L50.0553 33.6918V34.4111H44.6309L44.0715 36.5718L50.2146 36.5867L50.2009 37.2499H43.9109L43.3509 39.4255L46.4102 39.4393C46.3502 39.6742 46.3077 39.9242 46.2346 40.1455H43.1753C42.9846 40.8942 42.7796 41.6155 42.6027 42.3499L45.6602 42.3649C45.5877 42.5855 45.5427 42.8205 45.484 43.0411H42.4127L41.8402 45.3049L44.9265 45.3193L44.7502 45.9811H41.6789L41.1777 47.8918H45.2346L47.7484 38.2349C47.7627 38.6318 47.7484 39.043 47.7484 39.4549L52.6865 39.4693C52.5827 39.7043 52.4509 39.9399 52.3346 40.1749H47.7484V42.3655L51.2177 42.3793C51.0996 42.6005 50.9965 42.8349 50.8796 43.0555H47.7484V45.3049L49.7321 45.3193C49.6153 45.5405 49.5115 45.7749 49.3953 45.9955H47.7484V47.9067L49.2621 47.8918L54.1271 38.308C54.0533 38.6755 53.9509 39.0724 53.8777 39.4549L57.3021 39.4693C57.2296 39.7043 57.1702 39.9399 57.1109 40.1749H53.744L53.1996 42.3655L56.5371 42.3793C56.494 42.6005 56.434 42.8349 56.3609 43.0555L52.9802 43.0699L52.4509 45.3042L55.7877 45.3187L55.6121 45.9805H52.2602V45.9799H52.2589Z" fill="#233F8A"/>
<path d="M9.57422 48.3023L27.7417 48.288L27.8305 48.0085H9.63294L9.57422 48.3023Z" fill="#E04C26"/>
<path d="M29.2698 42.4523H22.5523L11.0873 42.4673L10.9698 42.9817H24.4629L25.9329 44.6867H28.6816L29.2698 42.4523Z" fill="#E04C26"/>
<path d="M28.5206 45.3481L10.3381 45.3337L10.2793 45.6419L26.7575 45.6569L28.0355 47.1563L28.5206 45.3481Z" fill="#E04C26"/>
<path d="M31.4603 34.0446H13.2628L12.9541 35.2058H17.7453L18.5684 36.1614H30.9015L31.4603 34.0446Z" fill="#E04C26"/>
<path d="M30.7095 36.9406H12.5126L12.292 37.8369H20.0239L21.0677 39.0425H30.1658L30.7095 36.9406Z" fill="#E04C26"/>
<path d="M29.9906 39.7625H11.7931L11.6318 40.3656H22.2144L23.4494 41.8056H29.4462L29.9906 39.7625Z" fill="#E04C26"/>
</svg>
