<svg width="81" height="80" viewBox="0 0 81 80" fill="none" xmlns="http://www.w3.org/2000/svg">
<path d="M27.7666 38.4856C32.1685 41.0675 36.5523 43.6862 40.9535 46.2681C41.4485 46.6331 42.091 46.5544 42.5766 46.2162C46.9648 43.6162 51.3623 41.0268 55.7523 38.4319C56.2641 38.1693 56.5897 37.6362 56.5241 37.0537C56.5141 32.1025 56.5523 27.1493 56.506 22.2C53.3923 23.8362 50.4423 25.7819 47.3441 27.4444C46.2423 27.3656 45.5497 26.2644 45.9728 25.2219C49.1591 23.1919 52.5379 21.4593 55.7341 19.4437C51.2941 17.025 46.8641 14.5881 42.4204 12.1806C41.4797 11.5987 40.5628 12.4837 39.7385 12.8675C35.7885 15.1262 31.5772 17.1275 27.7854 19.5369C32.6623 22.3725 37.5366 25.2169 42.4185 28.0475C42.7397 28.2293 43.1416 28.46 43.0597 28.8969C43.0341 33.1862 43.1248 37.4812 43.0148 41.7656C42.4128 42.7031 41.1466 42.7056 40.4391 41.8719C40.311 37.9475 40.4579 34.0137 40.3723 30.0862C36.0003 27.2844 31.391 24.7813 26.8985 22.1437C26.8823 27.1156 26.8985 32.0881 26.8916 37.06C26.8291 37.6825 27.2247 38.2275 27.7666 38.4856Z" fill="#E11836"/>
<path d="M28.0914 54.4519C25.3814 56.0444 25.0289 60.3225 27.2096 62.49C29.414 64.4725 32.6721 64.0044 35.3421 63.4825C35.4545 58.84 35.3745 54.1819 35.3833 49.5332C34.524 49.4837 33.6602 49.4913 32.8009 49.5275C32.7465 50.9994 32.8083 52.475 32.7771 53.9481C31.2265 53.5557 29.494 53.625 28.0914 54.4519ZM32.7758 61.5325C31.4745 61.8712 29.8152 61.7406 28.9677 60.5612C28.2945 59.51 28.2565 58.015 28.984 56.9806C29.8545 55.8581 31.5709 55.7856 32.7758 56.3569C32.7877 58.0806 32.7865 59.8069 32.7758 61.5325Z" fill="#404041"/>
<path d="M48.6636 55.2526C46.6092 57.5182 46.9729 61.8213 49.8492 63.2482C52.0555 64.3089 54.6117 63.9357 56.928 63.4839C57.0292 58.837 56.9536 54.1813 56.9667 49.5326C56.1036 49.4832 55.2355 49.4908 54.3729 49.5289C54.3198 51.0001 54.3829 52.4713 54.3517 53.9426C52.408 53.4476 50.0898 53.7213 48.6636 55.2526ZM50.7017 60.7633C49.9449 59.8557 49.8761 58.4989 50.2911 57.4289C50.9592 55.9233 53.0149 55.687 54.3517 56.362C54.3611 58.0833 54.3586 59.8064 54.3529 61.527C53.1273 61.8551 51.6042 61.7589 50.7017 60.7633Z" fill="#404041"/>
<path d="M41.0508 61.6688C40.8589 62.385 40.9914 63.1794 40.9839 63.925C42.8583 64.0019 44.9452 63.2576 45.8552 61.5125C47.0302 59.2601 46.7183 55.9538 44.3995 54.5463C42.1164 53.2313 39.2552 53.6532 36.8951 54.5388C36.8714 58.9125 36.8677 63.2882 36.8983 67.6613C37.7689 67.6794 38.642 67.6757 39.5126 67.6632C39.5639 63.885 39.4908 60.1001 39.547 56.3219C41.0552 55.7345 43.3526 56.0825 43.7495 57.9182C44.3308 59.7094 42.992 61.7301 41.0508 61.6688Z" fill="#404041"/>
</svg>
