<svg width="81" height="80" viewBox="0 0 81 80" fill="none" xmlns="http://www.w3.org/2000/svg">
<path d="M13.5386 43.6455L14.0435 42.9612L5.70483 42.9606V43.6455H13.5386Z" fill="#D50029"/>
<path d="M4.21454 52.473H75.8245V52.8312H4.21454V52.473Z" fill="#FFDD00"/>
<path d="M5.70483 50.4301H74.3335V50.7732H5.70483V50.4301Z" fill="#FFDD00"/>
<path d="M5.70483 48.8293H74.3335V49.1724H5.70483V48.8293Z" fill="#FFDD00"/>
<path d="M5.70483 31.2213H74.3335V46.3657H5.70483V31.2213Z" fill="#FFDD00"/>
<path d="M26.726 39.0745C26.5704 39.2833 26.2911 39.6651 27.2192 39.6651C28.2011 39.6651 32.106 39.6651 32.106 39.6651C32.106 39.6651 32.8936 38.5933 33.5536 37.6983C34.4523 36.4795 33.6317 33.942 30.4204 33.942C27.546 33.942 17.7742 33.942 17.7742 33.942L15.5817 36.922C15.5817 36.922 26.9492 36.922 27.5323 36.922C28.136 36.922 28.1286 37.1514 27.8336 37.5514C27.5329 37.9558 27.0311 38.662 26.726 39.0745Z" fill="#D50029"/>
<path d="M24.864 38.2911C25.159 37.8911 25.1672 37.6617 24.5634 37.6617C23.9803 37.6617 19.0978 37.6617 19.0978 37.6617L14.694 43.6454C14.694 43.6454 22.559 43.6454 25.4334 43.6454C28.9803 43.6454 30.9552 41.2336 31.5647 40.3992C31.5647 40.3992 25.2247 40.3992 24.2434 40.3992C23.3152 40.3992 23.5947 40.0186 23.7496 39.8092C24.054 39.3961 24.564 38.6974 24.864 38.2911Z" fill="#D50029"/>
<path d="M37.5281 43.6457L39.9162 40.3988L33.6175 40.3994L31.2281 43.6457H37.5281Z" fill="#D50029"/>
<path d="M38.3717 33.9415L34.158 39.6646H49.568L53.7798 33.9415H47.4824L45.0667 37.2233H42.2555L44.6699 33.9415H38.3717Z" fill="#D50029"/>
<path d="M46.637 43.6457L49.0271 40.3994H42.7295L40.3395 43.6457H46.637Z" fill="#D50029"/>
<path d="M14.4786 42.3694L14.9855 41.6801H5.70483V42.3694H14.4786Z" fill="#D50029"/>
<path d="M15.4204 41.0881L15.9286 40.3994H5.70483V41.0881H15.4204Z" fill="#D50029"/>
<path d="M74.3342 42.3694V41.6801H65.5967L65.0886 42.3694H74.3342Z" fill="#D50029"/>
<path d="M74.3348 43.6455V42.9606L64.6535 42.9612L64.1491 43.6468L74.3348 43.6455Z" fill="#D50029"/>
<path d="M74.3341 41.0888V40.3994H66.5359L66.0309 41.0894L74.3341 41.0888Z" fill="#D50029"/>
<path d="M58.2883 39.6646L62.5015 33.9415H55.8315L51.614 39.6646H58.2883Z" fill="#D50029"/>
<path d="M52.882 43.6457C55.8639 43.6457 62.997 43.6457 62.997 43.6457L65.3844 40.3994H51.0751C51.0751 40.3994 50.6151 41.0294 50.3913 41.3313C49.6008 42.4006 50.3001 43.6457 52.882 43.6457Z" fill="#D50029"/>
<path d="M24.928 49.2142C25.4036 49.2142 25.6236 49.2954 25.7623 49.458L26.1829 48.9454C25.9511 48.8449 25.7698 48.768 25.2311 48.768C24.1054 48.768 22.7454 49.4949 21.9392 50.5861C21.1073 51.7142 21.3523 52.4354 22.5198 52.4354C23.0954 52.4354 23.5117 52.3442 23.7611 52.278L25.1217 50.4342H23.8167L23.5092 50.8511H24.2854L23.4911 51.9286C23.3405 51.9536 23.218 51.9892 22.8542 51.9892C22.088 51.9892 21.8729 51.4354 22.488 50.6023C23.0729 49.808 24.0767 49.2142 24.928 49.2142Z" fill="#D50029"/>
<path d="M27.2351 48.8299L24.6188 52.373H26.6895L27.0195 51.9267H25.4769L27.7632 48.8299H27.2351Z" fill="#D50029"/>
<path d="M28.0178 50.6005C27.2228 51.6774 27.3146 52.4355 28.4397 52.4355C29.5646 52.4355 30.7734 51.6774 31.5684 50.6005C32.344 49.5493 32.2659 48.7668 31.1459 48.7668C30.0259 48.7668 28.794 49.5499 28.0178 50.6005ZM31.0084 50.6005C30.4878 51.3068 29.6202 51.9874 28.7697 51.9874C27.919 51.9874 28.0566 51.3068 28.5778 50.6005C29.1102 49.8799 30.0066 49.2093 30.8166 49.2143C31.634 49.2093 31.5409 49.8799 31.0084 50.6005Z" fill="#D50029"/>
<path d="M35.2517 49.7224C35.7355 49.0673 35.383 48.8299 34.6173 48.8299H33.6186L31.0017 52.373L31.9848 52.3742C32.7355 52.3742 33.5248 52.1911 34.0879 51.4293C34.4555 50.9311 34.3335 50.6161 33.8617 50.5755L33.8692 50.5655C34.4161 50.4536 34.8923 50.2099 35.2517 49.7224ZM33.5611 51.383C33.2086 51.8605 32.7092 51.9567 32.2335 51.9567H31.8379L32.723 50.7586H33.0661C33.5199 50.7586 33.9661 50.8349 33.5611 51.383ZM33.3199 50.3417H33.0299L33.8392 49.2455H34.3935C34.7004 49.2455 34.9967 49.3517 34.6855 49.773C34.2999 50.2961 33.833 50.3417 33.3199 50.3417Z" fill="#D50029"/>
<path d="M37.5398 52.373L38.5979 48.8299H38.0442L33.8522 52.373H34.4066L35.4417 51.4793H37.2491L36.9648 52.373H37.5398ZM35.9191 51.0636L37.9504 49.3055L37.3879 51.0636H35.9191Z" fill="#D50029"/>
<path d="M40.6849 48.8299L38.0681 52.373H40.1387L40.47 51.9267H38.9269L41.2137 48.8299H40.6849Z" fill="#D50029"/>
<path d="M45.7838 52.3726H47.0569L48.5982 50.2846C49.3063 49.3258 49.4926 48.7477 48.43 48.7477C47.9076 48.7477 47.2682 48.952 46.62 49.4282C46.7632 48.9651 46.4926 48.7477 45.97 48.7477C45.3882 48.7477 44.7132 48.972 44.082 49.4826H44.0688L44.5507 48.8295H43.3907L40.7751 52.3726H42.0495L43.1532 50.8764C43.7144 50.1146 44.2394 49.7682 44.6926 49.7682C45.0538 49.7682 44.9813 50.0677 44.6851 50.4689L43.28 52.3726H44.5532L45.6576 50.8764C46.2195 50.1146 46.7444 49.7682 47.1982 49.7682C47.5582 49.7682 47.4869 50.0677 47.19 50.4689L45.7838 52.3726Z" fill="#D50029"/>
<path d="M51.4451 52.3726C51.5938 52.0945 51.7864 51.8151 51.992 51.537L52.967 50.217C53.7638 49.1364 53.237 48.7477 52.2964 48.7477C51.752 48.7477 51.2226 48.8226 50.6395 48.9989L50.0489 49.8282C50.5432 49.6377 51.0095 49.5633 51.4182 49.5633C51.8782 49.5633 52.1582 49.6926 51.8089 50.1751C51.6658 50.1477 51.4551 50.127 51.2495 50.127C50.5695 50.127 49.2507 50.2558 48.452 51.3377C47.8851 52.1064 48.2795 52.4533 49.0082 52.4533C49.5333 52.4533 50.032 52.257 50.6489 51.8146H50.662C50.5264 51.9982 50.412 52.1814 50.2789 52.372L51.4451 52.3726ZM49.9432 51.6389C49.6451 51.6389 49.5258 51.4958 49.7064 51.2514C49.957 50.9108 50.3926 50.7814 50.8226 50.7814C51.0151 50.7814 51.1876 50.7946 51.3458 50.802C51.0389 51.217 50.4245 51.6389 49.9432 51.6389Z" fill="#D50029"/>
<path d="M56.1825 48.8293H54.9088L54.3981 49.5212H55.6719L56.1825 48.8293Z" fill="#D50029"/>
<path d="M52.2927 52.3726H53.567L55.4176 49.8651H54.1432L52.2927 52.3726Z" fill="#D50029"/>
<path d="M55.8389 52.3724L58.4532 48.8293H57.1814L54.5651 52.3724H55.8389Z" fill="#D50029"/>
</svg>
