<svg width="81" height="80" viewBox="0 0 81 80" fill="none" xmlns="http://www.w3.org/2000/svg">
<path d="M44.5917 27.5382C45.3485 25.2545 45.9485 22.8132 46.7623 20.6007H64.8754C65.1473 18.9732 65.546 17.4745 65.8179 15.8332H44.5917C43.8491 18.1314 43.4785 20.8007 42.6785 23.0845H31.4879C30.4029 28.0376 29.3185 33.005 28.0904 37.8157H16.9711C16.1716 41.8126 15.2723 45.695 14.5154 49.735C18.2979 49.7776 22.266 49.635 25.9211 49.8063C24.9791 54.6314 23.8942 59.3132 22.966 64.1663H48.0179C49.0591 59.3845 50.1723 54.6738 51.2723 49.9488H58.7804C59.0948 48.307 59.4091 46.6801 59.7223 45.0382H49.1891C48.1467 49.8488 47.076 54.6588 45.9485 59.3982C39.5954 59.355 33.0585 59.4981 26.8204 59.327C26.9635 58.4563 27.106 57.6001 27.3917 56.8719H44.1354C45.3635 52.0757 46.3048 47.0082 47.6048 42.2832H60.3791C60.7079 40.7988 61.0079 39.3001 61.3229 37.8014H45.3623C44.3067 42.5119 43.3498 47.3363 42.2654 52.0188C37.6973 51.9763 32.9298 52.1188 28.476 51.9476C28.6611 51.2626 28.7904 50.5201 29.0611 49.9207H39.8954C40.7235 45.8526 41.5804 41.827 42.4217 37.7876C38.7529 37.7445 34.9135 37.8876 31.3735 37.7163C31.6448 36.9026 31.7017 35.875 32.1017 35.1901H48.7742C49.4886 32.7207 50.0011 30.0514 50.8004 27.6819H63.3629C63.6911 26.1545 64.0048 24.6132 64.376 23.1282H48.5604C47.8179 25.5407 47.2335 28.1245 46.3911 30.4225C41.9079 30.3794 37.2404 30.5226 32.8867 30.3514C33.1585 29.4094 33.2723 28.3245 33.686 27.5394H44.5917V27.5382ZM26.7635 44.9245H18.4554C18.6267 44.025 18.7691 43.0832 19.1123 42.327H27.4917C27.2917 43.2401 26.9911 44.0538 26.7635 44.9245ZM38.7391 42.327C38.6254 43.2407 38.3967 44.0545 38.2398 44.9245H29.9323C29.9035 44.1538 30.2317 43.1119 30.4317 42.327H38.7391Z" fill="#0B9444"/>
</svg>
